<svg width="23" height="19" viewBox="0 0 23 19" fill="none" xmlns="http://www.w3.org/2000/svg">
    <path d="M18.3747 18.261H4.37492C3.21462 18.261 2.10184 17.8911 1.28138 17.2328C0.460928 16.5744 0 15.6815 0 14.7504V4.92086C0 4.73465 0.0921855 4.55607 0.256277 4.42439C0.420368 4.29272 0.642924 4.21875 0.874984 4.21875H18.3747C19.535 4.21875 20.6477 4.58861 21.4682 5.24697C22.2887 5.90533 22.7496 6.79825 22.7496 7.72931V14.7504C22.7496 15.6815 22.2887 16.5744 21.4682 17.2328C20.6477 17.8911 19.535 18.261 18.3747 18.261ZM1.74997 5.62297V14.7504C1.74997 15.3091 2.02653 15.8448 2.5188 16.2398C3.01107 16.6349 3.67874 16.8568 4.37492 16.8568H18.3747C19.0708 16.8568 19.7385 16.6349 20.2308 16.2398C20.7231 15.8448 20.9996 15.3091 20.9996 14.7504V7.72931C20.9996 7.17068 20.7231 6.63492 20.2308 6.23991C19.7385 5.84489 19.0708 5.62297 18.3747 5.62297H1.74997Z" fill="#939393"/>
    <path d="M20.1247 5.62322C19.8927 5.62322 19.6701 5.54925 19.506 5.41757C19.3419 5.2859 19.2497 5.10732 19.2497 4.92111V2.9903C19.2665 2.74434 19.2138 2.49852 19.0957 2.27118C18.9775 2.04384 18.7969 1.84084 18.5673 1.67735C18.3609 1.55332 18.1221 1.46863 17.869 1.4297C17.6158 1.39077 17.3549 1.39863 17.106 1.45267L2.43255 4.12772C2.23517 4.16339 2.0593 4.25284 1.93486 4.38086C1.81043 4.50887 1.74512 4.66753 1.75006 4.82983C1.75006 5.01604 1.65788 5.19463 1.49379 5.3263C1.3297 5.45797 1.10714 5.53194 0.875081 5.53194C0.643021 5.53194 0.420465 5.45797 0.256374 5.3263C0.0922823 5.19463 9.6756e-05 5.01604 9.6756e-05 4.82983C-0.00503719 4.34986 0.194275 3.88288 0.56503 3.50621C0.935785 3.12954 1.45574 2.86578 2.03881 2.7586L16.721 0.0835513C17.226 -0.0189042 17.7535 -0.0272478 18.2631 0.0591596C18.7727 0.145567 19.2509 0.324432 19.661 0.582051C20.0947 0.877388 20.4401 1.24713 20.6718 1.66395C20.9035 2.08078 21.0156 2.53406 20.9997 2.9903V4.92111C20.9997 5.10732 20.9075 5.2859 20.7434 5.41757C20.5793 5.54925 20.3568 5.62322 20.1247 5.62322Z" fill="#939393"/>
    <path d="M21.8748 14.0485H15.7499C14.8217 14.0485 13.9315 13.7526 13.2751 13.226C12.6187 12.6993 12.25 11.9849 12.25 11.2401C12.25 10.4952 12.6187 9.7809 13.2751 9.25422C13.9315 8.72753 14.8217 8.43164 15.7499 8.43164H21.8748C22.1069 8.43164 22.3294 8.50561 22.4935 8.63728C22.6576 8.76896 22.7498 8.94754 22.7498 9.13375V13.3464C22.7498 13.5326 22.6576 13.7112 22.4935 13.8429C22.3294 13.9746 22.1069 14.0485 21.8748 14.0485ZM15.7499 9.83587C15.2858 9.83587 14.8407 9.98381 14.5125 10.2472C14.1843 10.5105 14 10.8677 14 11.2401C14 11.6125 14.1843 11.9697 14.5125 12.233C14.8407 12.4964 15.2858 12.6443 15.7499 12.6443H20.9998V9.83587H15.7499Z" fill="#939393"/>
</svg>
