<svg width="40" height="40" viewBox="0 0 40 40" fill="none" xmlns="http://www.w3.org/2000/svg">
    <path d="M35.0002 18.3333C34.5581 18.3333 34.1342 18.5089 33.8217 18.8215C33.5091 19.134 33.3335 19.558 33.3335 20C33.3533 23.1217 32.284 26.1526 30.3096 28.5707C28.3352 30.9888 25.5794 32.6428 22.5168 33.2477C19.4542 33.8525 16.2765 33.3705 13.531 31.8846C10.7855 30.3987 8.64417 28.0019 7.47571 25.1071C6.30724 22.2122 6.18482 19.0005 7.12953 16.0251C8.07425 13.0497 10.027 10.4969 12.6513 8.80628C15.2757 7.11569 18.4075 6.39317 21.5073 6.76316C24.607 7.13316 27.4808 8.57251 29.6335 10.8333H25.6335C25.1915 10.8333 24.7676 11.0089 24.455 11.3215C24.1424 11.634 23.9668 12.058 23.9668 12.5C23.9668 12.942 24.1424 13.3659 24.455 13.6785C24.7676 13.991 25.1915 14.1666 25.6335 14.1666H33.1835C33.6255 14.1666 34.0495 13.991 34.362 13.6785C34.6746 13.3659 34.8502 12.942 34.8502 12.5V4.99998C34.8502 4.55795 34.6746 4.13403 34.362 3.82147C34.0495 3.50891 33.6255 3.33331 33.1835 3.33331C32.7415 3.33331 32.3175 3.50891 32.005 3.82147C31.6924 4.13403 31.5168 4.55795 31.5168 4.99998V7.94998C28.7413 5.29674 25.1347 3.68323 21.3069 3.38219C17.479 3.08116 13.6645 4.11105 10.5084 6.2978C7.35219 8.48454 5.04785 11.694 3.98488 15.3836C2.92191 19.0733 3.16552 23.0168 4.67451 26.5475C6.18351 30.0783 8.86534 32.9797 12.2667 34.7614C15.668 36.5431 19.5802 37.0956 23.3419 36.3258C27.1036 35.5559 30.4842 33.5108 32.9121 30.5361C35.34 27.5614 36.6663 23.8397 36.6668 20C36.6668 19.558 36.4912 19.134 36.1787 18.8215C35.8661 18.5089 35.4422 18.3333 35.0002 18.3333Z" fill="#7E7E7E"/>
</svg>
