<svg width="16" height="25" viewBox="0 0 16 25" fill="none" xmlns="http://www.w3.org/2000/svg">
<path d="M10.1299 14.333C10.1299 13.1953 9.18881 12.2512 8.00002 12.2512C6.836 12.2512 5.87012 13.1711 5.87012 14.333C5.87012 15.1318 6.34068 15.8339 7.03414 16.1728L5.87012 19.4649H8.00002H10.1299L8.96591 16.1728C9.65937 15.8339 10.1299 15.1318 10.1299 14.333Z" fill="#1C1E66"/>
<path fill-rule="evenodd" clip-rule="evenodd" d="M13.7706 17.4314L12.7304 16.6083L7.80189 22.6359L4.30983 19.7795L3.46777 20.7962L8.00002 24.4998L13.7706 17.4314Z" fill="url(#paint0_linear_375_3900)"/>
<path d="M15.6281 15.8581C15.2071 11.9123 11.7894 10.7262 11.7894 10.7262C11.4674 10.5809 11.0711 10.4841 10.7739 10.4115C10.3281 10.3146 10.1548 10.2662 10.1052 10.242C9.43655 9.83049 9.43656 8.838 9.43656 8.838C10.7244 7.74868 10.9721 6.15101 10.9721 6.15101C11.3188 5.88473 11.3683 5.52163 11.3683 5.52163L11.4674 4.81962C11.5665 4.11761 11.0711 4.04499 11.0711 4.04499C10.873 0.994901 9.06506 0.559173 8.32207 0.510759C8.00011 0.486552 7.72768 0.510759 7.72768 0.510759C7.25712 0.534966 6.26646 0.704415 5.59777 1.72111H5.20151V2.10843H5.37487C5.35011 2.20525 5.30057 2.30208 5.25104 2.42312H4.60712V3.10092H5.05291C4.97861 3.3914 4.95385 3.70609 4.92908 4.0692C4.92908 4.0692 4.43375 4.14182 4.53282 4.84383L4.63188 5.54583C4.63188 5.54583 4.70618 5.88473 5.02814 6.17522C5.02814 6.17522 5.27581 7.77289 6.56366 8.8622C6.56366 8.8622 6.56366 9.83049 5.89497 10.242C5.82067 10.2662 5.6473 10.3146 5.22628 10.4115C4.92908 10.4841 4.53282 10.5809 4.21085 10.7262C4.21085 10.7262 0.793098 11.9123 0.37207 15.8581H5.7216C5.39964 15.4223 5.22628 14.8898 5.22628 14.333C5.22628 12.8564 6.43983 11.646 7.95057 11.646H7.97534C9.48609 11.646 10.7244 12.8564 10.7244 14.333C10.7244 14.8898 10.551 15.4223 10.2291 15.8581H15.6281ZM5.7959 2.03581H6.43983V2.66519H5.7959V2.03581ZM6.71226 3.00409V3.31878H6.39029V3.00409H6.71226ZM6.81132 5.35218H5.8702V4.43231H5.22628V3.80292H5.8702V4.43231H6.81132V5.35218Z" fill="url(#paint1_linear_375_3900)"/>
<path d="M4.87979 1.358H4.0625V2.15684H4.87979V1.358Z" fill="url(#paint2_linear_375_3900)"/>
<path d="M3.76467 1.64853H3.14551V2.25371H3.76467V1.64853Z" fill="url(#paint3_linear_375_3900)"/>
<path d="M4.06192 0.776978H3.69043V1.14008H4.06192V0.776978Z" fill="url(#paint4_linear_375_3900)"/>
<path d="M4.30972 2.52011H3.26953V3.53681H4.30972V2.52011Z" fill="url(#paint5_linear_375_3900)"/>
<defs>
<linearGradient id="paint0_linear_375_3900" x1="3.46282" y1="20.5539" x2="13.7805" y2="20.5539" gradientUnits="userSpaceOnUse">
<stop stop-color="#FD5C00"/>
<stop offset="1" stop-color="#D40E19"/>
</linearGradient>
<linearGradient id="paint1_linear_375_3900" x1="14.6011" y1="8.12897" x2="3.81778" y2="8.356" gradientUnits="userSpaceOnUse">
<stop stop-color="#1C1E66"/>
<stop offset="1" stop-color="#DC1E14"/>
</linearGradient>
<linearGradient id="paint2_linear_375_3900" x1="14.4626" y1="1.54125" x2="3.67933" y2="1.76828" gradientUnits="userSpaceOnUse">
<stop stop-color="#1C1E66"/>
<stop offset="1" stop-color="#DC1E14"/>
</linearGradient>
<linearGradient id="paint3_linear_375_3900" x1="14.4662" y1="1.74342" x2="3.6829" y2="1.9702" gradientUnits="userSpaceOnUse">
<stop stop-color="#1C1E66"/>
<stop offset="1" stop-color="#DC1E14"/>
</linearGradient>
<linearGradient id="paint4_linear_375_3900" x1="14.445" y1="0.732679" x2="3.66167" y2="0.959708" gradientUnits="userSpaceOnUse">
<stop stop-color="#1C1E66"/>
<stop offset="1" stop-color="#DC1E14"/>
</linearGradient>
<linearGradient id="paint5_linear_375_3900" x1="14.4894" y1="2.82996" x2="3.70588" y2="3.05699" gradientUnits="userSpaceOnUse">
<stop stop-color="#1C1E66"/>
<stop offset="1" stop-color="#DC1E14"/>
</linearGradient>
</defs>
</svg>
