<svg width="62" height="56" viewBox="0 0 62 56" fill="none" xmlns="http://www.w3.org/2000/svg">
    <g filter="url(#filter0_d_436_439)">
        <g clip-path="url(#clip0_436_439)">
            <rect x="4" width="54" height="48" rx="8" fill="white"/>
            <ellipse cx="46.5" cy="24" rx="25.5" ry="23" fill="url(#paint0_linear_436_439)" fill-opacity="0.2"/>
            <line x1="61.5078" y1="4.55192" x2="9.50777" y2="52.3967" stroke="#91D7E3" stroke-opacity="0.17" stroke-width="1.5"/>
            <path d="M62 5.39833L64.4275 7.60552L12.7625 54.5812L10.335 52.374L62 5.39833Z" fill="url(#paint1_linear_436_439)" fill-opacity="0.4"/>
            <path d="M38.3747 33.2612H24.3749C23.2146 33.2612 22.1018 32.8914 21.2814 32.233C20.4609 31.5747 20 30.6817 20 29.7507V19.9211C20 19.7349 20.0922 19.5563 20.2563 19.4246C20.4204 19.293 20.6429 19.219 20.875 19.219H38.3747C39.535 19.219 40.6477 19.5889 41.4682 20.2472C42.2887 20.9056 42.7496 21.7985 42.7496 22.7296V29.7507C42.7496 30.6817 42.2887 31.5747 41.4682 32.233C40.6477 32.8914 39.535 33.2612 38.3747 33.2612ZM21.75 20.6232V29.7507C21.75 30.3093 22.0265 30.8451 22.5188 31.2401C23.0111 31.6351 23.6787 31.857 24.3749 31.857H38.3747C39.0708 31.857 39.7385 31.6351 40.2308 31.2401C40.7231 30.8451 40.9996 30.3093 40.9996 29.7507V22.7296C40.9996 22.1709 40.7231 21.6352 40.2308 21.2402C39.7385 20.8451 39.0708 20.6232 38.3747 20.6232H21.75Z" fill="#03548E"/>
            <path d="M40.1247 20.6232C39.8927 20.6232 39.6701 20.5492 39.506 20.4176C39.3419 20.2859 39.2497 20.1073 39.2497 19.9211V17.9903C39.2665 17.7443 39.2138 17.4985 39.0957 17.2712C38.9775 17.0438 38.7969 16.8408 38.5673 16.6773C38.3609 16.5533 38.1221 16.4686 37.869 16.4297C37.6158 16.3908 37.3549 16.3986 37.106 16.4527L22.4326 19.1277C22.2352 19.1634 22.0593 19.2528 21.9349 19.3809C21.8104 19.5089 21.7451 19.6675 21.7501 19.8298C21.7501 20.016 21.6579 20.1946 21.4938 20.3263C21.3297 20.458 21.1071 20.5319 20.8751 20.5319C20.643 20.5319 20.4205 20.458 20.2564 20.3263C20.0923 20.1946 20.0001 20.016 20.0001 19.8298C19.995 19.3499 20.1943 18.8829 20.565 18.5062C20.9358 18.1295 21.4557 17.8658 22.0388 17.7586L36.721 15.0836C37.226 14.9811 37.7535 14.9728 38.2631 15.0592C38.7727 15.1456 39.2509 15.3244 39.661 15.5821C40.0947 15.8774 40.4401 16.2471 40.6718 16.664C40.9035 17.0808 41.0156 17.5341 40.9997 17.9903V19.9211C40.9997 20.1073 40.9075 20.2859 40.7434 20.4176C40.5793 20.5492 40.3568 20.6232 40.1247 20.6232Z" fill="#1548A2" fill-opacity="0.55"/>
            <path d="M41.8748 29.0485H35.7499C34.8217 29.0485 33.9315 28.7526 33.2751 28.226C32.6187 27.6993 32.25 26.9849 32.25 26.2401C32.25 25.4952 32.6187 24.7809 33.2751 24.2542C33.9315 23.7275 34.8217 23.4316 35.7499 23.4316H41.8748C42.1069 23.4316 42.3294 23.5056 42.4935 23.6373C42.6576 23.769 42.7498 23.9475 42.7498 24.1338V28.3464C42.7498 28.5326 42.6576 28.7112 42.4935 28.8429C42.3294 28.9746 42.1069 29.0485 41.8748 29.0485ZM35.7499 24.8359C35.2858 24.8359 34.8407 24.9838 34.5125 25.2472C34.1843 25.5105 34 25.8677 34 26.2401C34 26.6125 34.1843 26.9697 34.5125 27.233C34.8407 27.4964 35.2858 27.6443 35.7499 27.6443H40.9998V24.8359H35.7499Z" fill="#03548E"/>
        </g>
    </g>
    <defs>
        <filter id="filter0_d_436_439" x="0" y="0" width="62" height="56" filterUnits="userSpaceOnUse" color-interpolation-filters="sRGB">
            <feFlood flood-opacity="0" result="BackgroundImageFix"/>
            <feColorMatrix in="SourceAlpha" type="matrix" values="0 0 0 0 0 0 0 0 0 0 0 0 0 0 0 0 0 0 127 0" result="hardAlpha"/>
            <feOffset dy="4"/>
            <feGaussianBlur stdDeviation="2"/>
            <feComposite in2="hardAlpha" operator="out"/>
            <feColorMatrix type="matrix" values="0 0 0 0 0.568627 0 0 0 0 0.843137 0 0 0 0 0.890196 0 0 0 0.25 0"/>
            <feBlend mode="normal" in2="BackgroundImageFix" result="effect1_dropShadow_436_439"/>
            <feBlend mode="normal" in="SourceGraphic" in2="effect1_dropShadow_436_439" result="shape"/>
        </filter>
        <linearGradient id="paint0_linear_436_439" x1="56.2581" y1="0.999998" x2="43.3548" y2="34.4922" gradientUnits="userSpaceOnUse">
            <stop stop-color="#91D7E3" stop-opacity="0.4"/>
            <stop offset="1" stop-color="white" stop-opacity="0"/>
        </linearGradient>
        <linearGradient id="paint1_linear_436_439" x1="51.2679" y1="17.3635" x2="16.4" y2="55.7121" gradientUnits="userSpaceOnUse">
            <stop stop-color="#91D7E3" stop-opacity="0.25"/>
            <stop offset="1" stop-color="white" stop-opacity="0.54"/>
        </linearGradient>
        <clipPath id="clip0_436_439">
            <rect x="4" width="54" height="48" rx="8" fill="white"/>
        </clipPath>
    </defs>
</svg>
