<svg width="28" height="25" viewBox="0 0 28 25" fill="none" xmlns="http://www.w3.org/2000/svg">
    <path d="M26.6 5.55559C26.6 3.29477 24.845 1.46204 22.68 1.46204C20.5151 1.46204 18.76 3.29477 18.76 5.55559C18.76 7.81642 20.5151 9.64915 22.68 9.64915C24.8311 9.64915 26.6 7.83085 26.6 5.55559ZM21.9802 3.65491C21.9802 2.69348 23.3799 2.69348 23.3799 3.65491V4.82475H24.5001C25.4207 4.82475 25.4207 6.28644 24.5001 6.28644H23.3799V7.45628C23.3799 8.41771 21.9802 8.41771 21.9802 7.45628V6.28644H20.8599C19.9393 6.28644 19.9393 4.82475 20.8599 4.82475H21.9802V3.65491ZM26.04 9.86284V21.4912C26.04 23.4225 24.5294 25 22.68 25H3.36001C1.51061 25 0 23.4225 0 21.4912V8.33357C0 6.40191 1.51061 4.82475 3.36001 4.82475H17.4059C17.7528 2.06755 20.0124 0 22.68 0C25.618 0 28 2.48754 28 5.55559C28 7.23238 27.2816 8.80566 26.04 9.86284ZM17.4059 6.28644H3.36001C2.28361 6.28644 1.40003 7.20914 1.40003 8.33357V21.4912C1.40003 22.6156 2.28361 23.538 3.36001 23.538H22.68C23.7564 23.538 24.64 22.6156 24.64 21.4912V10.7218C24.0335 10.9732 23.3721 11.1112 22.68 11.1112C20.0124 11.1112 17.7528 9.04364 17.4059 6.28644ZM12.425 14.4373C11.5043 14.4373 11.5043 12.9753 12.425 12.9753H21.3852C22.3058 12.9753 22.3058 14.4373 21.3852 14.4373H12.425ZM12.425 16.8495C11.5043 16.8495 11.5043 15.3875 12.425 15.3875H21.3852C22.3058 15.3875 22.3058 16.8495 21.3852 16.8495H12.425ZM4.65521 11.5498H9.69506C10.0817 11.5498 10.3949 11.8769 10.3949 12.2807V17.5437C10.3949 17.9475 10.0817 18.2749 9.69506 18.2749H4.65521C4.26854 18.2749 3.95502 17.9475 3.95502 17.5437V12.2807C3.95502 11.8769 4.26854 11.5498 4.65521 11.5498ZM8.99521 13.0115H5.35505V16.8129H8.99521V13.0115Z" fill="#939393"/>
</svg>
