<svg width="62" height="56" viewBox="0 0 62 56" fill="none" xmlns="http://www.w3.org/2000/svg">
    <g filter="url(#filter0_d_436_421)">
        <g clip-path="url(#clip0_436_421)">
            <rect x="4" width="54" height="48" rx="8" fill="white"/>
            <ellipse cx="46.5" cy="24" rx="25.5" ry="23" fill="url(#paint0_linear_436_421)" fill-opacity="0.2"/>
            <line x1="61.5078" y1="4.55192" x2="9.50777" y2="52.3967" stroke="#91D7E3" stroke-opacity="0.17" stroke-width="1.5"/>
            <path d="M62 5.39833L64.4275 7.60552L12.7625 54.5812L10.335 52.374L62 5.39833Z" fill="url(#paint1_linear_436_421)" fill-opacity="0.4"/>
            <path d="M43.6 14.5556C43.6 12.2948 41.845 10.462 39.68 10.462C37.5151 10.462 35.76 12.2948 35.76 14.5556C35.76 16.8164 37.5151 18.6492 39.68 18.6492C41.8311 18.6492 43.6 16.8308 43.6 14.5556ZM38.9802 12.6549C38.9802 11.6935 40.3799 11.6935 40.3799 12.6549V13.8248H41.5001C42.4207 13.8248 42.4207 15.2864 41.5001 15.2864H40.3799V16.4563C40.3799 17.4177 38.9802 17.4177 38.9802 16.4563V15.2864H37.8599C36.9393 15.2864 36.9393 13.8248 37.8599 13.8248H38.9802V12.6549ZM43.04 18.8628V30.4912C43.04 32.4225 41.5294 34 39.68 34H20.36C18.5106 34 17 32.4225 17 30.4912V17.3336C17 15.4019 18.5106 13.8248 20.36 13.8248H34.4059C34.7528 11.0675 37.0124 9 39.68 9C42.618 9 45 11.4875 45 14.5556C45 16.2324 44.2816 17.8057 43.04 18.8628ZM34.4059 15.2864H20.36C19.2836 15.2864 18.4 16.2091 18.4 17.3336V30.4912C18.4 31.6156 19.2836 32.538 20.36 32.538H39.68C40.7564 32.538 41.64 31.6156 41.64 30.4912V19.7218C41.0335 19.9732 40.3721 20.1112 39.68 20.1112C37.0124 20.1112 34.7528 18.0436 34.4059 15.2864ZM29.425 23.4373C28.5043 23.4373 28.5043 21.9753 29.425 21.9753H38.3852C39.3058 21.9753 39.3058 23.4373 38.3852 23.4373H29.425ZM29.425 25.8495C28.5043 25.8495 28.5043 24.3875 29.425 24.3875H38.3852C39.3058 24.3875 39.3058 25.8495 38.3852 25.8495H29.425ZM21.6552 20.5498H26.6951C27.0817 20.5498 27.3949 20.8769 27.3949 21.2807V26.5437C27.3949 26.9475 27.0817 27.2749 26.6951 27.2749H21.6552C21.2685 27.2749 20.955 26.9475 20.955 26.5437V21.2807C20.955 20.8769 21.2685 20.5498 21.6552 20.5498ZM25.9952 22.0115H22.3551V25.8129H25.9952V22.0115Z" fill="#03548E"/>
        </g>
    </g>
    <defs>
        <filter id="filter0_d_436_421" x="0" y="0" width="62" height="56" filterUnits="userSpaceOnUse" color-interpolation-filters="sRGB">
            <feFlood flood-opacity="0" result="BackgroundImageFix"/>
            <feColorMatrix in="SourceAlpha" type="matrix" values="0 0 0 0 0 0 0 0 0 0 0 0 0 0 0 0 0 0 127 0" result="hardAlpha"/>
            <feOffset dy="4"/>
            <feGaussianBlur stdDeviation="2"/>
            <feComposite in2="hardAlpha" operator="out"/>
            <feColorMatrix type="matrix" values="0 0 0 0 0.568627 0 0 0 0 0.843137 0 0 0 0 0.890196 0 0 0 0.25 0"/>
            <feBlend mode="normal" in2="BackgroundImageFix" result="effect1_dropShadow_436_421"/>
            <feBlend mode="normal" in="SourceGraphic" in2="effect1_dropShadow_436_421" result="shape"/>
        </filter>
        <linearGradient id="paint0_linear_436_421" x1="56.2581" y1="0.999998" x2="43.3548" y2="34.4922" gradientUnits="userSpaceOnUse">
            <stop stop-color="#91D7E3" stop-opacity="0.4"/>
            <stop offset="1" stop-color="white" stop-opacity="0"/>
        </linearGradient>
        <linearGradient id="paint1_linear_436_421" x1="51.2679" y1="17.3635" x2="16.4" y2="55.7121" gradientUnits="userSpaceOnUse">
            <stop stop-color="#91D7E3" stop-opacity="0.25"/>
            <stop offset="1" stop-color="white" stop-opacity="0.54"/>
        </linearGradient>
        <clipPath id="clip0_436_421">
            <rect x="4" width="54" height="48" rx="8" fill="white"/>
        </clipPath>
    </defs>
</svg>
