<svg width="81" height="80" viewBox="0 0 81 80" fill="none" xmlns="http://www.w3.org/2000/svg">
    <path fill-rule="evenodd" clip-rule="evenodd" d="M41 75C45.5963 75 50.1475 74.0947 54.3939 72.3358C58.6403 70.5769 62.4987 67.9988 65.7487 64.7487C68.9988 61.4987 71.5769 57.6403 73.3358 53.3939C75.0947 49.1475 76 44.5963 76 40C76 35.4037 75.0947 30.8525 73.3358 26.6061C71.5769 22.3597 68.9988 18.5013 65.7487 15.2513C62.4987 12.0012 58.6403 9.42313 54.3939 7.66422C50.1475 5.9053 45.5963 5 41 5C31.7174 5 22.815 8.68749 16.2513 15.2513C9.68749 21.815 6 30.7174 6 40C6 49.2826 9.68749 58.185 16.2513 64.7487C22.815 71.3125 31.7174 75 41 75ZM40.0978 54.1556L59.5422 30.8222L53.5689 25.8444L36.8467 45.9072L28.1939 37.2506L22.695 42.7494L34.3617 54.4161L37.3717 57.4261L40.0978 54.1556Z" fill="#379100"/>
</svg>
