<svg width="24" height="24" viewBox="0 0 24 24" fill="none" xmlns="http://www.w3.org/2000/svg">
    <path fill-rule="evenodd" clip-rule="evenodd" d="M0 5.6C0 4.96348 0.252856 4.35303 0.702944 3.90294C1.15303 3.45285 1.76348 3.2 2.4 3.2H21.6C22.2365 3.2 22.847 3.45285 23.2971 3.90294C23.7471 4.35303 24 4.96348 24 5.6V18.4C24 19.0365 23.7471 19.647 23.2971 20.0971C22.847 20.5471 22.2365 20.8 21.6 20.8H2.4C1.76348 20.8 1.15303 20.5471 0.702944 20.0971C0.252856 19.647 0 19.0365 0 18.4L0 5.6ZM4.8 9.6C4.8 8.7513 5.13714 7.93737 5.73726 7.33726C6.33737 6.73714 7.15131 6.4 8 6.4C8.84869 6.4 9.66263 6.73714 10.2627 7.33726C10.8629 7.93737 11.2 8.7513 11.2 9.6C11.2 10.4487 10.8629 11.2626 10.2627 11.8627C9.66263 12.4629 8.84869 12.8 8 12.8C7.15131 12.8 6.33737 12.4629 5.73726 11.8627C5.13714 11.2626 4.8 10.4487 4.8 9.6ZM19.2 9.6H14.4V8H19.2V9.6ZM19.2 14.4H14.4V12.8H19.2V14.4ZM8 14.4C7.13027 14.4 6.27772 14.6422 5.53789 15.0994C4.79805 15.5567 4.20016 16.2109 3.8112 16.9888L3.2832 18.0416C3.22202 18.1637 3.19311 18.2994 3.19923 18.4358C3.20534 18.5722 3.24628 18.7048 3.31813 18.821C3.38999 18.9371 3.49038 19.0329 3.60973 19.0992C3.72909 19.1656 3.86344 19.2003 4 19.2H12C12.1364 19.2 12.2706 19.1651 12.3897 19.0986C12.5089 19.0322 12.609 18.9364 12.6807 18.8203C12.7524 18.7042 12.7931 18.5717 12.7992 18.4354C12.8052 18.2991 12.7763 18.1636 12.7152 18.0416L12.1888 16.9888C11.7998 16.2109 11.202 15.5567 10.4621 15.0994C9.72228 14.6422 8.86973 14.4 8 14.4Z" fill="#FD5C00"/>
</svg>
