<svg width="48" height="48" viewBox="0 0 48 48" fill="none" xmlns="http://www.w3.org/2000/svg">
    <rect width="48" height="48" rx="4" fill="#FFF3EC"/>
    <path d="M12.7998 13.6C12.7998 12.9635 13.0527 12.353 13.5027 11.9029C13.9528 11.4529 14.5633 11.2 15.1998 11.2H26.3998C27.0363 11.2 27.6468 11.4529 28.0969 11.9029C28.5469 12.353 28.7998 12.9635 28.7998 13.6V16.4688L34.0286 21.6976C34.7783 22.4475 35.1996 23.4644 35.1998 24.5248V36C35.1998 36.2122 35.1155 36.4157 34.9655 36.5657C34.8155 36.7157 34.612 36.8 34.3998 36.8C34.1876 36.8 33.9841 36.7157 33.8341 36.5657C33.6841 36.4157 33.5998 36.2122 33.5998 36V24.5248C33.5992 23.8885 33.346 23.2785 32.8958 22.8288L28.7998 18.7328V23.6688L30.1662 25.0336C30.3162 25.1838 30.4004 25.3875 30.4003 25.5998C30.4001 25.8121 30.3156 26.0156 30.1654 26.1656C30.091 26.2399 30.0027 26.2988 29.9056 26.3389C29.8085 26.3791 29.7044 26.3997 29.5992 26.3996C29.3869 26.3995 29.1834 26.315 29.0334 26.1648L24.2334 21.3648C23.5582 20.6896 23.1822 20.7184 23.0174 20.76C22.7406 20.8272 22.4958 21.048 22.1534 21.3776C21.9934 21.5312 21.9262 21.6816 21.9582 21.9056C21.9998 22.1856 22.219 22.6864 22.9662 23.4336L24.907 25.3744L25.3646 25.8336C25.4391 25.9079 25.4983 25.9962 25.5386 26.0934C25.579 26.1906 25.5998 26.2948 25.5998 26.4C25.5998 27.6384 25.6094 28.8848 25.9518 29.8256C26.115 30.2752 26.3374 30.6032 26.6302 30.8224C26.9166 31.0368 27.339 31.2 27.9998 31.2C28.212 31.2 28.4155 31.2843 28.5655 31.4343C28.7155 31.5843 28.7998 31.7878 28.7998 32V34.4C28.7998 35.0365 28.5469 35.647 28.0969 36.0971C27.6468 36.5471 27.0363 36.8 26.3998 36.8H15.1998C14.5633 36.8 13.9528 36.5471 13.5027 36.0971C13.0527 35.647 12.7998 35.0365 12.7998 34.4V13.6ZM20.7998 20C20.1279 19.9999 19.4668 20.1691 18.8776 20.4919C18.2883 20.8146 17.7898 21.2807 17.4282 21.8469C17.0665 22.4132 16.8533 23.0614 16.8083 23.7318C16.7632 24.4021 16.8877 25.0731 17.1704 25.6826C17.453 26.2922 17.8846 26.8207 18.4254 27.2194C18.9662 27.6182 19.5987 27.8743 20.2645 27.9641C20.9304 28.0539 21.6081 27.9746 22.2352 27.7334C22.8623 27.4922 23.4186 27.0969 23.8526 26.584L23.7726 26.504L21.8334 24.5648C20.9806 23.712 20.4894 22.9104 20.3758 22.1392C20.3206 21.7888 20.3532 21.4302 20.4704 21.0954C20.5877 20.7607 20.7861 20.4602 21.0478 20.2208L21.1022 20.168L21.2526 20.024C21.1022 20.0075 20.9511 19.9995 20.7998 20ZM23.9998 34.4V35.2H25.5998V34.4C25.5998 34.1878 25.6841 33.9843 25.8341 33.8343C25.9841 33.6843 26.1876 33.6 26.3998 33.6H27.1998V32.736C26.6503 32.6525 26.1289 32.4379 25.6798 32.1104C25.1926 32.2636 24.767 32.5683 24.4648 32.9801C24.1627 33.3918 23.9998 33.8893 23.9998 34.4ZM14.3998 16H15.1998C15.8363 16 16.4468 15.7471 16.8969 15.2971C17.3469 14.847 17.5998 14.2365 17.5998 13.6V12.8H15.9998V13.6C15.9998 13.8122 15.9155 14.0157 15.7655 14.1657C15.6155 14.3157 15.412 14.4 15.1998 14.4H14.3998V16ZM23.9998 13.6C23.9998 14.2365 24.2527 14.847 24.7027 15.2971C25.1528 15.7471 25.7633 16 26.3998 16H27.1998V14.4H26.3998C26.1876 14.4 25.9841 14.3157 25.8341 14.1657C25.6841 14.0157 25.5998 13.8122 25.5998 13.6V12.8H23.9998V13.6ZM17.5998 34.4C17.5998 33.7635 17.3469 33.153 16.8969 32.7029C16.4468 32.2529 15.8363 32 15.1998 32H14.3998V33.6H15.1998C15.412 33.6 15.6155 33.6843 15.7655 33.8343C15.9155 33.9843 15.9998 34.1878 15.9998 34.4V35.2H17.5998V34.4Z" fill="url(#paint0_linear_224_1713)"/>
    <defs>
        <linearGradient id="paint0_linear_224_1713" x1="12.8198" y1="24.0102" x2="35.2738" y2="24.0102" gradientUnits="userSpaceOnUse">
            <stop stop-color="#FD5C00"/>
            <stop offset="1" stop-color="#D40E19"/>
        </linearGradient>
    </defs>
</svg>
