<svg width="163" height="163" viewBox="0 0 163 163" fill="none" xmlns="http://www.w3.org/2000/svg">
    <g clip-path="url(#clip0_5_861)">
        <path d="M144.106 139.33C140.759 142.808 137.593 145.051 135.09 146.823C105.678 167.655 70.8751 161.583 63.4786 160.1C52.5562 157.91 31.4434 153.677 16.1795 135.958C-6.91401 109.151 -3.31771 66.9168 14.595 39.0379C17.8716 33.9382 35.1789 5.63422 70.3567 1.09534C91.6459 -1.65151 116.462 3.88863 134.434 18.7511C172.156 49.9483 169.47 112.972 144.106 139.33Z" fill="url(#paint0_linear_5_861)"/>
        <path d="M155.345 58.0001C155.345 58.3358 155.331 58.6698 155.301 58.9996C155.001 62.6207 153.072 65.8744 150.205 68.0092C148.203 69.5037 145.74 70.448 143.058 70.5896C135.981 70.963 130.084 65.6274 130.084 58.6639C130.084 55.0663 131.659 51.8203 134.157 49.5226C134.536 49.1728 134.938 48.8453 135.359 48.5426C137.524 46.9792 140.193 46.0567 143.057 46.0567C149.925 46.0567 155.345 51.404 155.345 58.0001Z" fill="url(#paint1_linear_5_861)"/>
        <path d="M142.456 67.0038C137.752 67.0038 133.926 63.1757 133.926 58.4705C133.926 53.7652 137.752 49.9371 142.456 49.9371C147.16 49.9371 150.986 53.7652 150.986 58.4705C150.986 63.1757 147.16 67.0038 142.456 67.0038ZM142.456 50.511C138.069 50.511 134.499 54.0815 134.499 58.4705C134.499 62.8594 138.069 66.43 142.456 66.43C146.843 66.43 150.413 62.8594 150.413 58.4705C150.413 54.0815 146.843 50.511 142.456 50.511Z" fill="white"/>
        <path d="M139.4 56.9446C139.54 56.353 139.173 55.7602 138.582 55.6205C137.991 55.4809 137.398 55.8472 137.259 56.4387C137.119 57.0303 137.485 57.6231 138.076 57.7628C138.668 57.9025 139.26 57.5361 139.4 56.9446Z" fill="white"/>
        <path d="M147.28 57.4615C147.71 57.0317 147.71 56.3348 147.28 55.905C146.85 55.4752 146.154 55.4752 145.724 55.905C145.294 56.3348 145.294 57.0317 145.724 57.4615C146.154 57.8913 146.85 57.8913 147.28 57.4615Z" fill="white"/>
        <path d="M138.52 61.108C138.629 61.108 138.733 61.1703 138.781 61.2761C139.323 62.4632 140.822 63.261 142.511 63.261C144.213 63.261 145.67 62.482 146.222 61.2755C146.287 61.1315 146.458 61.068 146.602 61.1338C146.746 61.1997 146.809 61.3702 146.744 61.5142C146.098 62.9241 144.437 63.8348 142.511 63.8348C140.572 63.8348 138.903 62.9241 138.259 61.5142C138.193 61.3702 138.257 61.1997 138.401 61.1338C138.44 61.1162 138.48 61.108 138.52 61.108Z" fill="white"/>
        <path d="M155.206 27.7472C155.206 28.0829 155.193 28.4168 155.163 28.7467C154.862 32.3678 152.933 35.6214 150.067 37.7562C148.064 39.2508 145.601 40.195 142.919 40.3367C135.842 40.71 129.946 35.3745 129.946 28.411C129.946 24.8134 131.52 21.5674 134.019 19.2697C134.398 18.9199 134.8 18.5924 135.22 18.2896C137.385 16.7263 140.055 15.8038 142.919 15.8038C149.786 15.8044 155.206 21.1511 155.206 27.7472Z" fill="url(#paint2_linear_5_861)"/>
        <path d="M142.112 36.7509C137.408 36.7509 133.581 32.9228 133.581 28.2175C133.581 23.5123 137.408 19.6842 142.112 19.6842C146.815 19.6842 150.642 23.5123 150.642 28.2175C150.642 32.9228 146.816 36.7509 142.112 36.7509ZM142.112 20.258C137.724 20.258 134.155 23.8286 134.155 28.2175C134.155 32.6065 137.724 36.177 142.112 36.177C146.499 36.177 150.068 32.6065 150.068 28.2175C150.068 23.8286 146.499 20.258 142.112 20.258Z" fill="white"/>
        <path d="M138.023 28.9654C138.63 28.9654 139.123 28.4726 139.123 27.8648C139.123 27.2569 138.63 26.7642 138.023 26.7642C137.415 26.7642 136.923 27.2569 136.923 27.8648C136.923 28.4726 137.415 28.9654 138.023 28.9654Z" fill="white"/>
        <path d="M146.2 28.9654C146.808 28.9654 147.301 28.4726 147.301 27.8648C147.301 27.2569 146.808 26.7642 146.2 26.7642C145.593 26.7642 145.1 27.2569 145.1 27.8648C145.1 28.4726 145.593 28.9654 146.2 28.9654Z" fill="white"/>
        <path d="M143.617 31.7099C143.479 31.7099 143.358 31.6105 143.334 31.4706C143.184 30.5834 142.67 29.9396 142.112 29.9396C141.555 29.9396 141.041 30.5816 140.89 31.4665C140.863 31.6229 140.715 31.7281 140.558 31.7011C140.402 31.6746 140.297 31.5259 140.324 31.3695C140.525 30.1895 141.261 29.3658 142.111 29.3658C142.964 29.3658 143.699 30.1918 143.899 31.3748C143.926 31.5312 143.821 31.6793 143.664 31.7058C143.649 31.7081 143.633 31.7099 143.617 31.7099Z" fill="white"/>
        <path d="M139.484 26.8453C139.411 26.8453 139.338 26.8171 139.282 26.7612L137.73 25.209C137.618 25.0967 137.618 24.9151 137.73 24.8034C137.842 24.6911 138.024 24.6911 138.136 24.8034L139.687 26.3555C139.8 26.4678 139.8 26.6495 139.687 26.7612C139.631 26.8171 139.558 26.8453 139.484 26.8453Z" fill="white"/>
        <path d="M144.389 26.8453C144.316 26.8453 144.242 26.8171 144.186 26.7612C144.074 26.6489 144.074 26.4672 144.186 26.3555L145.738 24.8034C145.85 24.6911 146.032 24.6911 146.143 24.8034C146.256 24.9157 146.256 25.0973 146.143 25.209L144.592 26.7612C144.536 26.8171 144.463 26.8453 144.389 26.8453Z" fill="white"/>
        <path d="M126.752 59.0902C126.75 59.0902 126.748 59.0902 126.746 59.0902L125.568 59.0737C125.351 59.0708 125.178 58.8926 125.181 58.6757C125.184 58.4587 125.355 58.2912 125.579 58.2882L126.757 58.3047C126.974 58.3076 127.147 58.4858 127.144 58.7027C127.141 58.9179 126.966 59.0902 126.752 59.0902Z" fill="white"/>
        <path d="M123.275 59.0414C123.273 59.0414 123.271 59.0414 123.269 59.0414L120.97 59.009C120.753 59.0061 120.58 58.8279 120.583 58.611C120.586 58.3958 120.761 58.2235 120.975 58.2235C120.977 58.2235 120.979 58.2235 120.981 58.2235L123.28 58.2559C123.497 58.2588 123.671 58.437 123.668 58.6539C123.664 58.8691 123.489 59.0414 123.275 59.0414ZM118.676 58.9773C118.674 58.9773 118.672 58.9773 118.67 58.9773L116.371 58.9449C116.154 58.942 115.981 58.7633 115.984 58.5469C115.987 58.33 116.173 58.1612 116.382 58.1595L118.681 58.1918C118.898 58.1947 119.071 58.3735 119.068 58.5898C119.066 58.805 118.891 58.9773 118.676 58.9773ZM114.078 58.9126C114.076 58.9126 114.074 58.9126 114.072 58.9126L111.773 58.8803C111.556 58.8773 111.382 58.6992 111.385 58.4822C111.389 58.2653 111.571 58.0966 111.783 58.0948L114.082 58.1271C114.299 58.1301 114.473 58.3082 114.47 58.5252C114.467 58.7403 114.292 58.9126 114.078 58.9126Z" fill="white"/>
        <path d="M109.479 58.8479C109.478 58.8479 109.475 58.8479 109.473 58.8479L108.296 58.8315C108.079 58.8285 107.905 58.6504 107.908 58.4334C107.912 58.2165 108.093 58.0425 108.306 58.046L109.484 58.0625C109.701 58.0654 109.874 58.2435 109.871 58.4605C109.868 58.6757 109.693 58.8479 109.479 58.8479Z" fill="white"/>
        <path d="M18.6045 50.6456C18.6009 51.1959 18.1519 51.6398 17.6012 51.6357C17.0511 51.6322 16.608 51.183 16.6115 50.6321C16.615 50.0818 17.064 49.6385 17.6147 49.642C18.1649 49.6461 18.608 50.0953 18.6045 50.6456Z" fill="#91B3FA"/>
        <path d="M18.5716 50.6456C18.568 51.1777 18.1337 51.6063 17.6018 51.6028C17.0699 51.5992 16.6415 51.1647 16.645 50.6327C16.6485 50.1006 17.0828 49.672 17.6147 49.6755C18.1466 49.679 18.5751 50.1135 18.5716 50.6456Z" fill="#91B3FA"/>
        <path d="M18.6045 56.689C18.6009 57.2393 18.1519 57.6832 17.6012 57.6791C17.0511 57.6756 16.608 57.2264 16.6115 56.6755C16.615 56.1252 17.064 55.6819 17.6147 55.6854C18.1649 55.6889 18.608 56.1381 18.6045 56.689Z" fill="#91B3FA"/>
        <path d="M18.5716 56.6884C18.568 57.2205 18.1337 57.6491 17.6018 57.6456C17.0699 57.6421 16.6415 57.2076 16.645 56.6755C16.6485 56.1434 17.0829 55.7148 17.6147 55.7183C18.1466 55.7219 18.5751 56.1563 18.5716 56.6884Z" fill="#91B3FA"/>
        <path d="M18.6045 62.7318C18.6009 63.2821 18.1519 63.726 17.6012 63.7219C17.0511 63.7184 16.608 63.2692 16.6115 62.7183C16.615 62.168 17.064 61.7247 17.6147 61.7282C18.1649 61.7323 18.608 62.1815 18.6045 62.7318Z" fill="#91B3FA"/>
        <path d="M18.5716 62.7318C18.568 63.2639 18.1337 63.6925 17.6018 63.689C17.0699 63.6855 16.6415 63.251 16.645 62.7189C16.6485 62.1868 17.0829 61.7582 17.6147 61.7617C18.1466 61.7653 18.5751 62.1998 18.5716 62.7318Z" fill="#91B3FA"/>
        <path d="M20.1373 50.5939L20.142 50.7638C20.1543 51.2235 20.4411 51.5881 20.792 51.5898L47.4818 51.6304C47.8439 51.6322 48.1383 51.2477 48.1377 50.7726C48.1371 50.307 47.8527 49.9271 47.4977 49.9177L20.8032 49.7073C20.4282 49.6973 20.1243 50.1024 20.1373 50.5939Z" fill="white"/>
        <path d="M20.1373 56.6073L20.142 56.7772C20.1543 57.237 20.4411 57.6015 20.792 57.6033L47.4818 57.6438C47.8439 57.6456 48.1383 57.2611 48.1377 56.786C48.1371 56.3204 47.8527 55.9406 47.4977 55.9312L20.8032 55.7207C20.4282 55.7113 20.1243 56.1164 20.1373 56.6073Z" fill="white"/>
        <path d="M20.1373 62.6213L20.142 62.7912C20.1543 63.251 20.4411 63.6155 20.792 63.6173L47.4818 63.6579C47.8439 63.6596 48.1383 63.2751 48.1377 62.8001C48.1371 62.3344 47.8527 61.9546 47.4977 61.9452L20.8032 61.7347C20.4282 61.7247 20.1243 62.1298 20.1373 62.6213Z" fill="white"/>
        <path d="M155.579 89.6277C155.579 89.9634 155.566 90.2973 155.536 90.6272C155.236 94.2483 153.306 97.5019 150.44 99.6367C148.437 101.131 145.974 102.075 143.292 102.217C136.216 102.591 130.319 97.255 130.319 90.2915C130.319 86.6939 131.893 83.4479 134.392 81.1502C134.771 80.8004 135.173 80.4729 135.593 80.1701C137.758 78.6068 140.428 77.6843 143.292 77.6843C150.159 77.6843 155.579 83.0316 155.579 89.6277Z" fill="url(#paint3_linear_5_861)"/>
        <path d="M142.949 98.9912C137.971 98.9912 133.921 94.9397 133.921 89.9598C133.921 84.98 137.971 80.9285 142.949 80.9285C147.927 80.9285 151.977 84.98 151.977 89.9598C151.977 94.9397 147.927 98.9912 142.949 98.9912ZM142.949 81.714C138.404 81.714 134.706 85.4133 134.706 89.9598C134.706 94.5064 138.404 98.2057 142.949 98.2057C147.494 98.2057 151.192 94.507 151.192 89.9598C151.192 85.4133 147.495 81.714 142.949 81.714Z" fill="white"/>
        <path d="M139.436 88.9028C139.886 88.4526 139.886 87.7226 139.436 87.2723C138.986 86.8221 138.256 86.8221 137.806 87.2723C137.356 87.7226 137.356 88.4526 137.806 88.9028C138.256 89.3531 138.986 89.3531 139.436 88.9028Z" fill="white"/>
        <path d="M148.002 88.9029C148.453 88.4527 148.453 87.7227 148.002 87.2724C147.552 86.8222 146.823 86.8222 146.373 87.2724C145.922 87.7227 145.922 88.4527 146.373 88.9029C146.823 89.3532 147.552 89.3532 148.002 88.9029Z" fill="white"/>
        <path d="M147.415 91.4268C147.415 93.3905 145.432 94.885 142.987 94.885C140.542 94.885 138.56 93.3905 138.56 91.4268H147.415Z" fill="white"/>
        <path d="M150.017 119.715C148.816 116.041 146.702 112.774 143.932 110.127C140.428 106.779 135.875 104.421 130.79 103.482C130.79 103.482 124.191 102.341 116.951 100.476C114.585 99.866 112.054 100.377 110.157 101.835C105.098 105.723 95.6001 110.785 80.6795 110.444C67.1636 110.134 59.3956 106.088 55.1846 102.604C53.2251 100.983 50.5257 100.406 48.0178 101.095C42.5667 102.591 38.0324 103.482 38.0324 103.482C28.9279 105.164 17.352 111.393 14.6326 119.715C12.0272 127.688 9.36836 140.817 9.08449 151.805C8.98163 155.8 12.3857 159.097 16.6462 159.097H148.004C152.264 159.097 155.668 155.8 155.565 151.805C155.281 140.817 152.623 127.688 150.017 119.715Z" fill="#FD5C00"/>
        <path d="M80.6795 111.124C99.0771 111.573 111.976 104.188 115.727 100.263C108.268 97.9517 98.5264 93.9843 98.4101 90.6948L97.2869 59.0073H67.6561L66.533 90.6948C66.4084 94.206 55.0529 98.7919 48.0178 101.153C51.0258 104.998 63.2429 110.698 80.6795 111.124Z" fill="url(#paint4_linear_5_861)"/>
        <path d="M56.484 30.9062C56.484 30.9062 60.748 77.1128 73.2007 82.0791C73.2007 82.0791 83.3055 86.4328 91.7464 81.5071C91.7464 81.5071 105.669 68.8317 104.668 31.2583C104.668 31.2583 105.821 9.48758 81.8074 7.68555C53.6706 5.57427 56.484 30.9062 56.484 30.9062Z" fill="#FEBBBA"/>
        <path d="M102.206 47.1521C102.206 47.1521 104.317 40.8188 107.833 40.8188C111.35 40.8188 107.13 57.7068 102.206 57.7068V47.1521Z" fill="url(#paint5_linear_5_861)"/>
        <path d="M61.1077 45.7075C61.1077 45.7075 58.2061 40.3443 54.7208 40.8188C51.2362 41.2933 56.2284 58.3417 61.1077 57.6779V45.7075Z" fill="url(#paint6_linear_5_861)"/>
        <path d="M60.3219 42.6044C58.9707 43.2041 57.395 42.535 56.8907 41.1451C56.0033 38.7005 54.6403 34.9847 53.536 32.145C51.7387 27.5214 42.2375 21.6132 52.2518 10.0538C62.2661 -1.50569 67.9376 11.0403 74.603 7.72142C81.2684 4.4025 89.2286 -3.3036 96.1614 1.57687C103.094 6.45735 98.4724 11.0809 100.783 12.3655C103.094 13.6502 106.689 6.97121 109.257 15.962C111.244 22.9179 108.008 35.7243 106.441 41.1639C106.061 42.485 104.558 43.1153 103.349 42.4609C102.712 42.1158 102.291 41.4744 102.229 40.7512C102.056 38.7016 101.648 34.1604 101.04 29.0624C100.213 22.1253 93.884 31.7363 81.5417 33.0968C69.1995 34.4567 70.2268 27.7783 64.3208 27.7783C61.8294 27.7783 61.7536 36.4728 61.837 40.2203C61.86 41.2474 61.2611 42.1869 60.3219 42.6044Z" fill="black"/>
        <path d="M56.6791 36.1488C56.6768 36.1494 56.7109 36.1283 56.7514 36.0918C56.7826 36.0636 56.8361 35.9983 56.8719 35.9019C56.9454 35.7043 56.9336 35.3522 56.7832 34.9318C56.6451 34.4856 56.4676 33.9693 56.2013 33.392C55.9457 32.8105 55.6077 32.1755 55.211 31.4977C54.8196 30.8168 54.3688 30.0913 53.8898 29.3199C53.4126 28.5474 52.9106 27.7249 52.4499 26.8324C51.9903 25.9452 51.5718 24.9651 51.3173 23.9403C51.054 22.8873 50.9282 21.8114 50.9471 20.7219C50.9758 19.636 51.1428 18.5554 51.436 17.5265C51.7252 16.4958 52.1683 15.5287 52.6973 14.6573C53.2198 13.7913 53.8645 13.0182 54.5316 12.3732C55.1998 11.7223 55.9151 11.2008 56.6051 10.7787C57.298 10.3589 57.9745 10.0497 58.5857 9.81566C58.7403 9.76157 58.8902 9.70925 59.0342 9.65868C59.1793 9.61047 59.3222 9.57343 59.4573 9.53286C59.7271 9.4482 59.9828 9.39823 60.2102 9.34355C60.6686 9.24771 61.0318 9.19068 61.2816 9.17187C61.5302 9.14659 61.6625 9.13366 61.6625 9.13366C61.7165 9.12836 61.7647 9.16776 61.77 9.22126C61.7753 9.27182 61.7412 9.31709 61.6925 9.32709L61.6866 9.32826C61.6866 9.32826 61.5585 9.35472 61.3181 9.40411C61.1982 9.4288 61.0501 9.45585 60.879 9.50464C60.708 9.55168 60.5082 9.58931 60.2913 9.66104C60.0744 9.731 59.8317 9.79744 59.5772 9.89974C59.4491 9.94913 59.3145 9.99498 59.1787 10.052C59.0436 10.1114 58.9037 10.1725 58.7591 10.236C58.1849 10.4965 57.5554 10.8304 56.9131 11.2602C56.2677 11.6859 55.6183 12.2186 54.9977 12.8441C54.3758 13.4744 53.8087 14.1993 53.3091 15.0266C52.819 15.8491 52.4128 16.761 52.1319 17.7281C51.851 18.6959 51.6882 19.7148 51.6564 20.739C51.6335 21.759 51.7358 22.7979 51.9644 23.7633C52.0214 24.0038 52.1013 24.2713 52.1654 24.4977C52.2483 24.734 52.3241 24.9715 52.4117 25.2044C52.5069 25.4342 52.5903 25.6671 52.6902 25.8928C52.7931 26.1168 52.8877 26.3426 52.9959 26.5613C53.4184 27.4397 53.891 28.2646 54.3453 29.0477C54.8002 29.8303 55.238 30.5722 55.6112 31.2766C55.9821 31.9821 56.2983 32.6453 56.5334 33.2526C56.7791 33.8553 56.9419 34.4103 57.0565 34.8518C57.1905 35.3081 57.1922 35.7196 57.0776 35.9836C57.0188 36.1159 56.9448 36.1994 56.8778 36.2523C56.8196 36.297 56.7955 36.3082 56.7943 36.3105C56.7497 36.3417 56.6885 36.3311 56.6574 36.2864C56.6245 36.2411 56.6351 36.18 56.6791 36.1488Z" fill="#91B3FA"/>
        <path d="M57.9375 36.6415C57.9316 36.6415 57.9251 36.6409 57.9187 36.6397C57.8652 36.6297 57.8305 36.578 57.8405 36.5251C58.3736 33.7318 56.9889 31.052 55.65 28.4598C54.3523 25.9475 53.01 23.3494 53.3438 20.5931C53.8122 16.7251 57.4032 14.0723 60.0639 12.4137C60.1097 12.3855 60.1702 12.399 60.199 12.4449C60.2278 12.4908 60.2137 12.5513 60.1679 12.5801C57.5413 14.2175 53.9974 16.8315 53.5389 20.6161C53.2127 23.3129 54.5404 25.8834 55.8246 28.3692C57.1787 30.9908 58.5793 33.7012 58.0333 36.5615C58.0245 36.6086 57.9833 36.6415 57.9375 36.6415Z" fill="#91B3FA"/>
        <path d="M75.9572 26.6754C75.9572 26.6754 75.9695 26.7101 75.9936 26.7777C76.02 26.8429 76.0488 26.9505 76.1058 27.0705C76.211 27.3098 76.4062 27.6608 76.7412 28.0323C76.9046 28.2222 77.1161 28.4045 77.3542 28.5891C77.6016 28.762 77.8755 28.9431 78.1964 29.0836C78.827 29.3793 79.6134 29.5757 80.4621 29.5704C81.3284 29.5704 82.2529 29.3775 83.1844 29.0242C84.116 28.672 85.0534 28.1717 85.9885 27.5961C86.4645 27.3068 86.9347 27.0082 87.4108 26.7013C87.8862 26.3891 88.3652 26.0698 88.8454 25.7417C89.8069 25.0874 90.7802 24.4112 91.7758 23.7604C92.772 23.1113 93.7894 22.4846 94.8384 21.9442C95.8875 21.4069 96.9637 20.9465 98.0498 20.629C98.3184 20.542 98.5946 20.4867 98.8626 20.415C99.133 20.3427 99.3974 20.2898 99.6731 20.2433C100.215 20.1557 100.759 20.1069 101.292 20.141C101.824 20.1716 102.346 20.2816 102.816 20.4838C102.874 20.5079 102.933 20.5332 102.99 20.5632L103.074 20.6061L103.117 20.6273L103.138 20.6378L103.148 20.6431L103.17 20.6561C103.27 20.7184 103.369 20.7807 103.466 20.8419C103.564 20.9001 103.664 20.9924 103.761 21.0659C103.862 21.1411 103.946 21.2252 104.028 21.3099C104.201 21.471 104.336 21.6567 104.475 21.8314C104.597 22.0177 104.722 22.1965 104.815 22.3858C104.92 22.5686 104.995 22.7585 105.077 22.939C105.145 23.1242 105.213 23.3036 105.265 23.4805C105.479 24.1884 105.577 24.8198 105.643 25.3384C105.71 25.857 105.731 26.2662 105.748 26.5443C105.762 26.8224 105.769 26.9711 105.769 26.9711C105.772 27.0252 105.73 27.0711 105.676 27.074C105.624 27.0764 105.579 27.0381 105.573 26.987V26.9852C105.573 26.9852 105.557 26.8388 105.526 26.5637C105.491 26.2897 105.444 25.887 105.357 25.3813C105.269 24.8769 105.142 24.2648 104.907 23.6011C104.785 23.2718 104.642 22.9255 104.446 22.591C104.355 22.4181 104.237 22.26 104.122 22.0936C103.992 21.9407 103.867 21.7767 103.708 21.6397C103.634 21.5662 103.557 21.4939 103.474 21.4369C103.388 21.3769 103.321 21.3093 103.218 21.2517C103.119 21.1934 103.018 21.1341 102.917 21.0747L102.78 21.0112C102.73 20.9865 102.679 20.9665 102.626 20.9465C102.212 20.7825 101.748 20.6972 101.266 20.6831C100.783 20.6649 100.279 20.7125 99.7695 20.8042C99.5191 20.8501 99.2546 20.9065 98.9995 20.9794C98.7427 21.0523 98.4782 21.1088 98.2208 21.197C97.1782 21.5109 96.1379 21.9589 95.117 22.4893C94.0944 23.0166 93.0864 23.6199 92.0967 24.2584C91.1064 24.8957 90.1308 25.5636 89.1616 26.2133C88.6773 26.539 88.193 26.8571 87.7111 27.1687C87.225 27.4773 86.7425 27.7825 86.2629 28.0564C85.2979 28.6238 84.324 29.1189 83.3443 29.4663C82.3681 29.815 81.376 30.0008 80.465 29.9819C79.5364 29.9631 78.7142 29.7191 78.0518 29.3834C77.7162 29.2217 77.4294 29.0201 77.1732 28.8266C76.9251 28.6215 76.7071 28.4192 76.539 28.2105C76.1952 27.7983 76.0083 27.4179 75.9031 27.1457C75.8478 27.0123 75.8267 26.9111 75.8026 26.8424C75.7814 26.7736 75.7708 26.7383 75.7708 26.7383C75.755 26.6866 75.7838 26.6313 75.8355 26.6154C75.886 26.5989 75.9395 26.6266 75.9572 26.6754Z" fill="#91B3FA"/>
        <path d="M73.732 67.9675C78.9745 74.8516 84.1213 73.9521 90.7673 67.9675C85.4054 69.0828 79.0944 69.4379 73.732 67.9675Z" fill="white"/>
        <path d="M85.935 42.4515C85.935 43.0124 86.4828 43.4116 87.0147 43.2347C89.5936 42.3769 96.2713 40.6454 101.318 43.628C101.318 43.628 98.4971 37.1389 86.4628 41.6819C86.1442 41.8019 85.935 42.1105 85.935 42.4515Z" fill="black"/>
        <path d="M77.2748 42.4515C77.2748 43.0124 76.7271 43.4116 76.1952 43.2347C73.6162 42.3769 66.9385 40.6454 61.8923 43.628C61.8923 43.628 64.7128 37.1389 76.7471 41.6819C77.0656 41.8019 77.2748 42.1105 77.2748 42.4515Z" fill="black"/>
        <path d="M57.171 32.9498C56.6291 32.9498 56.1895 32.5101 56.1895 31.968V24.878C56.1895 22.9931 57.7223 21.4592 59.6071 21.4592H64.5123C65.0542 21.4592 65.4938 21.8989 65.4938 22.441C65.4938 22.9831 65.0542 23.4229 64.5123 23.4229H59.6071C58.8055 23.4229 58.1525 24.0755 58.1525 24.878V31.968C58.1525 32.5106 57.7129 32.9498 57.171 32.9498Z" fill="white"/>
        <path d="M104.722 32.9498C104.18 32.9498 103.74 32.5101 103.74 31.968V24.878C103.74 24.0755 103.088 23.4229 102.286 23.4229H97.3804C96.8385 23.4229 96.3989 22.9831 96.3989 22.441C96.3989 21.8989 96.8385 21.4592 97.3804 21.4592H102.286C104.17 21.4592 105.703 22.9925 105.703 24.878V31.968C105.703 32.5106 105.264 32.9498 104.722 32.9498Z" fill="white"/>
        <path d="M64.5118 89.0521H59.6066C57.7224 89.0521 56.189 87.5187 56.189 85.6332V78.5433C56.189 78.0012 56.6286 77.5614 57.1705 77.5614C57.7124 77.5614 58.152 78.0012 58.152 78.5433V85.6332C58.152 86.4358 58.8044 87.0884 59.6066 87.0884H64.5118C65.0537 87.0884 65.4933 87.5281 65.4933 88.0702C65.4933 88.6129 65.0542 89.0521 64.5118 89.0521Z" fill="white"/>
        <path d="M102.286 89.0521H97.3804C96.8385 89.0521 96.3989 88.6123 96.3989 88.0702C96.3989 87.5281 96.8385 87.0884 97.3804 87.0884H102.286C103.087 87.0884 103.74 86.4358 103.74 85.6332V78.5433C103.74 78.0012 104.18 77.5614 104.722 77.5614C105.264 77.5614 105.703 78.0012 105.703 78.5433V85.6332C105.703 87.5187 104.17 89.0521 102.286 89.0521Z" fill="white"/>
        <path d="M100.99 85.7767H60.8361C60.0433 85.7767 59.398 85.1311 59.398 84.338V25.998C59.398 25.2049 60.0433 24.5594 60.8361 24.5594H100.99C101.783 24.5594 102.428 25.2049 102.428 25.998V84.338C102.428 85.1311 101.783 85.7767 100.99 85.7767ZM60.8361 25.1485C60.3677 25.1485 59.9869 25.5295 59.9869 25.998V84.338C59.9869 84.8066 60.3677 85.1875 60.8361 85.1875H100.99C101.459 85.1875 101.839 84.8066 101.839 84.338V25.998C101.839 25.5295 101.459 25.1485 100.99 25.1485H60.8361Z" fill="white"/>
        <path d="M25.8929 82.3825C25.8929 82.3825 24.0909 83.2591 23.7594 84.2669C23.4938 85.0753 21.5008 85.1793 21.3039 86.7685C21.2022 87.5893 20.5951 88.2466 19.7782 88.3718C17.7429 88.684 14.6068 89.7411 14.1048 93.2758C13.7216 95.9739 15.0969 96.9969 16.5398 97.3508C17.5995 97.6107 18.3036 98.6419 18.0896 99.7126C17.8839 100.739 18.1907 101.926 19.9686 102.865C23.9528 104.968 27.9311 97.8823 27.9311 97.8823L28.7463 85.5115L25.8929 82.3825Z" fill="black"/>
        <path d="M47.5712 79.4499C47.5712 79.4499 39.6163 92.0365 30.1574 94.4676C30.1574 94.4676 32.0005 99.7191 33.4234 100.32C33.4234 100.32 45.0604 90.6066 48.0513 81.2384L47.5712 79.4499Z" fill="url(#paint7_linear_5_861)"/>
        <path d="M9.51705 159.953L9.25904 162.073C9.21026 162.476 8.89347 162.794 8.49088 162.84C7.81147 162.917 6.72124 162.996 5.65452 162.884C5.1861 162.835 4.88224 162.36 5.02506 161.912C5.28484 161.093 5.76089 159.865 6.44677 159.141H8.79768C9.23259 159.141 9.56936 159.522 9.51705 159.953Z" fill="url(#paint8_linear_5_861)"/>
        <path d="M27.9311 135.117L28.3278 137.452C28.3278 137.452 26.999 150.918 26.7627 156.304C26.7257 157.148 26.9443 157.983 27.3869 158.703L29.6978 162.457L23.8252 158.99L23.7083 158.274L24.6698 156.951L23.4103 141.867C23.3363 140.981 23.519 140.092 23.9369 139.307L25.1517 137.024L27.9311 135.117Z" fill="url(#paint9_linear_5_861)"/>
        <path d="M30.0845 163H28.2103C27.8594 163 27.5285 162.839 27.3146 162.561C26.7304 161.801 25.5197 160.32 24.9413 160.281C24.162 160.229 24.2619 163 24.2619 163H23.8253L23.2722 159.557C23.1329 158.69 23.5637 157.833 24.3413 157.426C24.3413 157.426 24.5194 158.744 25.485 159.327C26.4506 159.91 29.4151 161.997 29.4151 161.997C29.4151 161.997 29.7783 161.945 30.1768 162.017C30.7681 162.124 30.6858 163 30.0845 163Z" fill="url(#paint10_linear_5_861)"/>
        <path d="M19.8875 136.226C19.8875 136.226 12.1025 150.998 10.8647 154.371C9.62696 157.744 9.1938 160.558 9.17735 160.825C9.15149 161.241 8.6337 161.64 7.2067 161.64C6.47028 161.64 6.10941 161.345 5.9331 161.059C5.78264 160.815 5.77441 160.51 5.90136 160.253C6.35156 159.341 7.78091 156.428 8.30986 155.106C8.94167 153.528 10.3011 146.378 11.0463 143.893C11.7916 141.407 12.6344 138.71 15.881 136.226C15.8815 136.226 18.1102 134.042 19.8875 136.226Z" fill="url(#paint11_linear_5_861)"/>
        <path d="M24.8056 112.02C26.8138 103.507 21.7265 98.6925 21.7265 98.6925C24.9366 95.61 30.7851 94.2077 30.7851 94.2077C30.7851 94.2077 36.3662 98.2892 35.7038 101.484C35.3159 103.357 31.7807 112.7 31.7807 112.7C31.7807 112.7 28.5124 114.247 24.8056 112.02Z" fill="white"/>
        <path d="M20.353 116.234C21.1705 113.771 24.8056 112.02 24.8056 112.02C28.5124 114.247 31.7813 112.7 31.7813 112.7C31.7813 112.7 32.5142 115.502 32.0082 118.107C31.5021 120.712 28.3278 137.452 28.3278 137.452C23.3263 138.466 15.6341 136.432 15.6341 136.432C18.8202 130.774 19.536 118.697 20.353 116.234Z" fill="url(#paint12_linear_5_861)"/>
        <path d="M27.1365 88.5823L25.5038 95.9186C25.3475 96.5648 25.9364 96.4589 26.5893 96.3361C27.659 96.1344 29.0372 95.7187 29.498 94.8862C29.545 94.8015 29.5685 94.7057 29.5814 94.6099L30.2826 89.5224C30.3384 89.1191 30.1204 88.727 29.7478 88.5618L28.3942 87.9615C27.8741 87.731 27.2705 88.0285 27.1365 88.5823Z" fill="url(#paint13_linear_5_861)"/>
        <path d="M21.7265 98.6931C21.7265 98.6931 5.96719 114.299 28.8221 108.07C28.8221 108.07 29.0825 106.097 28.7428 106.131C21.3315 106.871 18.2319 108.568 24.2561 102.724C24.4688 102.518 24.403 101.737 24.266 101.474C23.8488 100.672 22.8949 99.08 21.7265 98.6931Z" fill="url(#paint14_linear_5_861)"/>
        <path d="M30.2638 81.8945C30.2638 81.8945 32.0017 83.0716 32.7487 86.0689C33.4957 89.0662 32.282 90.1415 31.0378 90.0757C29.7936 90.0098 27.9899 89.6247 26.4265 87.4747C24.8638 85.3246 27.9863 80.4564 30.2638 81.8945Z" fill="url(#paint15_linear_5_861)"/>
        <path d="M28.0028 86.2659C28.0028 86.2659 27.3657 81.971 30.9309 82.6277L31.6514 83.3785C31.6514 83.3785 33.3964 81.413 31.4651 79.9267C29.5344 78.441 26.8544 78.8214 25.3721 81.5265C23.8899 84.2316 23.3515 86.1324 24.594 87.8133C25.8364 89.4942 26.7709 88.0526 26.7709 88.0526C26.7709 88.0526 26.2008 86.598 26.674 85.9736C27.1465 85.3493 27.7565 86.337 27.7565 86.337L28.0028 86.2659Z" fill="black"/>
        <path d="M27.5156 86.6339C27.5156 86.6339 27.2011 84.4239 26.0727 85.0559C24.9443 85.6873 26.4794 87.1201 27.0948 87.6075L27.5156 86.6339Z" fill="url(#paint16_linear_5_861)"/>
        <path d="M47.5165 82.0409C47.5406 82.3008 46.5755 82.4801 46.2682 81.373C46.3528 80.8927 46.5027 78.7879 46.8712 78.461C48.833 76.7195 52.3311 74.7611 52.3311 74.7611C52.7226 75.3584 52.2095 75.7523 52.2095 75.7523L50.4633 76.9311C50.6455 77.535 50.9112 78.0682 50.9412 78.7573C50.9641 79.2788 50.7713 79.7897 50.4251 80.186C50.0778 80.5834 49.61 81.0961 49.188 81.4853C48.3893 82.222 47.5165 82.0409 47.5165 82.0409Z" fill="url(#paint17_linear_5_861)"/>
        <path d="M48.4651 81.1831L48.1983 81.0732C48.2335 80.9867 49.0716 78.9495 49.4772 78.5262C49.6311 78.3657 49.7058 78.2276 49.6987 78.117C49.6952 78.0571 49.6658 77.9977 49.6094 77.9371L48.1965 78.6932L47.5723 79.6709L47.329 79.5151L47.9937 78.4739L49.6488 77.5885L49.7234 77.649C49.8909 77.786 49.9773 77.933 49.9873 78.0988C49.9996 78.2963 49.9009 78.5015 49.6864 78.7255C49.3802 79.0448 48.7008 80.6075 48.4651 81.1831Z" fill="url(#paint18_linear_5_861)"/>
        <path d="M27.9005 111.288L31.7143 97.9646C31.7578 97.8135 31.8865 97.703 32.0428 97.6848C32.734 97.6042 34.7364 97.3779 37.0479 97.1821C39.8326 96.9463 43.0662 96.7552 44.9987 96.9181C45.2731 96.941 45.4395 97.2321 45.3172 97.479C44.2182 99.7032 39.698 108.75 37.4346 111.714C37.3594 111.812 37.2436 111.869 37.1202 111.868L28.2714 111.786C28.014 111.783 27.8294 111.536 27.9005 111.288Z" fill="url(#paint19_linear_5_861)"/>
        <path d="M37.4435 96.0268L40.2087 95.5658C40.3562 95.5412 40.4767 95.6823 40.4297 95.824L40.1558 96.6535C40.1317 96.7259 40.0688 96.7782 39.9936 96.7882L37.333 97.1439C37.1954 97.1621 37.082 97.0369 37.1132 96.9017L37.2824 96.1773C37.3012 96.0997 37.3647 96.0403 37.4435 96.0268Z" fill="#7D97F4"/>
        <path d="M35.3729 98.3686L35.6009 97.1815C35.6239 97.0627 35.722 96.9728 35.8425 96.9604L41.4277 96.3937C41.6157 96.3749 41.7662 96.5471 41.7221 96.7306L41.3671 98.2098C41.3389 98.328 41.2355 98.4138 41.1144 98.4197L35.6568 98.6943C35.4787 98.7037 35.3394 98.5432 35.3729 98.3686Z" fill="#91B3FA"/>
        <path d="M28.8221 108.07C28.8221 108.07 28.2908 105.884 28.5053 105.109C28.7198 104.333 29.1348 103.337 30.5189 103.558C31.903 103.78 33.5357 104.363 33.5357 104.363C33.5357 104.363 33.4534 105.373 32.4014 105.048L33.0537 105.553C33.0537 105.553 32.9603 106.361 32.0722 105.929L32.6788 106.599C32.6788 106.599 32.2973 107.263 31.6438 106.837C30.989 106.41 30.6758 108.332 28.8221 108.07Z" fill="url(#paint20_linear_5_861)"/>
    </g>
    <defs>
        <linearGradient id="paint0_linear_5_861" x1="183.385" y1="210.493" x2="38.7696" y2="30.9546" gradientUnits="userSpaceOnUse">
            <stop stop-color="#DAE3FE"/>
            <stop offset="1" stop-color="#E9EFFD"/>
        </linearGradient>
        <linearGradient id="paint1_linear_5_861" x1="148.457" y1="8.32164" x2="137.85" y2="100.615" gradientUnits="userSpaceOnUse">
            <stop stop-color="#FF928E"/>
            <stop offset="1" stop-color="#FE7062"/>
        </linearGradient>
        <linearGradient id="paint2_linear_5_861" x1="144.891" y1="7.91185" x2="134.283" y2="100.205" gradientUnits="userSpaceOnUse">
            <stop stop-color="#FF928E"/>
            <stop offset="1" stop-color="#FE7062"/>
        </linearGradient>
        <linearGradient id="paint3_linear_5_861" x1="152.274" y1="8.76041" x2="141.666" y2="101.053" gradientUnits="userSpaceOnUse">
            <stop stop-color="#FF928E"/>
            <stop offset="1" stop-color="#FE7062"/>
        </linearGradient>
        <linearGradient id="paint4_linear_5_861" x1="82.6723" y1="118.541" x2="80.6098" y2="72.5926" gradientUnits="userSpaceOnUse">
            <stop stop-color="#FEBBBA"/>
            <stop offset="1" stop-color="#FF928E"/>
        </linearGradient>
        <linearGradient id="paint5_linear_5_861" x1="105.417" y1="81.2472" x2="106.006" y2="-2.69676" gradientUnits="userSpaceOnUse">
            <stop stop-color="#FEBBBA"/>
            <stop offset="1" stop-color="#FF928E"/>
        </linearGradient>
        <linearGradient id="paint6_linear_5_861" x1="57.1195" y1="80.9082" x2="57.7089" y2="-3.03569" gradientUnits="userSpaceOnUse">
            <stop stop-color="#FEBBBA"/>
            <stop offset="1" stop-color="#FF928E"/>
        </linearGradient>
        <linearGradient id="paint7_linear_5_861" x1="41.6309" y1="85.3897" x2="27.2387" y2="105.277" gradientUnits="userSpaceOnUse">
            <stop stop-color="#FEBBBA"/>
            <stop offset="1" stop-color="#FF928E"/>
        </linearGradient>
        <linearGradient id="paint8_linear_5_861" x1="3.4454" y1="99.2494" x2="6.39187" y2="146.965" gradientUnits="userSpaceOnUse">
            <stop stop-color="#09005D"/>
            <stop offset="1" stop-color="#1A0F91"/>
        </linearGradient>
        <linearGradient id="paint9_linear_5_861" x1="28.6747" y1="178.921" x2="22.1473" y2="102.66" gradientUnits="userSpaceOnUse">
            <stop stop-color="#FEBBBA"/>
            <stop offset="1" stop-color="#FF928E"/>
        </linearGradient>
        <linearGradient id="paint10_linear_5_861" x1="23.035" y1="98.0401" x2="25.9815" y2="145.755" gradientUnits="userSpaceOnUse">
            <stop stop-color="#09005D"/>
            <stop offset="1" stop-color="#1A0F91"/>
        </linearGradient>
        <linearGradient id="paint11_linear_5_861" x1="15.5539" y1="180.056" x2="9.02476" y2="103.775" gradientUnits="userSpaceOnUse">
            <stop stop-color="#FEBBBA"/>
            <stop offset="1" stop-color="#FF928E"/>
        </linearGradient>
        <linearGradient id="paint12_linear_5_861" x1="40.2943" y1="97.2115" x2="10.2451" y2="152.871" gradientUnits="userSpaceOnUse">
            <stop stop-color="#09005D"/>
            <stop offset="1" stop-color="#1A0F91"/>
        </linearGradient>
        <linearGradient id="paint13_linear_5_861" x1="29.39" y1="103.75" x2="28.1639" y2="94.7831" gradientUnits="userSpaceOnUse">
            <stop stop-color="#FEBBBA"/>
            <stop offset="1" stop-color="#FF928E"/>
        </linearGradient>
        <linearGradient id="paint14_linear_5_861" x1="4.0305" y1="112.271" x2="31.6972" y2="100.701" gradientUnits="userSpaceOnUse">
            <stop stop-color="#FEBBBA"/>
            <stop offset="1" stop-color="#FF928E"/>
        </linearGradient>
        <linearGradient id="paint15_linear_5_861" x1="31.5717" y1="92.9511" x2="24.7773" y2="72.2048" gradientUnits="userSpaceOnUse">
            <stop stop-color="#FEBBBA"/>
            <stop offset="1" stop-color="#FF928E"/>
        </linearGradient>
        <linearGradient id="paint16_linear_5_861" x1="29.0911" y1="93.7636" x2="22.2967" y2="73.0174" gradientUnits="userSpaceOnUse">
            <stop stop-color="#FEBBBA"/>
            <stop offset="1" stop-color="#FF928E"/>
        </linearGradient>
        <linearGradient id="paint17_linear_5_861" x1="43.358" y1="86.6397" x2="28.9658" y2="106.527" gradientUnits="userSpaceOnUse">
            <stop stop-color="#FEBBBA"/>
            <stop offset="1" stop-color="#FF928E"/>
        </linearGradient>
        <linearGradient id="paint18_linear_5_861" x1="47.3283" y1="79.3857" x2="49.9874" y2="79.3857" gradientUnits="userSpaceOnUse">
            <stop stop-color="#FEBBBA"/>
            <stop offset="1" stop-color="#FF928E"/>
        </linearGradient>
        <linearGradient id="paint19_linear_5_861" x1="47.1461" y1="56.2223" x2="49.8962" y2="43.6551" gradientUnits="userSpaceOnUse">
            <stop stop-color="#09005D"/>
            <stop offset="1" stop-color="#1A0F91"/>
        </linearGradient>
        <linearGradient id="paint20_linear_5_861" x1="28.4541" y1="105.81" x2="33.5351" y2="105.81" gradientUnits="userSpaceOnUse">
            <stop stop-color="#FEBBBA"/>
            <stop offset="1" stop-color="#FF928E"/>
        </linearGradient>
        <clipPath id="clip0_5_861">
            <rect width="163" height="163" fill="white"/>
        </clipPath>
    </defs>
</svg>
