<svg width="48" height="48" viewBox="0 0 48 48" fill="none" xmlns="http://www.w3.org/2000/svg">
    <rect width="48" height="48" rx="4" fill="#FFF3EC"/>
    <path fill-rule="evenodd" clip-rule="evenodd" d="M24.0262 12C21.0148 12 18.2715 12.9947 16.6482 13.8073C16.5015 13.8807 16.3648 13.9527 16.2375 14.022C15.9855 14.1593 15.7708 14.2873 15.6002 14.4L17.4468 17.1187L18.3162 17.4647C21.7135 19.1787 26.2695 19.1787 29.6675 17.4647L30.6542 16.9527L32.4002 14.4C32.0385 14.164 31.6624 13.951 31.2742 13.762C29.6588 12.958 26.9808 12 24.0268 12M19.7322 15.0773C19.0782 14.955 18.4324 14.7929 17.7982 14.592C19.3188 13.9167 21.5848 13.2 24.0268 13.2C25.7182 13.2 27.3175 13.544 28.6402 13.98C27.0902 14.198 25.4362 14.568 23.8602 15.0233C22.6202 15.382 21.1708 15.3433 19.7322 15.0773ZM30.3722 18.4533L30.2082 18.536C26.4708 20.4213 21.5135 20.4213 17.7762 18.536L17.6208 18.4573C12.0055 24.618 7.71882 35.998 24.0262 35.998C40.3335 35.998 35.9428 24.4067 30.3722 18.4533ZM23.3335 24C22.9799 24 22.6407 24.1405 22.3907 24.3905C22.1406 24.6406 22.0002 24.9797 22.0002 25.3333C22.0002 25.687 22.1406 26.0261 22.3907 26.2761C22.6407 26.5262 22.9799 26.6667 23.3335 26.6667V24ZM24.6668 22.6667V22H23.3335V22.6667C22.6262 22.6667 21.948 22.9476 21.4479 23.4477C20.9478 23.9478 20.6668 24.6261 20.6668 25.3333C20.6668 26.0406 20.9478 26.7189 21.4479 27.219C21.948 27.719 22.6262 28 23.3335 28V30.6667C22.7535 30.6667 22.2595 30.2967 22.0755 29.778C22.0482 29.6931 22.0041 29.6146 21.946 29.5471C21.8878 29.4795 21.8167 29.4244 21.7368 29.3848C21.6569 29.3452 21.5699 29.3221 21.4809 29.3167C21.392 29.3113 21.3028 29.3239 21.2188 29.3536C21.1347 29.3833 21.0575 29.4295 20.9916 29.4896C20.9258 29.5497 20.8726 29.6223 20.8353 29.7033C20.798 29.7843 20.7774 29.8719 20.7745 29.961C20.7717 30.0501 20.7868 30.1388 20.8188 30.222C21.0027 30.742 21.3433 31.1922 21.7936 31.5106C22.244 31.829 22.7819 32 23.3335 32V32.6667H24.6668V32C25.3741 32 26.0523 31.719 26.5524 31.219C27.0525 30.7189 27.3335 30.0406 27.3335 29.3333C27.3335 28.6261 27.0525 27.9478 26.5524 27.4477C26.0523 26.9476 25.3741 26.6667 24.6668 26.6667V24C25.2468 24 25.7408 24.37 25.9248 24.8887C25.9521 24.9735 25.9962 25.052 26.0543 25.1196C26.1125 25.1871 26.1836 25.2423 26.2635 25.2819C26.3434 25.3215 26.4304 25.3446 26.5194 25.35C26.6083 25.3553 26.6975 25.3428 26.7815 25.3131C26.8656 25.2834 26.9428 25.2371 27.0087 25.1771C27.0746 25.117 27.1277 25.0443 27.165 24.9634C27.2023 24.8824 27.2229 24.7948 27.2258 24.7057C27.2286 24.6166 27.2136 24.5278 27.1815 24.4447C26.9976 23.9247 26.657 23.4745 26.2067 23.1561C25.7563 22.8377 25.2184 22.6667 24.6668 22.6667ZM24.6668 28V30.6667C25.0204 30.6667 25.3596 30.5262 25.6096 30.2761C25.8597 30.0261 26.0002 29.687 26.0002 29.3333C26.0002 28.9797 25.8597 28.6406 25.6096 28.3905C25.3596 28.1405 25.0204 28 24.6668 28Z" fill="url(#paint0_linear_224_1697)"/>
    <defs>
        <linearGradient id="paint0_linear_224_1697" x1="12.6034" y1="24.0085" x2="35.495" y2="24.0085" gradientUnits="userSpaceOnUse">
            <stop stop-color="#FD5C00"/>
            <stop offset="1" stop-color="#D40E19"/>
        </linearGradient>
    </defs>
</svg>
