<svg width="32" height="32" viewBox="0 0 32 32" fill="none" xmlns="http://www.w3.org/2000/svg">
    <g clip-path="url(#clip0_249_705)">
        <path fill-rule="evenodd" clip-rule="evenodd" d="M16.0002 2.66667V11.3333C16.0002 11.8638 16.2109 12.3725 16.5859 12.7476C16.961 13.1226 17.4697 13.3333 18.0002 13.3333H26.6668V26.6667C26.6668 27.3739 26.3859 28.0522 25.8858 28.5523C25.3857 29.0524 24.7074 29.3333 24.0002 29.3333H8.00016C7.29292 29.3333 6.61464 29.0524 6.11454 28.5523C5.61445 28.0522 5.3335 27.3739 5.3335 26.6667V5.33334C5.3335 4.62609 5.61445 3.94782 6.11454 3.44772C6.61464 2.94762 7.29292 2.66667 8.00016 2.66667H16.0002ZM18.1215 18.2093L14.8215 21.5093L13.8788 20.5667C13.6274 20.3238 13.2906 20.1894 12.941 20.1924C12.5914 20.1955 12.2569 20.3357 12.0097 20.5829C11.7625 20.8301 11.6223 21.1645 11.6193 21.5141C11.6162 21.8637 11.7506 22.2005 11.9935 22.452L13.7842 24.244C13.9204 24.3803 14.0821 24.4884 14.2601 24.5621C14.4381 24.6359 14.6288 24.6738 14.8215 24.6738C15.0142 24.6738 15.2049 24.6359 15.3829 24.5621C15.5609 24.4884 15.7226 24.3803 15.8588 24.244L20.0068 20.0947C20.1342 19.9717 20.2358 19.8245 20.3056 19.6619C20.3755 19.4992 20.4123 19.3242 20.4138 19.1472C20.4154 18.9702 20.3816 18.7946 20.3146 18.6307C20.2476 18.4669 20.1485 18.318 20.0234 18.1928C19.8982 18.0676 19.7493 17.9686 19.5854 17.9016C19.4216 17.8345 19.246 17.8008 19.069 17.8023C18.8919 17.8039 18.717 17.8407 18.5543 17.9105C18.3916 17.9804 18.2445 18.082 18.1215 18.2093ZM18.6668 2.72401C19.172 2.83115 19.6352 3.08266 20.0002 3.44801L25.8855 9.33334C26.2508 9.6983 26.5024 10.1615 26.6095 10.6667H18.6668V2.72401Z" fill="url(#paint0_linear_249_705)"/>
    </g>
    <defs>
        <linearGradient id="paint0_linear_249_705" x1="5.35252" y1="16.0106" x2="26.7373" y2="16.0106" gradientUnits="userSpaceOnUse">
            <stop stop-color="#FD5C00"/>
            <stop offset="1" stop-color="#D40E19"/>
        </linearGradient>
        <clipPath id="clip0_249_705">
            <rect width="32" height="32" fill="white"/>
        </clipPath>
    </defs>
</svg>
