<svg width="24" height="24" viewBox="0 0 24 24" fill="none" xmlns="http://www.w3.org/2000/svg">
    <path d="M21.221 8.623C21.0226 8.62274 20.8324 8.54388 20.692 8.40369C20.5516 8.26349 20.4725 8.07339 20.472 7.875V5.83C20.4723 5.21229 20.2275 4.61968 19.7915 4.18214C19.3555 3.74461 18.7637 3.49785 18.146 3.496H15.1C14.9972 3.50353 14.8939 3.48977 14.7966 3.45559C14.6993 3.42141 14.6102 3.36754 14.5346 3.29734C14.4591 3.22715 14.3989 3.14214 14.3577 3.04762C14.3165 2.9531 14.2953 2.8511 14.2953 2.748C14.2953 2.6449 14.3165 2.5429 14.3577 2.44838C14.3989 2.35386 14.4591 2.26885 14.5346 2.19866C14.6102 2.12847 14.6993 2.0746 14.7966 2.04042C14.8939 2.00623 14.9972 1.99248 15.1 2H18.176C18.679 2.00081 19.1769 2.10077 19.6412 2.29415C20.1055 2.48753 20.5271 2.77054 20.882 3.127C21.2399 3.47966 21.5233 3.90066 21.7154 4.365C21.9075 4.82933 22.0042 5.32753 22 5.83V7.875C22.0015 7.9763 21.9822 8.07684 21.9432 8.17034C21.9041 8.26384 21.8463 8.3483 21.7732 8.41847C21.7001 8.48865 21.6134 8.54302 21.5184 8.57821C21.4234 8.61339 21.3221 8.62864 21.221 8.623ZM2.74899 8.623C2.5506 8.62274 2.36039 8.54388 2.22001 8.40369C2.07963 8.26349 2.00052 8.07339 1.99999 7.875V5.83C1.99614 5.32759 2.09309 4.82951 2.28513 4.36523C2.47716 3.90095 2.76037 3.4799 3.11799 3.127C3.47275 2.77041 3.89437 2.48731 4.35871 2.29392C4.82305 2.10053 5.32099 2.00065 5.82399 2H8.89999C9.00282 1.99248 9.10609 2.00623 9.20336 2.04042C9.30064 2.0746 9.38982 2.12847 9.46534 2.19866C9.54085 2.26885 9.60109 2.35386 9.64228 2.44838C9.68347 2.5429 9.70472 2.6449 9.70472 2.748C9.70472 2.8511 9.68347 2.9531 9.64228 3.04762C9.60109 3.14214 9.54085 3.22715 9.46534 3.29734C9.38982 3.36754 9.30064 3.42141 9.20336 3.45559C9.10609 3.48977 9.00282 3.50353 8.89999 3.496H5.82399C5.20656 3.50173 4.61602 3.74941 4.17922 4.18583C3.74243 4.62225 3.49425 5.21258 3.48799 5.83V7.875C3.48931 7.97284 3.47117 8.06996 3.43461 8.16073C3.39806 8.25149 3.34382 8.33407 3.27505 8.40368C3.20628 8.47328 3.12436 8.52852 3.03405 8.56617C2.94373 8.60383 2.84684 8.62314 2.74899 8.623ZM21.98 16.075V18.18C21.9802 18.6828 21.8807 19.1806 21.687 19.6446C21.4934 20.1086 21.2096 20.5295 20.852 20.883C20.1356 21.5899 19.1724 21.9905 18.166 22H5.81399C4.79701 21.9798 3.82871 21.5607 3.11799 20.833C2.41797 20.1262 2.02058 19.1747 2.00999 18.18V16.075C2.00999 15.8764 2.0889 15.6858 2.22937 15.5454C2.36983 15.4049 2.56034 15.326 2.75899 15.326C2.95764 15.326 3.14815 15.4049 3.28861 15.5454C3.42908 15.6858 3.50799 15.8764 3.50799 16.075V18.18C3.514 18.6651 3.67241 19.1361 3.9608 19.5262C4.2492 19.9164 4.65297 20.206 5.11499 20.354C5.66499 17.362 9.01999 15.167 11.955 15.167C14.891 15.167 18.235 17.372 18.785 20.354C19.1617 20.25 19.5054 20.051 19.783 19.776C20.0007 19.5606 20.1737 19.3043 20.2921 19.0218C20.4106 18.7394 20.472 18.4363 20.473 18.13V16.075C20.473 15.8765 20.5518 15.6861 20.6922 15.5457C20.8326 15.4054 21.023 15.3265 21.2215 15.3265C21.42 15.3265 21.6104 15.4054 21.7508 15.5457C21.8911 15.6861 21.97 15.8765 21.97 16.075H21.98ZM15.88 9.76C15.8822 10.5308 15.6552 11.2849 15.2278 11.9264C14.8005 12.568 14.1921 13.068 13.48 13.363C12.9478 13.5838 12.3733 13.6839 11.7978 13.656C11.2224 13.6281 10.6602 13.473 10.1519 13.2017C9.6436 12.9305 9.20175 12.5499 8.85818 12.0874C8.51461 11.6249 8.27786 11.092 8.16499 10.527C8.01503 9.77126 8.09305 8.988 8.38915 8.27668C8.68525 7.56537 9.18606 6.95811 9.82799 6.532C10.577 6.03431 11.4752 5.811 12.3701 5.89995C13.265 5.98889 14.1016 6.38461 14.738 7.02C15.4657 7.74651 15.876 8.73172 15.879 9.76" fill="#FD5C00"/>
</svg>
