<svg width="48" height="48" viewBox="0 0 48 48" fill="none" xmlns="http://www.w3.org/2000/svg">
<rect width="48" height="48" rx="4" fill="#FFF3EC"/>
<path d="M13.3332 34.6667C12.5998 34.6667 11.9723 34.4058 11.4505 33.884C10.9287 33.3622 10.6674 32.7342 10.6665 32V16C10.6665 15.2667 10.9278 14.6391 11.4505 14.1173C11.9732 13.5956 12.6007 13.3342 13.3332 13.3333H20.2332C20.5887 13.3333 20.9278 13.4 21.2505 13.5333C21.5732 13.6667 21.8563 13.8556 22.0998 14.1L23.9998 16H34.6665C35.3998 16 36.0278 16.2613 36.5505 16.784C37.0732 17.3067 37.3341 17.9342 37.3332 18.6667V32C37.3332 32.7333 37.0723 33.3613 36.5505 33.884C36.0287 34.4067 35.4007 34.6676 34.6665 34.6667H13.3332ZM26.6665 26.6667V28C26.6665 28.3778 26.7945 28.6947 27.0505 28.9507C27.3065 29.2067 27.6229 29.3342 27.9998 29.3333C28.3767 29.3324 28.6936 29.2044 28.9505 28.9493C29.2074 28.6942 29.3349 28.3778 29.3332 28V26.6667H30.6665C31.0443 26.6667 31.3612 26.5387 31.6172 26.2827C31.8732 26.0267 32.0007 25.7102 31.9998 25.3333C31.9989 24.9564 31.8709 24.64 31.6158 24.384C31.3607 24.128 31.0443 24 30.6665 24H29.3332V22.6667C29.3332 22.2889 29.2052 21.9724 28.9492 21.7173C28.6932 21.4622 28.3767 21.3342 27.9998 21.3333C27.6229 21.3324 27.3065 21.4604 27.0505 21.7173C26.7945 21.9742 26.6665 22.2907 26.6665 22.6667V24H25.3332C24.9554 24 24.6389 24.128 24.3838 24.384C24.1287 24.64 24.0007 24.9564 23.9998 25.3333C23.9989 25.7102 24.1269 26.0271 24.3838 26.284C24.6407 26.5409 24.9572 26.6684 25.3332 26.6667H26.6665Z" fill="url(#paint0_linear_224_1725)"/>
<defs>
<linearGradient id="paint0_linear_224_1725" x1="10.6903" y1="24.0085" x2="37.4212" y2="24.0085" gradientUnits="userSpaceOnUse">
<stop stop-color="#FD5C00"/>
<stop offset="1" stop-color="#D40E19"/>
</linearGradient>
</defs>
</svg>
