<svg width="128" height="128" viewBox="0 0 128 128" fill="none" xmlns="http://www.w3.org/2000/svg">
    <path d="M38.3999 49.6001C38.3999 45.1819 41.9817 41.6001 46.3999 41.6001H81.5999C86.0181 41.6001 89.5999 45.1819 89.5999 49.6001V113.6C89.5999 118.018 86.0181 121.6 81.5999 121.6H46.3999C41.9817 121.6 38.3999 118.018 38.3999 113.6V49.6001Z" fill="white"/>
    <mask id="mask0_159_23226" style="mask-type:luminance" maskUnits="userSpaceOnUse" x="38" y="41" width="52" height="81">
        <path d="M38.3999 49.6001C38.3999 45.1819 41.9817 41.6001 46.3999 41.6001H81.5999C86.0181 41.6001 89.5999 45.1819 89.5999 49.6001V113.6C89.5999 118.018 86.0181 121.6 81.5999 121.6H46.3999C41.9817 121.6 38.3999 118.018 38.3999 113.6V49.6001Z" fill="white"/>
    </mask>
    <g mask="url(#mask0_159_23226)">
        <path d="M33.1426 49.3715C33.1426 42.3023 38.8733 36.5715 45.9426 36.5715H81.1426C88.2119 36.5715 93.9426 42.3023 93.9426 49.3715H84.3426C84.3426 47.6042 82.9099 46.1715 81.1426 46.1715H45.9426C44.1752 46.1715 42.7426 47.6042 42.7426 49.3715H33.1426ZM45.9426 121.372C38.8733 121.372 33.1426 115.641 33.1426 108.572V49.3715C33.1426 42.3023 38.8733 36.5715 45.9426 36.5715V46.1715C44.1752 46.1715 42.7426 47.6042 42.7426 49.3715V113.372C42.7426 117.79 44.1752 121.372 45.9426 121.372ZM81.1426 36.5715C88.2119 36.5715 93.9426 42.3023 93.9426 49.3715V108.572C93.9426 115.641 88.2119 121.372 81.1426 121.372C82.9099 121.372 84.3426 117.79 84.3426 113.372V49.3715C84.3426 47.6042 82.9099 46.1715 81.1426 46.1715V36.5715Z" fill="#1548A2"/>
    </g>
    <path d="M63.9998 123.2C96.6951 123.2 123.2 96.6953 123.2 64C123.2 31.3048 96.6951 4.80005 63.9998 4.80005C31.3045 4.80005 4.7998 31.3048 4.7998 64C4.7998 96.6953 31.3045 123.2 63.9998 123.2Z" stroke="#1548A2" stroke-width="6"/>
</svg>
