<svg width="48" height="48" viewBox="0 0 48 48" fill="none" xmlns="http://www.w3.org/2000/svg">
<rect width="48" height="48" rx="4" fill="#FFF3EC"/>
<path d="M26.8399 29.8007C26.8399 28.2838 25.5851 27.025 24 27.025C22.448 27.025 21.1602 28.2515 21.1602 29.8007C21.1602 30.8659 21.7876 31.8019 22.7122 32.2537L21.1602 36.6433H24H26.8399L25.2879 32.2537C26.2125 31.8019 26.8399 30.8659 26.8399 29.8007Z" fill="#1C1E66"/>
<path d="M34.1705 31.8341C33.6092 26.5731 29.0522 24.9916 29.0522 24.9916C28.6229 24.7979 28.0945 24.6688 27.6983 24.572C27.1039 24.4429 26.8727 24.3783 26.8067 24.3461C25.9151 23.7974 25.9151 22.4741 25.9151 22.4741C27.6322 21.0216 27.9624 18.8914 27.9624 18.8914C28.4247 18.5364 28.4908 18.0522 28.4908 18.0522L28.6229 17.1162C28.755 16.1802 28.0945 16.0834 28.0945 16.0834C27.8303 12.0166 25.4198 11.4356 24.4291 11.3711C23.9998 11.3388 23.6366 11.3711 23.6366 11.3711C23.0092 11.4033 21.6883 11.6293 20.7967 12.9849H20.2684V13.5013H20.4995C20.4665 13.6304 20.4004 13.7595 20.3344 13.9209H19.4758V14.8246H20.0702C19.9712 15.2119 19.9381 15.6315 19.9051 16.1157C19.9051 16.1157 19.2447 16.2125 19.3768 17.1485L19.5089 18.0845C19.5089 18.0845 19.6079 18.5364 20.0372 18.9237C20.0372 18.9237 20.3674 21.0539 22.0846 22.5063C22.0846 22.5063 22.0846 23.7974 21.193 24.3461C21.0939 24.3783 20.8627 24.4429 20.3014 24.572C19.9051 24.6688 19.3768 24.7979 18.9475 24.9916C18.9475 24.9916 14.3905 26.5731 13.8291 31.8341H20.9618C20.5325 31.2532 20.3014 30.5431 20.3014 29.8007C20.3014 27.8319 21.9194 26.2181 23.9338 26.2181H23.9668C25.9811 26.2181 27.6322 27.8319 27.6322 29.8007C27.6322 30.5431 27.4011 31.2532 26.9718 31.8341H34.1705ZM21.0609 13.4045H21.9194V14.2436H21.0609V13.4045ZM22.2827 14.6955V15.1151H21.8534V14.6955H22.2827ZM22.4148 17.8263H21.1599V16.5998H20.3014V15.7606H21.1599V16.5998H22.4148V17.8263Z" fill="url(#paint0_linear_1910_1074)"/>
<path d="M19.8392 12.5008H18.7495V13.5659H19.8392V12.5008Z" fill="url(#paint1_linear_1910_1074)"/>
<path d="M18.3529 12.8881H17.5273V13.695H18.3529V12.8881Z" fill="url(#paint2_linear_1910_1074)"/>
<path d="M18.7492 11.726H18.2539V12.2102H18.7492V11.726Z" fill="url(#paint3_linear_1910_1074)"/>
<path d="M19.0798 14.0502H17.6929V15.4058H19.0798V14.0502Z" fill="url(#paint4_linear_1910_1074)"/>
<defs>
<linearGradient id="paint0_linear_1910_1074" x1="32.8011" y1="21.5287" x2="18.4234" y2="21.8314" gradientUnits="userSpaceOnUse">
<stop stop-color="#1C1E66"/>
<stop offset="1" stop-color="#DC1E14"/>
</linearGradient>
<linearGradient id="paint1_linear_1910_1074" x1="32.6164" y1="12.7451" x2="18.2386" y2="13.0478" gradientUnits="userSpaceOnUse">
<stop stop-color="#1C1E66"/>
<stop offset="1" stop-color="#DC1E14"/>
</linearGradient>
<linearGradient id="paint2_linear_1910_1074" x1="32.6216" y1="13.0146" x2="18.2439" y2="13.317" gradientUnits="userSpaceOnUse">
<stop stop-color="#1C1E66"/>
<stop offset="1" stop-color="#DC1E14"/>
</linearGradient>
<linearGradient id="paint3_linear_1910_1074" x1="32.5933" y1="11.667" x2="18.2156" y2="11.9697" gradientUnits="userSpaceOnUse">
<stop stop-color="#1C1E66"/>
<stop offset="1" stop-color="#DC1E14"/>
</linearGradient>
<linearGradient id="paint4_linear_1910_1074" x1="32.6527" y1="14.4633" x2="18.2747" y2="14.766" gradientUnits="userSpaceOnUse">
<stop stop-color="#1C1E66"/>
<stop offset="1" stop-color="#DC1E14"/>
</linearGradient>
</defs>
</svg>
