<svg width="53" height="20" viewBox="0 0 53 20" fill="none" xmlns="http://www.w3.org/2000/svg">
    <path fill-rule="evenodd" clip-rule="evenodd" d="M0.598145 6.00522C0.599972 4.59727 1.22581 3.24742 2.3383 2.25185C3.45079 1.25628 4.95917 0.696215 6.53247 0.69458H11.1475V2.93608H6.53247C5.62321 2.93699 4.75142 3.26059 4.10849 3.836C3.46551 4.41135 3.10391 5.19152 3.10289 6.00522V9.64615H0.598145V6.00522ZM13.2917 0.70516H15.7728V2.9255H13.2917V0.70516ZM17.8266 16.123C18.4695 15.5477 18.8311 14.7677 18.8321 13.9541V10.3132H21.3368V13.9541C21.3358 15.3624 20.7105 16.7129 19.598 17.709C18.4855 18.7051 16.9768 19.2655 15.4031 19.2671H10.7875V17.0228H15.4031C16.3122 17.0218 17.1838 16.6982 17.8266 16.123ZM6.16221 19.2542H8.64331V17.0339H6.16221V19.2542ZM14.6636 9.98471C14.6636 11.8115 13.0088 13.2924 10.9675 13.2924C8.92619 13.2924 7.27137 11.8115 7.27137 9.98471C7.27137 8.15794 8.92619 6.67704 10.9675 6.67704C13.0088 6.67704 14.6636 8.15794 14.6636 9.98471Z" fill="url(#paint0_linear_0_1)"/>
    <path fill-rule="evenodd" clip-rule="evenodd" d="M28.6136 9.43282L26.9939 9.315C27.2384 6.46564 28.821 4.83008 31.6847 4.83008C34.2642 4.83008 35.7543 5.92606 35.7543 7.89873C35.7543 9.78677 34.1905 10.7144 31.459 11.3382C29.1031 11.9787 28.4626 12.4361 28.3873 13.7826C29.2353 13.7658 30.3654 13.7489 31.1946 13.7489H35.9236V15.1315H26.7295C26.7107 14.843 26.7107 14.5415 26.7107 14.238C26.7107 11.8609 27.9354 10.8996 30.761 10.1917C33.2292 9.58479 34.0014 8.99472 34.0014 7.88334C34.0014 6.93885 33.2668 6.19729 31.6654 6.19729C29.9135 6.19585 28.8393 7.13987 28.6136 9.43282ZM39.6729 15.1315H37.9393V5.01571H39.6729V15.1315ZM42.2158 5.01571V15.1315H46.6976C50.3341 15.1315 52.3686 13.0406 52.3686 10.0061C52.3686 6.97155 50.4845 5.01571 46.6224 5.01571H42.2158ZM46.5289 13.8163H43.9494L43.9478 6.3305H46.3967C49.3168 6.3305 50.6549 7.66261 50.6549 10.0061C50.6549 12.3663 49.4114 13.8163 46.5289 13.8163Z" fill="#070707"/>
    <defs>
        <linearGradient id="paint0_linear_0_1" x1="0.610504" y1="9.97605" x2="21.339" y2="9.97605" gradientUnits="userSpaceOnUse">
            <stop stop-color="#7349FF"/>
            <stop offset="0.33" stop-color="#02BEFE"/>
            <stop offset="0.66" stop-color="#02BEFE"/>
            <stop offset="1" stop-color="#7349FF"/>
        </linearGradient>
    </defs>
</svg>
