<svg width="17" height="16" viewBox="0 0 17 16" fill="none" xmlns="http://www.w3.org/2000/svg">
    <path fill-rule="evenodd" clip-rule="evenodd" d="M12.7321 6H11.9681V4.08333C11.9681 2.01333 10.257 1 8.14852 1C6.04008 1 4.32889 2.01333 4.32889 4.08333V6H3.56496C2.72464 6 2.03711 6.50833 2.03711 7.33333V13.5C2.03711 14.325 2.72464 15 3.56496 15H12.7321C13.5724 15 14.2599 14.325 14.2599 13.5V7.33333C14.2599 6.50833 13.5724 6 12.7321 6Z" stroke="#939393" stroke-width="2" stroke-linecap="round" stroke-linejoin="round"/>
    <path d="M4.3291 6H11.9684" stroke="#939393" stroke-width="2" stroke-linecap="round" stroke-linejoin="round"/>
    <path fill-rule="evenodd" clip-rule="evenodd" d="M8.14846 11.9585C7.30814 11.9585 6.62061 11.2835 6.62061 10.4585C6.62061 9.6335 7.30814 8.9585 8.14846 8.9585C8.98878 8.9585 9.67631 9.6335 9.67631 10.4585C9.67631 11.2835 8.98878 11.9585 8.14846 11.9585Z" stroke="#939393" stroke-width="2" stroke-linecap="round" stroke-linejoin="round"/>
</svg>
