<svg width="22" height="22" viewBox="0 0 22 22" fill="none" xmlns="http://www.w3.org/2000/svg">
    <path d="M9.72344 10.3134C8.61851 10.3136 7.53836 10.0113 6.61957 9.44472C5.70078 8.87818 4.98464 8.07285 4.5617 7.1306C4.13875 6.18834 4.02801 5.15148 4.24348 4.15113C4.45895 3.15077 4.99095 2.23187 5.7722 1.51062C6.55344 0.789369 7.54885 0.298169 8.63254 0.0991386C9.71622 -0.0998915 10.8395 0.00218795 11.8603 0.392467C12.8812 0.782746 13.7537 1.4437 14.3676 2.29173C14.9815 3.13976 15.3091 4.13679 15.3091 5.15672C15.3075 6.52379 14.7185 7.83445 13.6714 8.80118C12.6242 9.76791 11.2044 10.3118 9.72344 10.3134ZM9.72344 1.48711C8.93696 1.48697 8.16811 1.70213 7.51411 2.10538C6.86012 2.50862 6.35036 3.08184 6.04932 3.75253C5.74828 4.42322 5.66947 5.16126 5.82287 5.87329C5.97627 6.58533 6.35498 7.23938 6.9111 7.75273C7.46722 8.26607 8.17578 8.61565 8.94715 8.75725C9.71853 8.89885 10.5181 8.8261 11.2446 8.54822C11.9712 8.27033 12.5922 7.79979 13.0291 7.1961C13.4659 6.59241 13.699 5.8827 13.6989 5.15672C13.6976 4.18382 13.2784 3.25109 12.5331 2.56315C11.7879 1.87521 10.7774 1.48823 9.72344 1.48711Z" fill="#939393"/>
    <path d="M10.7669 21.3576H0.805137L0 20.6144C0.00302427 18.2349 1.02844 15.9537 2.85129 14.2712C4.67413 12.5887 7.14555 11.6423 9.72334 11.6397C11.8878 11.6326 13.9917 12.2992 15.6952 13.5318C15.9618 13.7238 16.2175 13.9282 16.4615 14.1442L17.0419 14.6596L15.9253 15.7312L15.3448 15.2158C15.1415 15.0351 14.9282 14.8643 14.7057 14.7039C13.2843 13.676 11.5291 13.1202 9.72334 13.1261C7.71171 13.1283 5.77248 13.8193 4.28096 15.0653C2.78943 16.3113 1.85166 18.0237 1.64912 19.8712H10.7669V21.3576Z" fill="#939393"/>
    <path d="M15.2206 21.3357L13.9912 21.3251L10.3989 17.3257L11.639 16.3772L14.6227 19.6995L20.3972 13.5127L21.6175 14.483L15.2206 21.3357Z" fill="#939393"/>
</svg>