<svg width="40" height="40" viewBox="0 0 40 40" fill="none" xmlns="http://www.w3.org/2000/svg">
    <rect width="40" height="40" rx="20" fill="white"/>
    <path d="M28.6286 23.9989C28.5508 23.9052 28.4744 23.8114 28.3994 23.7209C27.3682 22.4736 26.7443 21.7208 26.7443 18.1897C26.7443 16.3616 26.3069 14.8616 25.4449 13.7366C24.8093 12.9055 23.95 12.275 22.8175 11.8091C22.803 11.801 22.79 11.7903 22.7791 11.7777C22.3718 10.4136 21.2571 9.5 19.9999 9.5C18.7427 9.5 17.6285 10.4136 17.2211 11.7762C17.2103 11.7884 17.1974 11.7987 17.1832 11.8067C14.5404 12.8947 13.256 14.982 13.256 18.1883C13.256 21.7208 12.633 22.4736 11.6008 23.7195C11.5258 23.81 11.4494 23.9019 11.3716 23.9975C11.1706 24.2399 11.0433 24.5348 11.0046 24.8473C10.966 25.1598 11.0177 25.4769 11.1536 25.7609C11.4429 26.3703 12.0593 26.7486 12.7629 26.7486H27.2421C27.9424 26.7486 28.5546 26.3708 28.8447 25.7642C28.9813 25.4801 29.0335 25.1628 28.9952 24.8499C28.9569 24.537 28.8297 24.2417 28.6286 23.9989ZM19.9999 30.5C20.6773 30.4995 21.3418 30.3156 21.9232 29.9679C22.5045 29.6202 22.9809 29.1217 23.3018 28.5252C23.3169 28.4966 23.3244 28.4646 23.3234 28.4322C23.3225 28.3999 23.3133 28.3684 23.2966 28.3407C23.2799 28.313 23.2563 28.2901 23.2281 28.2742C23.2 28.2583 23.1682 28.25 23.1358 28.25H16.8649C16.8325 28.2499 16.8007 28.2582 16.7724 28.274C16.7442 28.2899 16.7206 28.3128 16.7038 28.3405C16.687 28.3682 16.6777 28.3997 16.6768 28.4321C16.6759 28.4645 16.6834 28.4965 16.6985 28.5252C17.0194 29.1216 17.4957 29.6201 18.0769 29.9678C18.6581 30.3155 19.3226 30.4994 19.9999 30.5Z" fill="#333333"/>
    <circle cx="25" cy="13" r="3" fill="#FE0000"/>
</svg>
