<svg width="128" height="128" viewBox="0 0 128 128" fill="none" xmlns="http://www.w3.org/2000/svg">
    <path
        d="M64 10.6667C34.6666 10.6667 10.6666 34.6667 10.6666 64C10.6666 93.3333 34.6666 117.333 64 117.333C93.3333 117.333 117.333 93.3333 117.333 64C117.333 34.6667 93.3333 10.6667 64 10.6667ZM64 106.667C40.48 106.667 21.3333 87.52 21.3333 64C21.3333 40.48 40.48 21.3333 64 21.3333C87.52 21.3333 106.667 40.48 106.667 64C106.667 87.52 87.52 106.667 64 106.667ZM88.48 40.4267L53.3333 75.5733L39.52 61.8133L32 69.3333L53.3333 90.6667L96 48L88.48 40.4267Z"
        fill="#0376B9" />
</svg>
