<svg width="62" height="56" viewBox="0 0 62 56" fill="none" xmlns="http://www.w3.org/2000/svg">
    <g filter="url(#filter0_d_436_449)">
        <g clip-path="url(#clip0_436_449)">
            <rect x="4" width="54" height="48" rx="8" fill="white"/>
            <ellipse cx="46.5" cy="24" rx="25.5" ry="23" fill="url(#paint0_linear_436_449)" fill-opacity="0.2"/>
            <line x1="61.5078" y1="4.55192" x2="9.50777" y2="52.3967" stroke="#91D7E3" stroke-opacity="0.17" stroke-width="1.5"/>
            <path d="M62 5.39833L64.4275 7.60552L12.7625 54.5812L10.335 52.374L62 5.39833Z" fill="url(#paint1_linear_436_449)" fill-opacity="0.4"/>
            <path d="M39 22.999H41C41 17.869 37.127 14 31.99 14V16C36.052 16 39 18.943 39 22.999Z" fill="#1548A2"/>
            <path d="M32 20C34.103 20 35 20.897 35 23H37C37 19.775 35.225 18 32 18V20ZM35.422 25.443C35.2299 25.2683 34.9774 25.1752 34.7178 25.1832C34.4583 25.1912 34.212 25.2998 34.031 25.486L31.638 27.947C31.062 27.837 29.904 27.476 28.712 26.287C27.52 25.094 27.159 23.933 27.052 23.361L29.511 20.967C29.6975 20.7861 29.8062 20.5398 29.8142 20.2802C29.8222 20.0206 29.7289 19.768 29.554 19.576L25.859 15.513C25.6841 15.3204 25.4409 15.2035 25.1812 15.1873C24.9215 15.171 24.6656 15.2567 24.468 15.426L22.298 17.287C22.1251 17.4605 22.022 17.6914 22.008 17.936C21.993 18.186 21.707 24.108 26.299 28.702C30.305 32.707 35.323 33 36.705 33C36.907 33 37.031 32.994 37.064 32.992C37.3086 32.9783 37.5394 32.8747 37.712 32.701L39.572 30.53C39.7415 30.3325 39.8273 30.0768 39.8113 29.817C39.7952 29.5573 39.6785 29.3141 39.486 29.139L35.422 25.443Z" fill="#1548A2"/>
        </g>
    </g>
    <defs>
        <filter id="filter0_d_436_449" x="0" y="0" width="62" height="56" filterUnits="userSpaceOnUse" color-interpolation-filters="sRGB">
            <feFlood flood-opacity="0" result="BackgroundImageFix"/>
            <feColorMatrix in="SourceAlpha" type="matrix" values="0 0 0 0 0 0 0 0 0 0 0 0 0 0 0 0 0 0 127 0" result="hardAlpha"/>
            <feOffset dy="4"/>
            <feGaussianBlur stdDeviation="2"/>
            <feComposite in2="hardAlpha" operator="out"/>
            <feColorMatrix type="matrix" values="0 0 0 0 0.568627 0 0 0 0 0.843137 0 0 0 0 0.890196 0 0 0 0.25 0"/>
            <feBlend mode="normal" in2="BackgroundImageFix" result="effect1_dropShadow_436_449"/>
            <feBlend mode="normal" in="SourceGraphic" in2="effect1_dropShadow_436_449" result="shape"/>
        </filter>
        <linearGradient id="paint0_linear_436_449" x1="56.2581" y1="0.999998" x2="43.3548" y2="34.4922" gradientUnits="userSpaceOnUse">
            <stop stop-color="#91D7E3" stop-opacity="0.4"/>
            <stop offset="1" stop-color="white" stop-opacity="0"/>
        </linearGradient>
        <linearGradient id="paint1_linear_436_449" x1="51.2679" y1="17.3635" x2="16.4" y2="55.7121" gradientUnits="userSpaceOnUse">
            <stop stop-color="#91D7E3" stop-opacity="0.25"/>
            <stop offset="1" stop-color="white" stop-opacity="0.54"/>
        </linearGradient>
        <clipPath id="clip0_436_449">
            <rect x="4" width="54" height="48" rx="8" fill="white"/>
        </clipPath>
    </defs>
</svg>
