<svg width="16" height="16" viewBox="0 0 16 16" fill="none" xmlns="http://www.w3.org/2000/svg">
    <path d="M14.3133 7.72L10.0333 3.44667C9.92426 3.33701 9.7805 3.26866 9.62662 3.25333L3.39329 2.66667C3.29564 2.65769 3.19722 2.67036 3.10503 2.70377C3.01284 2.73719 2.92916 2.79053 2.85995 2.86C2.79049 2.92921 2.73715 3.01289 2.70373 3.10508C2.67031 3.19726 2.65764 3.29569 2.66662 3.39333L3.25329 9.62667C3.26862 9.78054 3.33696 9.9243 3.44662 10.0333L7.71995 14.3133C7.94915 14.5394 8.25803 14.6663 8.57995 14.6667C8.89986 14.666 9.20654 14.539 9.43329 14.3133L14.3133 9.43333C14.54 9.20589 14.6674 8.89783 14.6674 8.57667C14.6674 8.2555 14.54 7.94744 14.3133 7.72ZM7.70662 7.72C7.56682 7.85998 7.38864 7.95534 7.19462 7.99403C7.00061 8.03271 6.79948 8.01298 6.61668 7.93733C6.43388 7.86168 6.27763 7.73351 6.16769 7.56903C6.05775 7.40456 5.99907 7.21117 5.99907 7.01333C5.99907 6.8155 6.05775 6.62211 6.16769 6.45763C6.27763 6.29316 6.43388 6.16498 6.61668 6.08933C6.79948 6.01368 7.00061 5.99395 7.19462 6.03264C7.38864 6.07132 7.56682 6.16669 7.70662 6.30667C7.89145 6.49275 7.99518 6.74439 7.99518 7.00667C7.99518 7.26894 7.89145 7.52058 7.70662 7.70667V7.72Z" fill="#FD5C00"/>
</svg>
