<svg width="48" height="48" viewBox="0 0 48 48" fill="none" xmlns="http://www.w3.org/2000/svg">
    <rect width="48" height="48" rx="4" fill="#FFF3EC"/>
    <g clip-path="url(#clip0_2684_1026)">
        <path fill-rule="evenodd" clip-rule="evenodd" d="M24.0002 10.6667V19.3333C24.0002 19.8638 24.2109 20.3725 24.5859 20.7476C24.961 21.1226 25.4697 21.3333 26.0002 21.3333H34.6668V34.6667C34.6668 35.3739 34.3859 36.0522 33.8858 36.5523C33.3857 37.0524 32.7074 37.3333 32.0002 37.3333H16.0002C15.2929 37.3333 14.6146 37.0524 14.1145 36.5523C13.6144 36.0522 13.3335 35.3739 13.3335 34.6667V13.3333C13.3335 12.6261 13.6144 11.9478 14.1145 11.4477C14.6146 10.9476 15.2929 10.6667 16.0002 10.6667H24.0002ZM28.0002 28H20.0002C19.6465 28 19.3074 28.1405 19.0574 28.3905C18.8073 28.6406 18.6668 28.9797 18.6668 29.3333C18.6668 29.687 18.8073 30.0261 19.0574 30.2761C19.3074 30.5262 19.6465 30.6667 20.0002 30.6667H28.0002C28.3538 30.6667 28.6929 30.5262 28.943 30.2761C29.193 30.0261 29.3335 29.687 29.3335 29.3333C29.3335 28.9797 29.193 28.6406 28.943 28.3905C28.6929 28.1405 28.3538 28 28.0002 28ZM21.3335 22.6667H20.0002C19.6465 22.6667 19.3074 22.8071 19.0574 23.0572C18.8073 23.3072 18.6668 23.6464 18.6668 24C18.6668 24.3536 18.8073 24.6928 19.0574 24.9428C19.3074 25.1929 19.6465 25.3333 20.0002 25.3333H21.3335C21.6871 25.3333 22.0263 25.1929 22.2763 24.9428C22.5264 24.6928 22.6668 24.3536 22.6668 24C22.6668 23.6464 22.5264 23.3072 22.2763 23.0572C22.0263 22.8071 21.6871 22.6667 21.3335 22.6667ZM26.6668 10.724C27.172 10.8311 27.6352 11.0827 28.0002 11.448L33.8855 17.3333C34.2508 17.6983 34.5024 18.1615 34.6095 18.6667H26.6668V10.724Z" fill="url(#paint0_linear_2684_1026)"/>
    </g>
    <defs>
        <linearGradient id="paint0_linear_2684_1026" x1="13.3525" y1="24.0106" x2="34.7373" y2="24.0106" gradientUnits="userSpaceOnUse">
            <stop stop-color="#FD5C00"/>
            <stop offset="1" stop-color="#D40E19"/>
        </linearGradient>
        <clipPath id="clip0_2684_1026">
            <rect width="32" height="32" fill="white" transform="translate(8 8)"/>
        </clipPath>
    </defs>
</svg>
