<svg width="16" height="17" viewBox="0 0 16 17" fill="none" xmlns="http://www.w3.org/2000/svg">
    <path d="M2.66668 13.8334C2.30001 13.8334 1.98623 13.703 1.72534 13.4421C1.46445 13.1812 1.33379 12.8672 1.33334 12.5001V4.50008C1.33334 4.13341 1.46401 3.81964 1.72534 3.55875C1.98668 3.29786 2.30045 3.16719 2.66668 3.16675H13.3333C13.7 3.16675 14.014 3.29741 14.2753 3.55875C14.5367 3.82008 14.6671 4.13386 14.6667 4.50008V12.5001C14.6667 12.8667 14.5362 13.1807 14.2753 13.4421C14.0145 13.7034 13.7005 13.8339 13.3333 13.8334H2.66668ZM8.00001 9.16675L13.3333 5.83341V4.50008L8.00001 7.83342L2.66668 4.50008V5.83341L8.00001 9.16675Z" fill="#333333"/>
</svg>
