<svg width="15" height="20" viewBox="0 0 15 20" fill="none" xmlns="http://www.w3.org/2000/svg">
<path d="M2.77194 0.438993L3.84894 0.0949929C4.85694 -0.227007 5.93494 0.293993 6.36694 1.31199L7.22694 3.33999C7.60194 4.22299 7.39394 5.26199 6.71294 5.90799L4.81994 7.70599C4.93694 8.78199 5.29795 9.84099 5.90394 10.883C6.47977 11.8912 7.25201 12.7736 8.17494 13.478L10.4509 12.718C11.3129 12.431 12.2519 12.762 12.7809 13.539L14.0129 15.349C14.6289 16.253 14.5179 17.499 13.7549 18.265L12.9369 19.086C12.1229 19.903 10.9609 20.2 9.88494 19.864C7.34594 19.072 5.01194 16.721 2.88194 12.811C0.748945 8.89499 -0.00305521 5.57099 0.623945 2.84299C0.887945 1.69499 1.70594 0.779993 2.77394 0.438993" fill="#333333"/>
</svg>
