<svg width="151" height="112" viewBox="0 0 151 112" fill="none" xmlns="http://www.w3.org/2000/svg">
<path d="M80.7414 39.0664C80.7414 35.8533 78.0835 33.1871 74.7262 33.1871C71.4389 33.1871 68.7111 35.7849 68.7111 39.0664C68.7111 41.3224 70.04 43.305 71.9984 44.2621L68.7111 53.5596H74.7262H80.7414L77.454 44.2621C79.4125 43.305 80.7414 41.3224 80.7414 39.0664Z" fill="#1C1E66"/>
<path fill-rule="evenodd" clip-rule="evenodd" d="M91.0231 47.8171L88.0855 45.4927L74.1667 62.5154L64.3046 54.4484L61.9265 57.3197L74.7262 67.7795L91.0231 47.8171Z" fill="url(#paint0_linear_5_559)"/>
<path d="M96.2689 43.3734C95.0799 32.23 85.4276 28.8801 85.4276 28.8801C84.5184 28.47 83.3992 28.1965 82.5599 27.9914C81.3009 27.7179 80.8113 27.5812 80.6714 27.5129C78.783 26.3507 78.783 23.5477 78.783 23.5477C82.42 20.4713 83.1195 15.9593 83.1195 15.9593C84.0987 15.2073 84.2386 14.1818 84.2386 14.1818L84.5184 12.1992C84.7981 10.2167 83.3993 10.0116 83.3993 10.0116C82.8397 1.39767 77.7338 0.167113 75.6355 0.0303842C74.7262 -0.0379802 73.9568 0.0303842 73.9568 0.0303842C72.6279 0.0987485 69.8302 0.577299 67.9417 3.4486H66.8226V4.54243H67.3122C67.2422 4.81589 67.1023 5.08935 66.9625 5.43117H65.1439V7.34537H66.4029C66.1931 8.16574 66.1231 9.05448 66.0532 10.0799C66.0532 10.0799 64.6543 10.285 64.9341 12.2676L65.2139 14.2502C65.2139 14.2502 65.4237 15.2073 66.333 16.0276C66.333 16.0276 67.0324 20.5397 70.6695 23.6161C70.6695 23.6161 70.6695 26.3507 68.781 27.5129C68.5712 27.5812 68.0816 27.7179 66.8925 27.9914C66.0532 28.1965 64.9341 28.47 64.0248 28.8801C64.0248 28.8801 54.3726 32.23 53.1835 43.3734H68.2914C67.3821 42.1428 66.8925 40.6388 66.8925 39.0664C66.8925 34.8962 70.3198 31.478 74.5863 31.478H74.6563C78.9228 31.478 82.42 34.8962 82.42 39.0664C82.42 40.6388 81.9304 42.1428 81.0212 43.3734H96.2689ZM68.5012 4.33734H70.3198V6.11481H68.5012V4.33734ZM71.0891 7.07191V7.96065H70.1799V7.07191H71.0891ZM71.3689 13.7033H68.7111V11.1054H66.8925V9.32794H68.7111V11.1054H71.3689V13.7033Z" fill="url(#paint1_linear_5_559)"/>
<path d="M65.9133 2.42316H63.6052V4.67918H65.9133V2.42316Z" fill="url(#paint2_linear_5_559)"/>
<path d="M62.7658 3.24347H61.0172V4.95258H62.7658V3.24347Z" fill="url(#paint3_linear_5_559)"/>
<path d="M63.6052 0.782379H62.556V1.80784H63.6052V0.782379Z" fill="url(#paint4_linear_5_559)"/>
<path d="M64.3046 5.70462H61.3669V8.57592H64.3046V5.70462Z" fill="url(#paint5_linear_5_559)"/>
<path d="M16.383 91.8146H6.23014V98.186H17.5367V103.204H0V76.2527H17.0175V81.2708H6.23014V86.8528H16.383V91.8146Z" fill="#1C1E66"/>
<path d="M32.939 103.204L32.5929 101.231H32.4775C31.1507 102.809 29.1317 103.655 26.7665 103.655C22.7285 103.655 20.3056 100.78 20.3056 97.6785C20.3056 92.6039 24.9782 90.1794 32.016 90.1794V89.8975C32.016 88.8826 31.4391 87.3603 28.3817 87.3603C26.3627 87.3603 24.1706 88.0369 22.8438 88.8262L21.6901 84.9357C23.0746 84.2028 25.8435 83.2442 29.4778 83.2442C36.1694 83.2442 38.2461 87.0783 38.2461 91.7018V98.4679C38.2461 100.329 38.3038 102.133 38.5346 103.204H32.939ZM32.2467 93.9572C28.9586 93.9008 26.4204 94.6901 26.4204 97.0583C26.4204 98.637 27.4588 99.37 28.9009 99.37C30.4584 99.37 31.7276 98.3551 32.1314 97.1146C32.189 96.7763 32.2467 96.438 32.2467 96.0997V93.9572Z" fill="#1C1E66"/>
<path d="M43.1495 97.904C44.3032 98.5806 46.6684 99.37 48.5143 99.37C50.418 99.37 51.1679 98.7498 51.1679 97.7349C51.1679 96.72 50.5333 96.2689 48.2259 95.4795C44.0725 94.1263 42.5149 91.9273 42.5149 89.6156C42.5149 86.007 45.6877 83.2442 50.6487 83.2442C52.9562 83.2442 55.0906 83.7517 56.302 84.3719L55.2059 88.5443C54.283 88.0369 52.6101 87.4166 50.8795 87.4166C49.3796 87.4166 48.5143 88.0369 48.5143 88.9954C48.5143 89.8975 49.2642 90.405 51.7448 91.2507C55.5521 92.5476 57.1673 94.4082 57.1673 97.2838C57.1673 100.892 54.2253 103.599 48.5143 103.599C45.9184 103.599 43.5533 103.035 42.0534 102.246L43.1495 97.904Z" fill="#1C1E66"/>
<path d="M65.5895 83.6389L68.5892 93.2242C68.9353 94.4083 69.3391 95.8178 69.5699 96.8328H69.6852C69.9737 95.8178 70.3198 94.2955 70.6082 93.2242L73.0888 83.6389H79.7804L75.0501 96.5508C72.1658 104.275 70.2621 107.433 68.0123 109.35C65.8203 111.211 63.5705 111.831 62.0129 112L60.6862 106.869C61.4361 106.756 62.4168 106.362 63.3974 105.854C64.3204 105.347 65.3588 104.388 65.9933 103.43C66.2241 103.148 66.3394 102.809 66.3394 102.528C66.3394 102.302 66.2818 102.02 66.051 101.513L58.7248 83.6389H65.5895Z" fill="#1C1E66"/>
<path d="M82.4916 76.2526H88.6641V88.1496H88.7795C89.414 87.1347 90.0486 86.1762 90.6831 85.2177L96.9133 76.2526H104.586L95.4711 87.6986L105.105 103.148H97.8362L91.0869 91.5326L88.7218 94.3518V103.148H82.5493V76.2526H82.4916Z" fill="url(#paint6_linear_5_559)"/>
<path d="M113.354 103.204V92.1529L104.643 76.2526H111.739L114.565 82.7368C115.431 84.7102 116.007 86.1198 116.7 87.8677H116.757C117.392 86.1762 118.027 84.6538 118.834 82.7368L121.603 76.2526H128.583L119.526 91.9837V103.204H113.354Z" fill="url(#paint7_linear_5_559)"/>
<path d="M149.985 102.471C148.831 103.035 146.293 103.655 142.889 103.655C133.371 103.655 128.468 97.8476 128.468 90.1794C128.468 80.9889 135.159 75.858 143.524 75.858C146.754 75.858 149.235 76.4782 150.331 77.042L149.004 81.891C147.735 81.3836 146.004 80.8761 143.755 80.8761C138.794 80.8761 134.986 83.8081 134.986 89.7848C134.986 95.1976 138.274 98.5806 143.812 98.5806C145.716 98.5806 147.793 98.1859 149.004 97.6785L149.985 102.471Z" fill="url(#paint8_linear_5_559)"/>
<defs>
<linearGradient id="paint0_linear_5_559" x1="61.9125" y1="56.6354" x2="91.0511" y2="56.6354" gradientUnits="userSpaceOnUse">
<stop stop-color="#FD5C00"/>
<stop offset="1" stop-color="#D40E19"/>
</linearGradient>
<linearGradient id="paint1_linear_5_559" x1="93.3683" y1="21.5453" x2="62.9147" y2="22.1865" gradientUnits="userSpaceOnUse">
<stop stop-color="#1C1E66"/>
<stop offset="1" stop-color="#DC1E14"/>
</linearGradient>
<linearGradient id="paint2_linear_5_559" x1="92.9767" y1="2.94067" x2="62.523" y2="3.58184" gradientUnits="userSpaceOnUse">
<stop stop-color="#1C1E66"/>
<stop offset="1" stop-color="#DC1E14"/>
</linearGradient>
<linearGradient id="paint3_linear_5_559" x1="92.9886" y1="3.51146" x2="62.5349" y2="4.1519" gradientUnits="userSpaceOnUse">
<stop stop-color="#1C1E66"/>
<stop offset="1" stop-color="#DC1E14"/>
</linearGradient>
<linearGradient id="paint4_linear_5_559" x1="92.9284" y1="0.657273" x2="62.4748" y2="1.29844" gradientUnits="userSpaceOnUse">
<stop stop-color="#1C1E66"/>
<stop offset="1" stop-color="#DC1E14"/>
</linearGradient>
<linearGradient id="paint5_linear_5_559" x1="93.0536" y1="6.57968" x2="62.5993" y2="7.22085" gradientUnits="userSpaceOnUse">
<stop stop-color="#1C1E66"/>
<stop offset="1" stop-color="#DC1E14"/>
</linearGradient>
<linearGradient id="paint6_linear_5_559" x1="82.5078" y1="89.7391" x2="105.074" y2="89.7391" gradientUnits="userSpaceOnUse">
<stop stop-color="#FD5C00"/>
<stop offset="1" stop-color="#D40E19"/>
</linearGradient>
<linearGradient id="paint7_linear_5_559" x1="104.665" y1="89.7391" x2="128.662" y2="89.7391" gradientUnits="userSpaceOnUse">
<stop stop-color="#FD5C00"/>
<stop offset="1" stop-color="#D40E19"/>
</linearGradient>
<linearGradient id="paint8_linear_5_559" x1="128.457" y1="89.7188" x2="150.288" y2="89.7188" gradientUnits="userSpaceOnUse">
<stop stop-color="#FD5C00"/>
<stop offset="1" stop-color="#D40E19"/>
</linearGradient>
</defs>
</svg>
