<svg width="12" height="15" viewBox="0 0 12 15" fill="none" xmlns="http://www.w3.org/2000/svg">
<path d="M11.7528 10.1659C11.7009 10.1034 11.6499 10.0409 11.5999 9.98063C10.9124 9.14906 10.4965 8.64719 10.4965 6.29313C10.4965 5.07438 10.2049 4.07437 9.63025 3.32437C9.2065 2.77031 8.63369 2.35 7.87869 2.03938C7.86898 2.03397 7.8603 2.02688 7.85307 2.01844C7.58151 1.10906 6.83838 0.5 6.00026 0.5C5.16213 0.5 4.41932 1.10906 4.14776 2.0175C4.14051 2.02563 4.13195 2.0325 4.12244 2.03781C2.36057 2.76312 1.50432 4.15469 1.50432 6.29219C1.50432 8.64719 1.08901 9.14906 0.400881 9.97969C0.350881 10.04 0.299943 10.1012 0.248068 10.165C0.114069 10.3266 0.0291687 10.5232 0.00341628 10.7316C-0.0223361 10.9399 0.0121369 11.1513 0.102756 11.3406C0.295568 11.7469 0.706506 11.9991 1.17557 11.9991H10.8284C11.2953 11.9991 11.7034 11.7472 11.8968 11.3428C11.9878 11.1534 12.0226 10.9419 11.9971 10.7333C11.9716 10.5247 11.8868 10.3278 11.7528 10.1659ZM6.00026 14.5C6.45183 14.4996 6.89489 14.3771 7.28243 14.1453C7.66998 13.9135 7.98756 13.5811 8.2015 13.1834C8.21158 13.1644 8.21656 13.143 8.21596 13.1215C8.21535 13.0999 8.20918 13.0789 8.19805 13.0604C8.18691 13.042 8.17119 13.0267 8.15242 13.0161C8.13364 13.0055 8.11244 13 8.09088 13H3.91026C3.88867 12.9999 3.86743 13.0054 3.84861 13.016C3.82979 13.0266 3.81403 13.0418 3.80286 13.0603C3.79169 13.0788 3.78549 13.0998 3.78487 13.1214C3.78425 13.143 3.78923 13.1644 3.79932 13.1834C4.01324 13.5811 4.33077 13.9134 4.71826 14.1452C5.10574 14.377 5.54873 14.4996 6.00026 14.5Z" fill="#FE0000"/>
</svg>
