<svg width="22" height="35" viewBox="0 0 22 35" fill="none" xmlns="http://www.w3.org/2000/svg">
    <path d="M14.0715 20.1433C14.0715 18.5026 12.7143 17.1412 11 17.1412C9.32148 17.1412 7.92862 18.4677 7.92862 20.1433C7.92862 21.2952 8.60719 22.3076 9.60719 22.7963L7.92862 27.5437H11H14.0715L12.3929 22.7963C13.3929 22.3076 14.0715 21.2952 14.0715 20.1433Z" fill="#1C1E66"/>
    <path fill-rule="evenodd" clip-rule="evenodd" d="M19.3215 24.6115L17.8215 23.4247L10.7143 32.1167L5.67861 27.9976L4.46432 29.4637L11 34.8046L19.3215 24.6115Z" fill="url(#paint0_linear_696_261)"/>
    <path d="M22 22.3425C21.3929 16.6525 16.4643 14.942 16.4643 14.942C16 14.7326 15.4286 14.5929 15 14.4882C14.3571 14.3486 14.1071 14.2788 14.0357 14.2439C13.0714 13.6504 13.0714 12.2192 13.0714 12.2192C14.9286 10.6484 15.2857 8.34445 15.2857 8.34445C15.7857 7.96046 15.8571 7.43685 15.8571 7.43685L16 6.42452C16.1429 5.4122 15.4286 5.30747 15.4286 5.30747C15.1429 0.90909 12.5357 0.280749 11.4643 0.210934C11 0.176026 10.6071 0.210934 10.6071 0.210934C9.92857 0.245842 8.5 0.490196 7.53571 1.95632H6.96429V2.51485H7.21429C7.17857 2.65448 7.10714 2.79411 7.03571 2.96865H6.10714V3.94607H6.75C6.64286 4.36496 6.60714 4.81876 6.57143 5.34238C6.57143 5.34238 5.85714 5.4471 6 6.45943L6.14286 7.47176C6.14286 7.47176 6.25 7.96046 6.71429 8.37936C6.71429 8.37936 7.07143 10.6833 8.92857 12.2541C8.92857 12.2541 8.92857 13.6504 7.96429 14.2439C7.85714 14.2788 7.60714 14.3486 7 14.4882C6.57143 14.5929 6 14.7326 5.53571 14.942C5.53571 14.942 0.607143 16.6525 0 22.3425H7.71429C7.25 21.7141 7 20.9462 7 20.1433C7 18.0139 8.75 16.2685 10.9286 16.2685H10.9643C13.1429 16.2685 14.9286 18.0139 14.9286 20.1433C14.9286 20.9462 14.6786 21.7141 14.2143 22.3425H22ZM7.82143 2.41013H8.75V3.31773H7.82143V2.41013ZM9.14286 3.80644V4.26024H8.67857V3.80644H9.14286ZM9.28571 7.19249H7.92857V5.866H7V4.95839H7.92857V5.866H9.28571V7.19249Z" fill="url(#paint1_linear_696_261)"/>
    <path d="M6.50004 1.43272H5.32147V2.58468H6.50004V1.43272Z" fill="url(#paint2_linear_696_261)"/>
    <path d="M4.89286 1.85159H4V2.72429H4.89286V1.85159Z" fill="url(#paint3_linear_696_261)"/>
    <path d="M5.32142 0.594925H4.78571V1.11854H5.32142V0.594925Z" fill="url(#paint4_linear_696_261)"/>
    <path d="M5.67859 3.10829H4.17859V4.57442H5.67859V3.10829Z" fill="url(#paint5_linear_696_261)"/>
    <defs>
        <linearGradient id="paint0_linear_696_261" x1="4.45718" y1="29.1143" x2="19.3358" y2="29.1143" gradientUnits="userSpaceOnUse">
            <stop stop-color="#FD5C00"/>
            <stop offset="1" stop-color="#D40E19"/>
        </linearGradient>
        <linearGradient id="paint1_linear_696_261" x1="20.5189" y1="11.1968" x2="4.96888" y2="11.5242" gradientUnits="userSpaceOnUse">
            <stop stop-color="#1C1E66"/>
            <stop offset="1" stop-color="#DC1E14"/>
        </linearGradient>
        <linearGradient id="paint2_linear_696_261" x1="20.319" y1="1.69698" x2="4.76892" y2="2.02436" gradientUnits="userSpaceOnUse">
            <stop stop-color="#1C1E66"/>
            <stop offset="1" stop-color="#DC1E14"/>
        </linearGradient>
        <linearGradient id="paint3_linear_696_261" x1="20.325" y1="1.98843" x2="4.77495" y2="2.31545" gradientUnits="userSpaceOnUse">
            <stop stop-color="#1C1E66"/>
            <stop offset="1" stop-color="#DC1E14"/>
        </linearGradient>
        <linearGradient id="paint4_linear_696_261" x1="20.2943" y1="0.531044" x2="4.74423" y2="0.858431" gradientUnits="userSpaceOnUse">
            <stop stop-color="#1C1E66"/>
            <stop offset="1" stop-color="#DC1E14"/>
        </linearGradient>
        <linearGradient id="paint5_linear_696_261" x1="20.3582" y1="3.55511" x2="4.80783" y2="3.8825" gradientUnits="userSpaceOnUse">
            <stop stop-color="#1C1E66"/>
            <stop offset="1" stop-color="#DC1E14"/>
        </linearGradient>
    </defs>
</svg>
