<svg width="294" height="171" viewBox="0 0 294 171" fill="none" xmlns="http://www.w3.org/2000/svg">
    <path d="M269.944 169.464C269.944 169.464 326.32 83.1144 266.467 59.4973C251.391 53.548 246.131 -29.7348 179.164 11.9066C152.532 28.4666 114.185 8.42679 77.4616 19.3801C43.7352 29.4396 42.9598 58.4569 47.224 68.9028C51.8829 80.3175 33.3032 93.9639 14.273 103.337C-15.5763 118.039 6.37313 169.708 34.5719 169.955C62.7718 170.202 269.944 169.464 269.944 169.464Z" fill="#FFF3EC"/>
    <path d="M201.954 47.9499C201.954 47.9499 222.99 14.0067 234.21 17.8559C245.429 21.705 206.861 48.6499 206.861 48.6499L201.954 47.9499Z" fill="#A8D29F"/>
    <path d="M219.484 46.5498C219.484 46.5498 234.21 31.5034 241.223 35.0025C248.234 38.5016 237.015 45.1498 219.484 46.5498Z" fill="#A8D29F"/>
    <path d="M80.5513 169.502L232.235 169.736C232.235 169.736 221.25 161.105 213.303 164.138C205.357 167.17 189.698 165.071 187.595 158.773C185.492 152.475 177.778 145.943 157.913 145.011C138.047 144.077 129.165 155.275 119.349 158.307C113.273 160.185 107.825 159.916 104.555 159.44C100.532 144.954 90.4868 116.363 73.9802 116.886C51.8913 117.586 70.825 126.685 77.4862 130.884C81.7386 133.564 90.7045 148.506 96.6343 158.964C94.1837 159.205 92.103 159.657 90.3377 160.245C86.0124 152.729 77.8293 141.26 68.37 141.732C54.3452 142.432 63.812 150.48 71.1746 154.68C75.0001 156.861 80.9063 159.987 85.6992 162.487C81.1369 165.586 80.5513 169.502 80.5513 169.502Z" fill="#A8D29F"/>
    <path d="M278.216 170.087H6.74411C6.56715 170.087 6.42236 169.942 6.42236 169.766C6.42236 169.589 6.56715 169.445 6.74411 169.445H278.217C278.394 169.445 278.538 169.589 278.538 169.766C278.537 169.942 278.393 170.087 278.216 170.087Z" fill="#202F4E"/>
    <path d="M113.953 13.6953L101.833 15.7494L109.761 10.0431L110.218 11.7932L113.191 12.2492L113.953 13.6953Z" fill="#456AA3"/>
    <path d="M101.833 15.7494L111.819 10.2711L121.728 9.51007L101.833 15.7494Z" fill="#ADCBF9"/>
    <path d="M109.761 10.0431L101.833 15.7494L107.855 7L109.761 10.0431Z" fill="#ADCBF9"/>
    <path d="M60.731 43.2049L72.2022 47.6149L65.5646 40.454L64.7699 42.0788L61.7648 41.9386L60.731 43.2049Z" fill="#456AA3"/>
    <path d="M72.2022 47.6149L63.5022 40.2709L53.9399 37.5661L72.2022 47.6149Z" fill="#ADCBF9"/>
    <path d="M65.5645 40.454L72.2021 47.6149L68.0365 37.8487L65.5645 40.454Z" fill="#ADCBF9"/>
    <path d="M283.04 64.2498H255.504C254.859 64.2498 254.332 64.7764 254.332 65.4198V77.3097C254.332 77.953 254.859 78.4796 255.504 78.4796H257.066V81.5976L261.938 78.4796H283.041C283.685 78.4796 284.213 77.953 284.213 77.3097V65.4187C284.211 64.7765 283.684 64.2498 283.04 64.2498Z" fill="#F7C78F"/>
    <path d="M280.305 69.0248H258.237C257.807 69.0248 257.457 68.6737 257.457 68.2456C257.457 67.8164 257.808 67.4663 258.237 67.4663H280.305C280.735 67.4663 281.085 67.8174 281.085 68.2456C281.087 68.6737 280.735 69.0248 280.305 69.0248Z" fill="#E2923D"/>
    <path d="M280.305 71.8507H258.237C257.807 71.8507 257.457 71.4996 257.457 71.0714C257.457 70.6422 257.808 70.2922 258.237 70.2922H280.305C280.735 70.2922 281.085 70.6433 281.085 71.0714C281.087 71.5006 280.735 71.8507 280.305 71.8507Z" fill="#E2923D"/>
    <path d="M280.305 74.6776H258.237C257.807 74.6776 257.457 74.3265 257.457 73.8983C257.457 73.4691 257.808 73.1191 258.237 73.1191H280.305C280.735 73.1191 281.085 73.4702 281.085 73.8983C281.087 74.3265 280.735 74.6776 280.305 74.6776Z" fill="#E2923D"/>
    <path d="M13.5804 29.2566H41.1164C41.761 29.2566 42.2887 29.7832 42.2887 30.4265V42.3164C42.2887 42.9597 41.761 43.4864 41.1164 43.4864H39.5538V46.6044L34.6826 43.4864H13.5804C12.9359 43.4864 12.4082 42.9597 12.4082 42.3164V30.4265C12.4093 29.7832 12.9359 29.2566 13.5804 29.2566Z" fill="#F7C78F"/>
    <path d="M16.314 34.0316H38.3814C38.8115 34.0316 39.1622 33.6805 39.1622 33.2524C39.1622 32.8231 38.8104 32.4731 38.3814 32.4731H16.314C15.8839 32.4731 15.5332 32.8242 15.5332 33.2524C15.5332 33.6816 15.885 34.0316 16.314 34.0316Z" fill="#E2923D"/>
    <path d="M16.314 36.8585H38.3814C38.8115 36.8585 39.1622 36.5074 39.1622 36.0793C39.1622 35.65 38.8104 35.3 38.3814 35.3H16.314C15.8839 35.3 15.5332 35.6511 15.5332 36.0793C15.5332 36.5074 15.885 36.8585 16.314 36.8585Z" fill="#E2923D"/>
    <path d="M16.314 39.6843H38.3814C38.8115 39.6843 39.1622 39.3333 39.1622 38.9051C39.1622 38.4759 38.8104 38.1259 38.3814 38.1259H16.314C15.8839 38.1259 15.5332 38.4769 15.5332 38.9051C15.5332 39.3333 15.885 39.6843 16.314 39.6843Z" fill="#E2923D"/>
    <path d="M173.591 85.3226L180.272 164.618C180.272 164.618 180.973 169.425 177.389 169.434C171.499 169.448 148.072 169.434 148.072 169.434C148.072 169.434 152.505 168.433 152.451 166.182C152.388 163.529 144.641 84.5723 144.641 84.5723L173.591 85.3226Z" fill="#D86713"/>
    <path d="M175.443 167.995C169.706 168.069 147.331 167.999 146.171 167.995C146.607 167.995 149.972 167.913 150.448 165.385C150.486 165.187 150.505 164.973 150.504 164.743C150.502 164.249 150.23 161.112 149.788 156.331C149.393 152.044 148.861 146.437 148.265 140.229C145.957 116.177 142.694 83.1347 142.694 83.1347L171.643 83.8851L176.391 140.229L177.317 151.227L178.151 161.12L178.324 163.181C178.325 163.181 179.143 167.948 175.443 167.995Z" fill="#EE9849"/>
    <path d="M243.893 42.1731L227.617 107.423L225.388 116.36L217.808 146.751H76.9717L104.912 42.1731H243.893Z" fill="#F1A34F"/>
    <path d="M243.893 42.173L246.149 42.9233L220.807 149.022L217.807 146.752L243.893 42.173Z" fill="#EE9849"/>
    <path d="M220.807 149.022H80.8369L76.9717 146.752H217.807L220.807 149.022Z" fill="#D86713"/>
    <path d="M171.653 168.026H141.348V169.464H171.653V168.026Z" fill="#F1A34F"/>
    <path d="M177.507 148.976L177.317 151.225L177.31 151.308C177.31 151.308 157.623 153.192 149.787 156.33C149.589 154.181 149.357 151.699 149.098 148.976H177.507Z" fill="#D86713"/>
    <path opacity="0.4" d="M175.443 167.995C169.706 168.069 147.331 167.999 146.171 167.995C146.607 167.995 149.972 167.913 150.448 165.385C152.753 165.503 165.566 165.911 178.151 161.119L178.324 163.18C178.326 163.181 179.143 167.948 175.443 167.995Z" fill="#D86713"/>
    <path opacity="0.4" d="M222.746 126.221L217.625 146.751H170.208C190.257 140.394 199.747 131.095 203.572 126.221H222.746Z" fill="#D86713"/>
    <path d="M104.913 42.1719L82.4244 126.221H82.3633L104.716 42.1719H104.913Z" fill="#9ED9F0"/>
    <path d="M242.831 43.5549L222.746 126.221H84.1382L106.646 43.5549H242.831Z" fill="#91BDFF"/>
    <path d="M82.4242 126.221H84.138L83.7948 127.481L82.1367 127.294L82.4242 126.221Z" fill="#F1A34F"/>
    <path d="M244.119 42.1719V43.5549H242.832L243.167 42.1719H244.119Z" fill="#F1A34F"/>
    <path d="M107.792 120.106H159.449L176.762 50.8025H125.106L107.792 120.106Z" fill="white"/>
    <g opacity="0.5">
        <path d="M126.022 82.7451H160.241C160.665 82.7451 161.099 82.3983 161.205 81.9755L161.276 81.6865C161.383 81.2626 161.122 80.9169 160.697 80.9169H126.479C126.054 80.9169 125.621 81.2637 125.515 81.6865L125.444 81.9755C125.337 82.3983 125.598 82.7451 126.022 82.7451Z" fill="#699DEE"/>
        <path d="M129.066 70.5587H163.285C163.71 70.5587 164.143 70.2119 164.248 69.7891L164.32 69.5001C164.426 69.0773 164.166 68.7305 163.741 68.7305H129.521C129.097 68.7305 128.663 69.0773 128.558 69.5001L128.486 69.7891C128.381 70.2119 128.642 70.5587 129.066 70.5587Z" fill="#699DEE"/>
        <path d="M128.009 74.7921H162.229C162.654 74.7921 163.087 74.4453 163.192 74.0225L163.264 73.7335C163.37 73.3096 163.109 72.9639 162.685 72.9639H128.465C128.041 72.9639 127.607 73.3107 127.502 73.7335L127.43 74.0225C127.324 74.4453 127.584 74.7921 128.009 74.7921Z" fill="#699DEE"/>
        <path d="M127.015 78.7686H161.235C161.658 78.7686 162.093 78.4218 162.198 77.999L162.27 77.71C162.376 77.2861 162.115 76.9404 161.691 76.9404H127.471C127.046 76.9404 126.613 77.2872 126.508 77.71L126.436 77.999C126.331 78.4218 126.591 78.7686 127.015 78.7686Z" fill="#699DEE"/>
        <path d="M123.997 90.849H158.216C158.64 90.849 159.074 90.5022 159.179 90.0794L159.251 89.7904C159.357 89.3665 159.096 89.0208 158.671 89.0208H124.453C124.028 89.0208 123.595 89.3676 123.49 89.7904L123.418 90.0794C123.313 90.5033 123.573 90.849 123.997 90.849Z" fill="#699DEE"/>
        <path d="M124.991 86.8725H159.211C159.634 86.8725 160.069 86.5257 160.174 86.1029L160.246 85.8139C160.352 85.39 160.091 85.0443 159.667 85.0443H125.447C125.022 85.0443 124.589 85.3911 124.484 85.8139L124.412 86.1029C124.306 86.5268 124.566 86.8725 124.991 86.8725Z" fill="#699DEE"/>
        <path d="M121.02 103.346H129.33C129.834 103.346 130.349 102.935 130.475 102.432C130.6 101.929 130.291 101.518 129.787 101.518H121.476C120.972 101.518 120.458 101.929 120.332 102.432C120.207 102.935 120.517 103.346 121.02 103.346Z" fill="#699DEE"/>
        <path d="M146.482 103.346H154.793C155.297 103.346 155.812 102.935 155.938 102.432C156.063 101.929 155.754 101.518 155.25 101.518H146.938C146.434 101.518 145.92 101.929 145.794 102.432C145.669 102.935 145.977 103.346 146.482 103.346Z" fill="#699DEE"/>
    </g>
    <path d="M128.17 113.183H116.05C115.73 113.183 115.458 113.059 115.282 112.834C115.098 112.599 115.043 112.288 115.126 111.956L116 108.458C116.166 107.794 116.842 107.255 117.507 107.255H129.627C129.947 107.255 130.219 107.379 130.395 107.604C130.579 107.838 130.634 108.15 130.551 108.482L129.677 111.98C129.511 112.643 128.835 113.183 128.17 113.183ZM117.505 107.353C116.882 107.353 116.248 107.86 116.093 108.483L115.219 111.981C115.144 112.283 115.192 112.565 115.357 112.775C115.515 112.976 115.76 113.086 116.049 113.086H128.169C128.792 113.086 129.426 112.58 129.581 111.957L130.455 108.459C130.53 108.157 130.482 107.875 130.317 107.665C130.159 107.464 129.914 107.353 129.625 107.353H117.505Z" fill="#476BA7"/>
    <path d="M153.674 113.183H141.554C141.234 113.183 140.962 113.059 140.786 112.834C140.602 112.599 140.547 112.288 140.63 111.956L141.504 108.458C141.669 107.794 142.346 107.255 143.011 107.255H155.131C155.451 107.255 155.723 107.379 155.899 107.604C156.083 107.838 156.138 108.15 156.055 108.482L155.181 111.98C155.015 112.643 154.339 113.183 153.674 113.183ZM143.01 107.353C142.387 107.353 141.753 107.86 141.598 108.483L140.724 111.981C140.648 112.283 140.697 112.565 140.862 112.775C141.02 112.976 141.265 113.086 141.554 113.086H153.674C154.297 113.086 154.931 112.58 155.086 111.957L155.96 108.459C156.035 108.157 155.987 107.875 155.822 107.665C155.665 107.464 155.42 107.353 155.13 107.353H143.01Z" fill="#476BA7"/>
    <path d="M156.299 106.792C154.458 107.551 152.629 108.382 150.818 109.281C150.889 109.079 150.954 108.875 151.011 108.672C151.057 108.509 150.836 108.4 150.7 108.58C150.64 108.659 150.575 108.735 150.508 108.808C150.554 108.662 150.381 108.581 150.233 108.687C150.223 108.695 150.215 108.702 150.205 108.71C150.277 108.514 149.971 108.484 149.857 108.674L149.686 108.958C149.542 109.129 149.343 109.26 149.137 109.324C149.094 109.231 149.066 109.129 149.057 109.019C149.049 108.935 148.989 108.89 148.915 108.889C148.912 108.79 148.822 108.731 148.689 108.79C148.527 108.862 148.385 108.97 148.272 109.097C148.18 108.928 147.89 109.049 147.733 109.212C147.737 109.202 147.742 109.193 147.746 109.184C147.82 109.026 147.683 108.848 147.498 109.006C147.17 109.289 146.932 109.643 146.82 109.997C146.712 110.117 146.597 110.233 146.474 110.339C146.414 110.39 146.133 110.65 146.069 110.628C146.008 110.606 146.04 110.445 146.068 110.331C146.077 110.317 146.088 110.303 146.098 110.289C146.331 109.965 147.458 108.438 146.664 108.452C146.58 108.453 146.494 108.508 146.443 108.585C146.153 109.031 145.929 109.501 145.793 109.968C145.767 110.058 145.731 110.174 145.701 110.296C145.678 110.327 145.655 110.358 145.631 110.388C145.316 110.8 144.88 111.395 144.37 111.599C144.323 110.953 144.649 110.189 144.896 109.511C145.003 109.219 145.114 108.927 145.229 108.636C145.263 108.629 145.3 108.611 145.338 108.579C145.891 108.115 146.115 107.428 145.866 106.966C145.794 106.833 145.574 106.954 145.511 107.095C145.131 107.946 144.785 108.801 144.478 109.657C144.206 110.416 143.896 111.219 144.009 111.919C144.021 111.992 144.108 112.02 144.189 112.002C144.771 111.876 145.278 111.358 145.687 110.843C145.717 110.909 145.767 110.96 145.847 110.983C146.118 111.063 146.488 110.763 146.754 110.511C146.759 110.599 146.775 110.684 146.801 110.767C146.83 110.856 146.922 110.876 147.031 110.832C147.283 110.732 147.518 110.57 147.716 110.375C147.98 110.294 148.209 110.078 148.402 109.826C148.524 109.72 148.636 109.608 148.74 109.49C148.763 109.555 148.793 109.614 148.835 109.662C148.933 109.776 149.183 109.673 149.343 109.6C149.496 109.531 149.637 109.436 149.762 109.325C149.86 109.318 149.957 109.29 150.051 109.247C150.068 109.275 150.09 109.299 150.119 109.319C150.219 109.385 150.336 109.358 150.452 109.288C150.426 109.361 150.399 109.435 150.37 109.509C150.107 109.642 149.843 109.777 149.579 109.913C149.405 110.003 149.364 110.268 149.56 110.253C149.802 110.235 150.043 110.217 150.286 110.197C150.396 110.189 150.482 110.119 150.529 110.014C150.572 109.918 150.613 109.821 150.652 109.724C152.545 108.778 154.458 107.906 156.383 107.111C156.625 107.007 156.544 106.691 156.299 106.792ZM147.864 109.572C147.848 109.623 147.828 109.674 147.804 109.723C147.788 109.757 147.77 109.791 147.75 109.824C147.777 109.739 147.815 109.654 147.864 109.572ZM147.331 110.025C147.311 110.127 147.287 110.227 147.325 110.3C147.267 110.344 147.205 110.385 147.143 110.42C147.131 110.312 147.139 110.197 147.164 110.082C147.247 109.983 147.327 109.881 147.4 109.777C147.37 109.863 147.346 109.947 147.331 110.025Z" fill="#365DA2"/>
    <path d="M122.422 105.666C121.77 106.875 121.406 108.117 120.876 109.339C120.618 109.935 120.315 110.53 119.919 111.093C119.645 111.485 119.045 112.337 118.538 112.153C118.411 112.107 118.376 111.999 118.418 111.851C118.426 111.819 118.438 111.785 118.45 111.752C118.514 111.79 118.613 111.774 118.714 111.721C118.878 111.633 119.016 111.459 119.088 111.304C119.164 111.139 119.152 110.968 119.02 110.895C118.903 110.831 118.729 110.888 118.606 111.011C118.469 111.147 118.407 111.321 118.341 111.479C118.259 111.671 118.15 111.88 118.162 112.066C118.18 112.346 118.482 112.444 118.777 112.38C119.135 112.302 119.454 111.989 119.694 111.705C119.978 111.368 120.228 111.011 120.446 110.647C120.888 109.905 121.201 109.133 121.495 108.369C121.836 107.485 122.153 106.594 122.622 105.725C122.698 105.584 122.5 105.524 122.422 105.666ZM118.894 111.155C118.917 111.241 118.833 111.353 118.765 111.432C118.741 111.46 118.719 111.485 118.688 111.508C118.671 111.52 118.653 111.532 118.633 111.54C118.626 111.541 118.621 111.542 118.616 111.544C118.602 111.517 118.577 111.506 118.548 111.505C118.577 111.441 118.606 111.378 118.634 111.318C118.677 111.229 118.848 110.977 118.894 111.155Z" fill="#365DA2"/>
    <path d="M126.787 109.443C126.654 109.512 126.512 109.593 126.373 109.614C126.34 109.619 126.303 109.622 126.267 109.617C126.365 109.519 126.456 109.404 126.472 109.297C126.497 109.122 126.303 109.082 126.14 109.172C125.993 109.252 125.899 109.415 125.889 109.55C125.885 109.597 125.893 109.639 125.909 109.674C125.767 109.776 125.525 109.915 125.375 109.888C125.565 109.757 125.735 109.592 125.866 109.403C125.891 109.368 125.893 109.319 125.874 109.293C125.791 109.185 125.624 109.177 125.46 109.261C125.284 109.351 125.173 109.526 125.105 109.688C125.082 109.742 125.066 109.795 125.06 109.844C124.886 109.923 124.703 109.966 124.534 109.963C124.534 109.962 124.534 109.961 124.534 109.96C124.589 109.908 124.643 109.857 124.696 109.805C124.775 109.725 124.728 109.644 124.654 109.634C124.488 109.612 124.365 109.754 124.316 109.898C124.059 110.126 123.778 110.33 123.484 110.499C123.41 110.542 123.31 110.628 123.261 110.573C123.382 110.484 123.496 110.384 123.599 110.276C123.799 110.065 123.997 109.689 123.761 109.558C123.719 109.535 123.637 109.539 123.592 109.599C123.488 109.737 123.384 109.875 123.28 110.013C123.189 110.133 123.095 110.253 123.04 110.385C123.023 110.426 123.011 110.471 123.006 110.514C122.9 110.581 122.788 110.637 122.675 110.684C122.667 110.689 122.657 110.692 122.648 110.696C122.709 110.647 122.77 110.599 122.831 110.548C123.003 110.408 123.159 110.244 123.169 110.05C123.177 109.868 123.06 109.74 122.951 109.632C122.921 109.603 122.851 109.617 122.808 109.65C122.476 109.903 122.204 110.242 122.068 110.599C122.026 110.712 122.009 110.83 122.058 110.909C121.762 111.135 121.461 111.356 121.158 111.571C121.126 111.593 121.047 111.665 121.016 111.654C120.987 111.645 120.999 111.576 120.999 111.544C120.999 111.46 121.003 111.376 121.013 111.29C121.035 111.104 121.083 110.912 121.151 110.722C121.211 110.556 121.29 110.391 121.382 110.231C121.417 110.246 121.465 110.243 121.509 110.207C121.736 110.022 121.851 109.779 121.828 109.551C121.821 109.472 121.692 109.483 121.633 109.551C121.068 110.191 120.732 110.985 120.762 111.675C120.769 111.827 120.838 111.955 121.042 111.869C121.135 111.831 121.222 111.76 121.307 111.7C121.417 111.621 121.528 111.542 121.638 111.462C121.845 111.311 122.051 111.158 122.255 111.002C122.37 111.006 122.502 110.964 122.62 110.921C122.762 110.869 122.904 110.801 123.04 110.72C123.08 110.79 123.152 110.835 123.261 110.825C123.371 110.814 123.526 110.702 123.63 110.638C123.753 110.565 123.874 110.486 123.992 110.402C124.107 110.32 124.218 110.234 124.326 110.143C124.351 110.177 124.394 110.188 124.469 110.19C124.568 110.193 124.675 110.18 124.78 110.157C124.893 110.131 125.006 110.09 125.115 110.039C125.13 110.053 125.149 110.067 125.17 110.076C125.294 110.136 125.466 110.109 125.625 110.049C125.773 109.992 125.92 109.909 126.053 109.809C126.09 109.826 126.133 109.837 126.178 109.842C126.391 109.866 126.624 109.752 126.841 109.639C126.986 109.561 126.936 109.365 126.787 109.443ZM122.353 110.468C122.465 110.25 122.627 110.051 122.824 109.884C122.908 109.977 122.984 110.103 122.871 110.252C122.807 110.334 122.708 110.403 122.626 110.467C122.533 110.541 122.439 110.615 122.345 110.689C122.32 110.708 122.296 110.726 122.271 110.745C122.238 110.68 122.317 110.537 122.353 110.468ZM123.626 109.872C123.6 109.988 123.459 110.144 123.382 110.22C123.367 110.235 123.352 110.249 123.336 110.263C123.421 110.13 123.525 110 123.626 109.872ZM125.607 109.423C125.523 109.526 125.424 109.617 125.318 109.694C125.377 109.565 125.514 109.416 125.607 109.423ZM126.15 109.417C126.164 109.395 126.229 109.322 126.218 109.371C126.212 109.397 126.163 109.447 126.126 109.485C126.129 109.463 126.137 109.438 126.15 109.417Z" fill="#365DA2"/>
    <path d="M180.254 83.9857H204.986L213.277 50.8025H188.543L180.254 83.9857Z" fill="white"/>
    <g opacity="0.5">
        <path d="M190.048 60.1941H206.432C206.635 60.1941 206.843 60.0282 206.894 59.8259L206.928 59.6878C206.978 59.4855 206.854 59.3196 206.651 59.3196H190.267C190.064 59.3196 189.856 59.4855 189.806 59.6878L189.771 59.8259C189.72 60.0282 189.844 60.1941 190.048 60.1941Z" fill="#699DEE"/>
        <path d="M191.506 54.3583H207.89C208.093 54.3583 208.301 54.1924 208.351 53.9901L208.385 53.852C208.436 53.6497 208.311 53.4838 208.109 53.4838H191.724C191.522 53.4838 191.314 53.6497 191.263 53.852L191.229 53.9901C191.177 54.1924 191.302 54.3583 191.506 54.3583Z" fill="#699DEE"/>
        <path d="M190.999 56.3856H207.384C207.586 56.3856 207.794 56.2197 207.845 56.0174L207.879 55.8793C207.93 55.677 207.805 55.5111 207.602 55.5111H191.218C191.015 55.5111 190.807 55.677 190.757 55.8793L190.723 56.0174C190.671 56.2197 190.795 56.3856 190.999 56.3856Z" fill="#699DEE"/>
        <path d="M190.523 58.2899H206.907C207.11 58.2899 207.318 58.124 207.368 57.9217L207.403 57.7836C207.453 57.5813 207.329 57.4154 207.126 57.4154H190.742C190.539 57.4154 190.331 57.5813 190.28 57.7836L190.246 57.9217C190.196 58.124 190.32 58.2899 190.523 58.2899Z" fill="#699DEE"/>
        <path d="M189.078 64.0743H205.463C205.665 64.0743 205.873 63.9084 205.924 63.7061L205.958 63.568C206.009 63.3657 205.884 63.1998 205.681 63.1998H189.297C189.094 63.1998 188.886 63.3657 188.836 63.568L188.802 63.7061C188.75 63.9084 188.875 64.0743 189.078 64.0743Z" fill="#699DEE"/>
        <path d="M189.554 62.17H205.938C206.141 62.17 206.349 62.0041 206.399 61.8018L206.433 61.6637C206.484 61.4614 206.359 61.2955 206.157 61.2955H189.772C189.57 61.2955 189.362 61.4614 189.311 61.6637L189.277 61.8018C189.226 62.0041 189.351 62.17 189.554 62.17Z" fill="#699DEE"/>
        <path d="M186.587 75.961H190.567C190.808 75.961 191.055 75.764 191.115 75.5232C191.175 75.2823 191.027 75.0854 190.786 75.0854H186.807C186.566 75.0854 186.319 75.2823 186.259 75.5232C186.198 75.764 186.347 75.961 186.587 75.961Z" fill="#699DEE"/>
        <path d="M198.778 75.961H202.757C202.998 75.961 203.245 75.764 203.305 75.5232C203.365 75.2823 203.217 75.0854 202.976 75.0854H198.997C198.756 75.0854 198.509 75.2823 198.449 75.5232C198.389 75.764 198.538 75.961 198.778 75.961Z" fill="#699DEE"/>
    </g>
    <path d="M190.01 80.6707H184.207C184.054 80.6707 183.924 80.6118 183.839 80.5037C183.751 80.3913 183.724 80.2425 183.764 80.083L184.182 78.4079C184.262 78.09 184.586 77.832 184.904 77.832H190.707C190.861 77.832 190.99 77.8909 191.075 77.999C191.163 78.1114 191.19 78.2602 191.15 78.4196L190.732 80.0948C190.653 80.4127 190.329 80.6707 190.01 80.6707ZM184.904 77.8791C184.606 77.8791 184.302 78.1221 184.227 78.4196L183.809 80.0948C183.773 80.2393 183.796 80.3742 183.876 80.4748C183.951 80.5711 184.069 80.6236 184.207 80.6236H190.01C190.308 80.6236 190.612 80.3806 190.687 80.083L191.105 78.4079C191.142 78.2634 191.118 78.1285 191.039 78.0279C190.964 77.9315 190.846 77.8791 190.707 77.8791H184.904Z" fill="#476BA7"/>
    <path d="M202.222 80.6707H196.418C196.265 80.6707 196.135 80.6118 196.05 80.5037C195.963 80.3913 195.936 80.2425 195.975 80.083L196.394 78.4079C196.473 78.09 196.797 77.832 197.115 77.832H202.919C203.072 77.832 203.202 77.8909 203.287 77.999C203.374 78.1114 203.401 78.2602 203.362 78.4196L202.943 80.0948C202.864 80.4127 202.54 80.6707 202.222 80.6707ZM197.117 77.8791C196.818 77.8791 196.515 78.1221 196.44 78.4196L196.022 80.0948C195.985 80.2393 196.009 80.3742 196.088 80.4748C196.163 80.5711 196.281 80.6236 196.419 80.6236H202.223C202.521 80.6236 202.824 80.3806 202.899 80.083L203.318 78.4079C203.354 78.2634 203.331 78.1285 203.251 78.0279C203.176 77.9315 203.058 77.8791 202.92 77.8791H197.117Z" fill="#476BA7"/>
    <path d="M203.478 77.6104C202.597 77.9744 201.72 78.3715 200.854 78.8018C200.888 78.7044 200.919 78.608 200.946 78.5106C200.969 78.4325 200.862 78.38 200.797 78.4667C200.768 78.5053 200.738 78.5406 200.705 78.5759C200.726 78.5063 200.644 78.4667 200.573 78.5181C200.569 78.5213 200.564 78.5256 200.56 78.5288C200.594 78.4346 200.448 78.4207 200.394 78.5117L200.312 78.6476C200.244 78.7301 200.148 78.7921 200.05 78.8232C200.029 78.7782 200.015 78.7301 200.011 78.6776C200.008 78.638 199.979 78.6155 199.943 78.6155C199.942 78.5674 199.898 78.5395 199.835 78.5674C199.758 78.6016 199.69 78.6541 199.636 78.714C199.592 78.6327 199.452 78.6915 199.378 78.7686C199.38 78.7643 199.382 78.76 199.385 78.7557C199.42 78.6808 199.355 78.5952 199.266 78.6701C199.108 78.805 198.994 78.9752 198.941 79.1443C198.889 79.2021 198.833 79.2567 198.774 79.3081C198.745 79.3327 198.611 79.4569 198.58 79.4462C198.551 79.4354 198.566 79.3584 198.58 79.3049C198.584 79.2984 198.59 79.2909 198.594 79.2845C198.706 79.1293 199.245 78.3982 198.865 78.4047C198.825 78.4057 198.784 78.4314 198.759 78.4689C198.621 78.6819 198.514 78.9067 198.448 79.1315C198.435 79.1743 198.418 79.2299 198.404 79.2877C198.394 79.3027 198.382 79.3177 198.371 79.3316C198.22 79.5286 198.012 79.8133 197.767 79.9107C197.745 79.6014 197.901 79.2353 198.019 78.911C198.071 78.7707 198.123 78.6316 198.179 78.4914C198.195 78.4881 198.213 78.4796 198.232 78.4646C198.495 78.243 198.604 77.9134 198.484 77.6929C198.449 77.6286 198.344 77.6875 198.314 77.7549C198.132 78.1617 197.967 78.5716 197.82 78.9816C197.689 79.3455 197.541 79.7287 197.596 80.0648C197.601 80.1002 197.643 80.113 197.681 80.1055C197.96 80.0445 198.204 79.7972 198.399 79.55C198.413 79.5821 198.438 79.6056 198.475 79.6174C198.605 79.6559 198.782 79.5114 198.909 79.3916C198.913 79.4333 198.919 79.4751 198.932 79.5136C198.946 79.5564 198.99 79.566 199.041 79.5446C199.161 79.4965 199.274 79.4194 199.37 79.3252C199.496 79.2867 199.605 79.1828 199.698 79.0619C199.756 79.0116 199.809 78.957 199.86 78.9002C199.87 78.9313 199.885 78.9602 199.905 78.9827C199.952 79.0373 200.072 78.988 200.148 78.9527C200.222 78.9195 200.289 78.8746 200.349 78.821C200.396 78.8178 200.442 78.8039 200.487 78.7836C200.496 78.7964 200.506 78.8082 200.519 78.8178C200.568 78.8499 200.623 78.8371 200.679 78.8028C200.666 78.8382 200.653 78.8735 200.64 78.9088C200.514 78.972 200.387 79.0373 200.262 79.1015C200.178 79.1443 200.159 79.2717 200.252 79.2642C200.368 79.2556 200.484 79.2471 200.6 79.2374C200.652 79.2331 200.694 79.2 200.717 79.1497C200.737 79.1036 200.756 79.0565 200.776 79.0105C201.682 78.5577 202.598 78.1392 203.519 77.7592C203.635 77.7132 203.596 77.5623 203.478 77.6104ZM199.439 78.942C199.432 78.9666 199.422 78.9912 199.41 79.0148C199.403 79.0308 199.393 79.0469 199.385 79.063C199.399 79.0212 199.417 78.9805 199.439 78.942ZM199.185 79.1582C199.175 79.2064 199.164 79.2545 199.182 79.2899C199.154 79.3113 199.125 79.3305 199.095 79.3477C199.09 79.2963 199.093 79.2417 199.105 79.186C199.144 79.139 199.183 79.0897 199.217 79.0405C199.203 79.0811 199.192 79.1218 199.185 79.1582Z" fill="#365DA2"/>
    <path d="M187.259 77.072C186.947 77.6511 186.772 78.2452 186.518 78.8307C186.395 79.1165 186.249 79.4012 186.06 79.6709C185.928 79.8583 185.642 80.2671 185.398 80.1783C185.337 80.1558 185.321 80.1044 185.341 80.0338C185.345 80.0177 185.35 80.0017 185.356 79.9856C185.387 80.0038 185.434 79.9963 185.482 79.9706C185.56 79.9289 185.627 79.8454 185.661 79.7715C185.698 79.6923 185.692 79.611 185.628 79.5757C185.572 79.5446 185.489 79.5725 185.43 79.6313C185.364 79.6966 185.335 79.7801 185.303 79.855C185.263 79.9471 185.212 80.0477 185.217 80.1366C185.226 80.2704 185.371 80.3174 185.512 80.2864C185.684 80.2489 185.836 80.0991 185.952 79.9631C186.088 79.8026 186.207 79.6313 186.312 79.4569C186.523 79.1015 186.674 78.7322 186.814 78.3661C186.977 77.9423 187.129 77.5162 187.354 77.0999C187.39 77.0324 187.296 77.0035 187.259 77.072ZM185.569 79.6998C185.58 79.7405 185.54 79.794 185.508 79.8326C185.496 79.8465 185.485 79.8583 185.471 79.869C185.463 79.8754 185.454 79.8807 185.445 79.885C185.44 79.8861 185.438 79.8861 185.436 79.8872C185.43 79.8743 185.417 79.869 185.403 79.869C185.417 79.8379 185.431 79.8079 185.445 79.779C185.466 79.7352 185.548 79.6142 185.569 79.6998Z" fill="#365DA2"/>
    <path d="M189.348 78.8799C189.285 78.9131 189.216 78.9516 189.15 78.9623C189.134 78.9645 189.116 78.9656 189.099 78.9634C189.147 78.9163 189.19 78.8617 189.197 78.8103C189.209 78.7269 189.117 78.7076 189.037 78.7504C188.968 78.7889 188.921 78.8671 188.917 78.9313C188.915 78.9538 188.919 78.9741 188.927 78.9912C188.859 79.0394 188.742 79.1068 188.672 79.094C188.763 79.0319 188.844 78.9516 188.906 78.8617C188.918 78.8446 188.919 78.8211 188.91 78.8093C188.87 78.7568 188.79 78.7536 188.711 78.7943C188.627 78.8371 188.574 78.9217 188.541 78.9987C188.53 79.0244 188.523 79.0501 188.519 79.0737C188.436 79.1111 188.349 79.1315 188.268 79.1304V79.1293C188.295 79.1047 188.321 79.0801 188.346 79.0544C188.384 79.0169 188.361 78.9773 188.325 78.973C188.246 78.9623 188.187 79.0309 188.163 79.0994C188.04 79.2085 187.906 79.307 187.764 79.3873C187.729 79.4076 187.681 79.4483 187.657 79.4226C187.715 79.3798 187.77 79.3316 187.819 79.2803C187.914 79.1796 188.01 78.9998 187.896 78.9367C187.876 78.9259 187.837 78.927 187.816 78.9559C187.766 79.0223 187.716 79.0876 187.667 79.1539C187.623 79.2117 187.578 79.2685 187.552 79.3316C187.543 79.352 187.538 79.3734 187.536 79.3937C187.484 79.4258 187.432 79.4526 187.378 79.4751C187.374 79.4772 187.37 79.4783 187.364 79.4804C187.393 79.4569 187.423 79.4333 187.452 79.4098C187.535 79.3434 187.61 79.2642 187.614 79.1711C187.618 79.0844 187.563 79.0234 187.51 78.9709C187.496 78.957 187.462 78.9634 187.441 78.9795C187.283 79.1004 187.152 79.2631 187.088 79.4333C187.067 79.4879 187.06 79.5446 187.082 79.5821C186.941 79.6902 186.797 79.7962 186.651 79.8989C186.636 79.9096 186.598 79.9439 186.583 79.9385C186.57 79.9343 186.575 79.9011 186.575 79.8861C186.575 79.8465 186.577 79.8058 186.581 79.7641C186.592 79.6752 186.615 79.5832 186.648 79.4922C186.677 79.413 186.714 79.3338 186.758 79.2567C186.775 79.2642 186.798 79.2631 186.819 79.2449C186.929 79.1561 186.983 79.0394 186.973 78.9313C186.968 78.8928 186.907 78.8992 186.879 78.9313C186.609 79.2385 186.448 79.6174 186.462 79.9482C186.465 80.021 186.499 80.082 186.596 80.0413C186.641 80.0231 186.683 79.9888 186.723 79.9599C186.777 79.9225 186.829 79.8839 186.882 79.8454C186.98 79.7737 187.079 79.6998 187.177 79.6249C187.231 79.6271 187.295 79.6067 187.351 79.5853C187.42 79.5607 187.488 79.5275 187.553 79.489C187.572 79.5232 187.607 79.5446 187.659 79.5393C187.712 79.5339 187.786 79.4804 187.836 79.4504C187.895 79.4151 187.953 79.3777 188.01 79.337C188.065 79.2974 188.118 79.2567 188.17 79.2128C188.181 79.2289 188.202 79.2342 188.238 79.2353C188.285 79.2364 188.337 79.231 188.387 79.2192C188.442 79.2064 188.496 79.1871 188.548 79.1625C188.556 79.1689 188.564 79.1753 188.575 79.1807C188.634 79.2096 188.717 79.1957 188.793 79.1679C188.864 79.1411 188.934 79.1015 188.998 79.0533C189.016 79.0619 189.036 79.0672 189.058 79.0694C189.16 79.0801 189.271 79.0266 189.375 78.972C189.444 78.9367 189.42 78.8425 189.348 78.8799ZM187.225 79.3712C187.278 79.2663 187.357 79.1711 187.451 79.0908C187.492 79.1357 187.527 79.1957 187.473 79.2674C187.443 79.307 187.394 79.3391 187.356 79.3702C187.311 79.4055 187.267 79.4408 187.222 79.4761C187.21 79.4858 187.198 79.4943 187.186 79.504C187.17 79.4729 187.208 79.4033 187.225 79.3712ZM187.835 79.0854C187.822 79.1411 187.756 79.216 187.718 79.2524C187.711 79.2599 187.703 79.2663 187.696 79.2728C187.736 79.2096 187.787 79.1465 187.835 79.0854ZM188.783 78.8703C188.743 78.9195 188.696 78.9634 188.645 78.9998C188.673 78.9377 188.739 78.8671 188.783 78.8703ZM189.044 78.8681C189.05 78.8574 189.081 78.8232 189.076 78.8467C189.074 78.8596 189.05 78.8831 189.032 78.9013C189.033 78.8896 189.037 78.8778 189.044 78.8681Z" fill="#365DA2"/>
    <path d="M170.942 120.518H195.675L203.964 87.3349H179.232L170.942 120.518Z" fill="white"/>
    <g opacity="0.5">
        <path d="M181.229 97.0305H197.613C197.816 97.0305 198.024 96.8646 198.074 96.6623L198.109 96.5242C198.159 96.3219 198.035 96.156 197.832 96.156H181.447C181.245 96.156 181.037 96.3219 180.986 96.5242L180.952 96.6623C180.901 96.8646 181.026 97.0305 181.229 97.0305Z" fill="#699DEE"/>
        <path d="M182.686 91.1958H199.071C199.273 91.1958 199.481 91.0299 199.532 90.8276L199.566 90.6895C199.616 90.4872 199.492 90.3213 199.289 90.3213H182.905C182.702 90.3213 182.494 90.4872 182.444 90.6895L182.41 90.8276C182.358 91.0299 182.484 91.1958 182.686 91.1958Z" fill="#699DEE"/>
        <path d="M182.18 93.2221H198.564C198.767 93.2221 198.975 93.0562 199.025 92.8539L199.06 92.7158C199.11 92.5135 198.986 92.3476 198.783 92.3476H182.399C182.196 92.3476 181.988 92.5135 181.937 92.7158L181.903 92.8539C181.852 93.0562 181.977 93.2221 182.18 93.2221Z" fill="#699DEE"/>
        <path d="M181.703 95.1263H198.088C198.29 95.1263 198.499 94.9604 198.549 94.7581L198.583 94.62C198.634 94.4177 198.509 94.2518 198.307 94.2518H181.922C181.72 94.2518 181.511 94.4177 181.461 94.62L181.427 94.7581C181.376 94.9604 181.501 95.1263 181.703 95.1263Z" fill="#699DEE"/>
        <path d="M180.259 100.911H196.643C196.846 100.911 197.054 100.745 197.104 100.542L197.139 100.404C197.189 100.202 197.065 100.036 196.862 100.036H180.478C180.275 100.036 180.067 100.202 180.017 100.404L179.982 100.542C179.931 100.745 180.056 100.911 180.259 100.911Z" fill="#699DEE"/>
        <path d="M180.735 99.0065H197.119C197.322 99.0065 197.53 98.8406 197.581 98.6383L197.615 98.5002C197.665 98.2979 197.541 98.132 197.338 98.132H180.954C180.751 98.132 180.543 98.2979 180.493 98.5002L180.458 98.6383C180.407 98.8416 180.531 99.0065 180.735 99.0065Z" fill="#699DEE"/>
        <path d="M177.275 112.492H181.255C181.496 112.492 181.743 112.295 181.803 112.055C181.863 111.814 181.715 111.617 181.474 111.617H177.495C177.254 111.617 177.007 111.814 176.947 112.055C176.886 112.295 177.034 112.492 177.275 112.492Z" fill="#699DEE"/>
        <path d="M189.466 112.492H193.445C193.686 112.492 193.933 112.295 193.993 112.055C194.053 111.814 193.905 111.617 193.664 111.617H189.685C189.444 111.617 189.197 111.814 189.137 112.055C189.077 112.295 189.225 112.492 189.466 112.492Z" fill="#699DEE"/>
    </g>
    <path d="M180.699 117.203H174.895C174.742 117.203 174.612 117.144 174.528 117.036C174.44 116.924 174.413 116.775 174.452 116.615L174.871 114.94C174.95 114.622 175.274 114.364 175.593 114.364H181.396C181.549 114.364 181.679 114.423 181.764 114.531C181.852 114.644 181.878 114.793 181.839 114.952L181.42 116.627C181.341 116.944 181.017 117.203 180.699 117.203ZM175.593 114.412C175.294 114.412 174.991 114.655 174.916 114.952L174.498 116.627C174.461 116.772 174.485 116.907 174.564 117.007C174.639 117.104 174.757 117.156 174.895 117.156H180.699C180.997 117.156 181.3 116.913 181.375 116.615L181.794 114.94C181.83 114.796 181.806 114.661 181.727 114.56C181.652 114.464 181.534 114.412 181.396 114.412H175.593Z" fill="#476BA7"/>
    <path d="M192.91 117.203H187.107C186.953 117.203 186.824 117.144 186.739 117.036C186.651 116.924 186.624 116.775 186.664 116.615L187.082 114.94C187.162 114.622 187.485 114.364 187.804 114.364H193.607C193.761 114.364 193.89 114.423 193.975 114.531C194.063 114.644 194.09 114.793 194.05 114.952L193.632 116.627C193.552 116.944 193.229 117.203 192.91 117.203ZM187.804 114.412C187.506 114.412 187.202 114.655 187.127 114.952L186.709 116.627C186.672 116.772 186.696 116.907 186.775 117.007C186.851 117.104 186.968 117.156 187.107 117.156H192.91C193.208 117.156 193.512 116.913 193.587 116.615L194.005 114.94C194.042 114.796 194.018 114.661 193.939 114.56C193.863 114.464 193.746 114.412 193.607 114.412H187.804Z" fill="#476BA7"/>
    <path d="M194.167 114.143C193.285 114.507 192.409 114.904 191.542 115.334C191.577 115.237 191.608 115.14 191.635 115.043C191.657 114.965 191.551 114.914 191.486 114.999C191.457 115.038 191.427 115.073 191.393 115.108C191.415 115.039 191.332 114.999 191.261 115.051C191.257 115.054 191.253 115.058 191.248 115.061C191.283 114.967 191.137 114.953 191.082 115.044L191.001 115.18C190.932 115.262 190.837 115.325 190.738 115.356C190.718 115.311 190.704 115.262 190.699 115.21C190.696 115.17 190.667 115.148 190.632 115.148C190.631 115.1 190.587 115.072 190.523 115.1C190.446 115.134 190.379 115.186 190.324 115.246C190.28 115.165 190.141 115.224 190.067 115.301C190.069 115.297 190.071 115.292 190.073 115.288C190.108 115.213 190.043 115.128 189.954 115.204C189.796 115.338 189.683 115.509 189.629 115.678C189.578 115.736 189.522 115.79 189.463 115.842C189.434 115.866 189.3 115.99 189.269 115.98C189.24 115.969 189.255 115.892 189.269 115.838C189.273 115.832 189.278 115.824 189.283 115.818C189.394 115.663 189.934 114.932 189.554 114.938C189.513 114.939 189.472 114.965 189.448 115.002C189.309 115.215 189.202 115.44 189.137 115.665C189.124 115.708 189.107 115.763 189.093 115.821C189.082 115.836 189.07 115.851 189.06 115.865C188.908 116.062 188.7 116.347 188.456 116.444C188.433 116.135 188.59 115.769 188.708 115.444C188.759 115.304 188.812 115.165 188.868 115.025C188.884 115.022 188.902 115.013 188.92 114.998C189.184 114.777 189.292 114.447 189.172 114.226C189.138 114.162 189.033 114.221 189.003 114.288C188.82 114.695 188.655 115.105 188.508 115.515C188.377 115.879 188.229 116.262 188.284 116.598C188.29 116.634 188.331 116.647 188.37 116.639C188.649 116.578 188.892 116.331 189.087 116.083C189.101 116.116 189.126 116.139 189.164 116.151C189.293 116.189 189.47 116.045 189.598 115.925C189.601 115.967 189.608 116.009 189.62 116.047C189.634 116.09 189.678 116.1 189.73 116.078C189.85 116.03 189.963 115.953 190.058 115.859C190.185 115.82 190.294 115.716 190.386 115.595C190.444 115.545 190.498 115.49 190.548 115.434C190.559 115.465 190.574 115.494 190.593 115.516C190.64 115.571 190.761 115.522 190.837 115.486C190.91 115.453 190.977 115.408 191.037 115.355C191.084 115.351 191.131 115.337 191.176 115.317C191.184 115.33 191.195 115.342 191.208 115.351C191.256 115.383 191.312 115.371 191.368 115.336C191.355 115.372 191.342 115.407 191.329 115.442C191.202 115.505 191.076 115.571 190.95 115.635C190.867 115.678 190.847 115.805 190.941 115.798C191.057 115.789 191.172 115.781 191.288 115.771C191.341 115.767 191.383 115.733 191.405 115.683C191.425 115.637 191.445 115.59 191.464 115.544C192.37 115.091 193.286 114.673 194.207 114.293C194.323 114.246 194.284 114.095 194.167 114.143ZM190.128 115.473C190.12 115.498 190.111 115.523 190.099 115.546C190.091 115.562 190.082 115.578 190.073 115.594C190.087 115.554 190.104 115.513 190.128 115.473ZM189.872 115.691C189.863 115.739 189.851 115.788 189.869 115.822C189.841 115.844 189.812 115.863 189.782 115.88C189.777 115.829 189.78 115.774 189.792 115.718C189.833 115.671 189.87 115.622 189.905 115.573C189.891 115.613 189.88 115.653 189.872 115.691Z" fill="#365DA2"/>
    <path d="M177.947 113.603C177.635 114.182 177.46 114.777 177.206 115.362C177.082 115.648 176.936 115.933 176.748 116.202C176.616 116.39 176.329 116.799 176.086 116.71C176.025 116.687 176.009 116.636 176.028 116.565C176.032 116.549 176.038 116.533 176.043 116.517C176.074 116.535 176.121 116.528 176.17 116.502C176.248 116.46 176.314 116.377 176.349 116.303C176.385 116.224 176.38 116.142 176.315 116.107C176.26 116.076 176.176 116.104 176.117 116.163C176.052 116.228 176.023 116.311 175.99 116.386C175.951 116.478 175.899 116.579 175.905 116.668C175.913 116.802 176.058 116.849 176.2 116.818C176.371 116.78 176.524 116.63 176.639 116.495C176.776 116.334 176.895 116.163 177 115.988C177.211 115.633 177.361 115.264 177.502 114.897C177.665 114.474 177.817 114.048 178.041 113.631C178.079 113.565 177.983 113.535 177.947 113.603ZM176.258 116.232C176.268 116.273 176.229 116.326 176.196 116.365C176.185 116.379 176.174 116.391 176.16 116.401C176.151 116.408 176.143 116.413 176.133 116.417C176.129 116.419 176.127 116.419 176.125 116.42C176.118 116.407 176.105 116.401 176.091 116.401C176.105 116.37 176.119 116.34 176.133 116.311C176.154 116.268 176.235 116.146 176.258 116.232Z" fill="#365DA2"/>
    <path d="M180.037 115.412C179.974 115.446 179.905 115.484 179.838 115.495C179.822 115.497 179.804 115.498 179.788 115.496C179.835 115.449 179.878 115.394 179.886 115.343C179.897 115.259 179.805 115.24 179.726 115.283C179.656 115.321 179.61 115.4 179.606 115.464C179.604 115.486 179.608 115.507 179.615 115.524C179.548 115.572 179.431 115.639 179.359 115.626C179.45 115.564 179.532 115.484 179.595 115.394C179.607 115.377 179.608 115.353 179.598 115.342C179.558 115.289 179.478 115.286 179.4 115.327C179.315 115.37 179.262 115.454 179.229 115.531C179.218 115.557 179.211 115.583 179.208 115.606C179.124 115.644 179.037 115.664 178.957 115.663V115.662C178.984 115.637 179.009 115.613 179.034 115.587C179.073 115.549 179.049 115.51 179.014 115.505C178.934 115.495 178.875 115.563 178.852 115.632C178.728 115.741 178.594 115.839 178.453 115.92C178.417 115.94 178.369 115.981 178.345 115.955C178.403 115.912 178.458 115.864 178.507 115.813C178.603 115.712 178.698 115.532 178.585 115.469C178.564 115.458 178.526 115.459 178.504 115.488C178.455 115.555 178.404 115.62 178.355 115.686C178.311 115.744 178.266 115.801 178.24 115.864C178.232 115.884 178.226 115.906 178.224 115.926C178.173 115.958 178.12 115.985 178.067 116.007C178.062 116.01 178.058 116.011 178.053 116.013C178.082 115.989 178.112 115.966 178.141 115.942C178.223 115.876 178.298 115.797 178.303 115.703C178.307 115.617 178.251 115.556 178.199 115.503C178.185 115.489 178.15 115.496 178.13 115.512C177.971 115.633 177.84 115.796 177.776 115.966C177.756 116.02 177.748 116.077 177.771 116.115C177.629 116.223 177.485 116.329 177.339 116.431C177.324 116.442 177.287 116.476 177.272 116.471C177.258 116.467 177.263 116.434 177.263 116.419C177.263 116.379 177.265 116.338 177.27 116.297C177.281 116.208 177.303 116.116 177.336 116.025C177.365 115.945 177.403 115.866 177.447 115.789C177.464 115.797 177.486 115.796 177.508 115.778C177.617 115.69 177.672 115.573 177.661 115.465C177.657 115.426 177.596 115.433 177.568 115.465C177.298 115.772 177.137 116.151 177.151 116.482C177.154 116.554 177.187 116.615 177.285 116.575C177.33 116.557 177.372 116.522 177.411 116.493C177.465 116.456 177.518 116.417 177.57 116.379C177.669 116.307 177.767 116.233 177.865 116.158C177.92 116.161 177.983 116.14 178.04 116.119C178.108 116.094 178.176 116.061 178.241 116.022C178.261 116.057 178.295 116.078 178.348 116.073C178.4 116.067 178.474 116.014 178.525 115.984C178.584 115.949 178.641 115.911 178.698 115.87C178.753 115.831 178.807 115.79 178.858 115.746C178.87 115.762 178.89 115.768 178.926 115.769C178.973 115.77 179.024 115.765 179.075 115.753C179.129 115.74 179.183 115.721 179.236 115.696C179.243 115.702 179.252 115.709 179.262 115.714C179.321 115.743 179.404 115.729 179.48 115.701C179.551 115.675 179.622 115.635 179.685 115.587C179.703 115.595 179.724 115.601 179.745 115.603C179.847 115.614 179.959 115.56 180.063 115.505C180.131 115.468 180.108 115.374 180.037 115.412ZM177.913 115.903C177.967 115.798 178.045 115.702 178.14 115.622C178.18 115.667 178.216 115.727 178.161 115.799C178.131 115.838 178.083 115.87 178.044 115.902C177.999 115.937 177.955 115.972 177.91 116.007C177.898 116.017 177.886 116.026 177.875 116.034C177.859 116.004 177.896 115.936 177.913 115.903ZM178.522 115.617C178.51 115.672 178.443 115.747 178.406 115.784C178.398 115.791 178.391 115.798 178.383 115.804C178.425 115.741 178.474 115.679 178.522 115.617ZM179.472 115.403C179.432 115.452 179.385 115.496 179.333 115.532C179.361 115.47 179.428 115.4 179.472 115.403ZM179.731 115.4C179.738 115.389 179.769 115.355 179.763 115.378C179.761 115.391 179.738 115.414 179.719 115.433C179.721 115.421 179.726 115.41 179.731 115.4Z" fill="#365DA2"/>
    <path d="M57.8403 167.122L60.3714 167.088C60.3714 167.088 56.5651 162.871 55.3961 160.725L52.1829 154.802L47.9756 155.84L53.3155 163.392L57.8403 167.122Z" fill="#E49963"/>
    <path d="M34.0947 51.8461C33.1241 51.2959 31.9615 51.236 31.1486 51.2831C31.3577 51.0669 31.7695 50.9887 31.7695 50.9887C31.2655 50.9138 30.1393 51.4137 30.1393 51.4137C23.1232 48.7152 22.0206 59.0263 22.1676 61.4208C22.3134 63.8163 19.8103 64.5977 16.1595 66.4848C9.19481 70.0856 8.5835 74.9077 8.5835 74.9077C8.63819 74.9398 8.69396 74.9762 8.75509 75.0169C9.10043 74.4324 9.81149 73.3353 10.4121 73.1694C10.3896 73.2229 9.70317 74.6797 9.44685 75.5146C11.5017 77.0742 15.3455 80.5315 18.0235 82.9817C18.0117 82.5032 18.031 81.8224 18.2058 81.4638L18.5372 83.4526C19.9711 84.7681 20.9589 85.693 20.9589 85.693C20.7819 83.7577 29.7307 73.5419 34.3993 70.4827C35.5361 68.8129 35.9393 65.8629 35.9704 65.6306C35.7742 67.9694 35.3731 69.2817 35.0149 70.0203C38.9691 66.3917 36.6676 53.3051 34.0947 51.8461Z" fill="#163560"/>
    <path d="M34.1237 70.6379C34.1473 70.6486 31.8693 71.8282 30.1566 71.3615C28.5446 70.9226 27.4925 68.8375 27.514 68.8332C28.1961 68.6983 28.3934 67.7618 28.3784 63.7403L28.6873 63.8013L33.8749 64.8267C33.8749 64.8267 33.7569 66.4559 33.7537 67.9908C33.7494 69.2785 33.8277 70.5009 34.1237 70.6379Z" fill="#E49963"/>
    <path d="M28.2573 53.5341C28.2573 53.5341 30.8163 50.8153 34.0294 53.395C34.0294 53.396 32.1601 53.0728 28.2573 53.5341Z" fill="#E37970"/>
    <path d="M33.875 64.8257C33.875 64.8257 33.757 66.4548 33.7538 67.9898C30.8506 67.9084 29.317 65.2656 28.6885 63.8002L33.875 64.8257Z" fill="#D68D5D"/>
    <path d="M28.1522 63.2361C28.1522 63.2361 26.6314 60.8374 26.2657 58.7855C26.0051 57.3212 26.7526 51.8921 32.218 52.6746C32.218 52.6746 33.8052 52.8309 35.2971 53.837C36.4832 54.6366 38.196 56.3642 36.2816 61.1007L35.784 62.701L28.1522 63.2361Z" fill="#163560"/>
    <path d="M54.55 158.656L51.8002 158.741L48.824 158.832C48.824 158.832 41.9494 151.192 38.0928 138.946C38.0027 138.661 37.9083 138.373 37.8075 138.082C35.6968 131.94 31.3222 124.231 29.0163 117.253C28.6495 116.142 28.3203 115.096 28.0243 114.105C27.9299 113.789 27.8377 113.477 27.7497 113.17C26.0509 107.277 25.5586 103.409 25.105 99.2751L39.827 99.3929C39.828 99.3918 44.4419 127.632 54.55 158.656Z" fill="#80BDCC"/>
    <path d="M39.424 89.8589C39.6192 97.7637 40.5866 101.158 40.5866 101.158C40.5866 101.158 33.4578 104.773 24.9863 102.112C24.8865 102.081 25.5354 69.4466 27.9377 68.5474C28.4901 69.2346 30.1374 69.9025 31.6024 69.8694C33.2905 69.8319 33.8375 69.1115 33.7495 68.3237C35.5481 69.3235 39.1441 78.5406 39.424 89.8589Z" fill="#E7F1FD"/>
    <path d="M34.8445 66.2782C34.8445 66.2782 27.9763 66.3917 27.972 62.1219C27.9677 57.8521 27.0775 54.9909 31.4629 54.7383C35.8472 54.4857 36.702 56.1138 37.0506 57.5385C37.398 58.9632 36.6312 66.1391 34.8445 66.2782Z" fill="#E49963"/>
    <path d="M36.8457 55.1643C35.7861 53.882 34.985 54.1614 34.5345 54.5456C33.0502 52.3321 28.3592 55.5336 28.3592 55.5336C26.0512 57.7279 25.6865 60.3525 25.6865 60.3525C25.6865 60.3525 26.9381 61.1243 29.8242 60.3835C32.0957 59.8002 33.743 56.574 34.3425 55.2264C34.7512 55.5882 35.6124 56.4263 35.8708 57.2462C36.213 58.3338 36.3674 60.5719 37.0205 60.4959C37.0205 60.4959 38.4373 57.091 36.8457 55.1643Z" fill="#163560"/>
    <path d="M62.48 73.3653C62.48 73.3653 63.4484 69.8822 67.2847 70.3746C67.7244 70.5127 69.0114 71.0243 68.1888 72.3987C67.5829 73.4124 67.3201 72.8889 66.3667 74.2505C65.4132 75.612 64.3783 75.9192 63.1964 75.7565L62.48 73.3653Z" fill="#E49963"/>
    <path d="M29.6987 166.879C29.4649 165.595 29.0199 163.378 29.0199 163.378L29.1228 155.505H24.332L26.1242 163.039C26.1606 163.389 26.2593 164.747 25.7563 166.186C25.7563 166.186 25.2962 168.278 27.3607 168.317C29.4263 168.356 29.9325 168.161 29.6987 166.879Z" fill="#E49963"/>
    <path d="M25.7573 166.186C25.7573 166.186 25.3487 168.395 25.5814 169.445C25.5814 169.445 26.1863 169.445 27.6856 169.445C29.1078 169.445 29.9186 169.445 29.9186 169.445C29.9186 169.445 29.9368 167.047 29.5571 166.133C29.5571 166.133 28.0943 168.325 25.7573 166.186Z" fill="#C45446"/>
    <path d="M60.4144 167.11C60.4004 167.105 60.3865 167.097 60.3725 167.088C59.359 167.119 58.3391 166.748 57.4146 165.71C54.6026 162.548 53.0228 162.195 52.4705 162.196C51.9964 163.172 51.472 164.269 52.1466 165.506L53.1536 169.442H54.239L54.2497 165.725C54.9651 165.913 55.6622 166.255 55.9732 166.875C56.7325 168.391 57.2602 169.441 57.9659 169.441C58.3638 169.441 62.8457 169.441 62.8457 169.441C62.8457 169.441 62.7513 168.16 60.4144 167.11Z" fill="#C45446"/>
    <path d="M62.4803 73.3653C62.4803 73.3653 57.9726 75.8807 56.3618 76.6064C55.4437 77.0196 53.3309 78.0075 51.8423 78.7054C50.8953 79.1496 49.7692 78.9067 49.0892 78.1135C46.6451 75.2641 40.3131 69.0848 33.7785 68.3259L33.787 68.3419L33.7495 68.3259C33.7495 68.3259 37.7231 78.1231 37.84 80.1055C37.9569 82.0879 38.3076 112.529 38.3076 112.529C38.3076 112.529 38.0738 113.929 40.7614 113.345C43.4491 112.762 44.1505 112.179 44.1505 112.179C44.1505 112.179 41.5797 93.4008 42.2811 86.8693C42.4195 85.5816 42.294 84.1345 42.0033 82.6402C45.9844 85.0571 50.6948 86.1307 50.6948 86.1307C50.6948 86.1307 54.2168 84.5979 59.0312 81.0763C60.5423 79.9717 63.1978 75.7565 63.1978 75.7565L62.4803 73.3653Z" fill="#F99746"/>
    <path d="M51.8004 158.74L48.8243 158.831C48.8243 158.831 41.9497 151.191 38.093 138.945C38.0029 138.66 37.9086 138.372 37.8078 138.081C35.6971 131.939 31.3224 124.23 29.0166 117.252C28.6498 116.141 28.3206 115.094 28.0246 114.104C27.9302 113.787 27.8379 113.476 27.75 113.169L30.2017 111.312C30.2017 111.312 37.5622 123.208 39.8412 134.403C41.821 144.129 49.7488 155.83 51.8004 158.74Z" fill="#5F9AA8"/>
    <path d="M43.9853 85.0518L43.8405 85.4949L36.1347 82.9956C36.1347 82.9956 36.0328 82.8768 36.0854 82.7215C36.1433 82.5503 36.2784 82.5514 36.2784 82.5514L43.9853 85.0518Z" fill="#163560"/>
    <path d="M30.4577 135.447C30.4996 140.891 30.2239 153.408 29.514 158.59H26.8767C25.4192 158.59 24.6921 158.568 24.6921 158.568C22.9096 149.559 21.6419 142.104 20.7185 135.679C19.9613 130.407 19.2878 125.888 18.7709 121.997C18.2497 118.082 17.8872 114.803 17.7574 112.033C17.737 111.597 17.722 111.173 17.7145 110.76C17.7059 110.346 17.7038 109.944 17.707 109.553L32.0922 108.153C31.912 117.694 30.4342 132.282 30.4577 135.447Z" fill="#80BDCC"/>
    <path d="M26.8767 158.59C25.4191 158.59 24.692 158.568 24.692 158.568C22.9095 149.559 21.6419 142.104 20.7185 135.679C19.9613 130.407 19.2878 125.888 18.7708 121.997C18.2496 118.082 17.8871 114.803 17.7573 112.033L23.0361 115.132C23.0361 115.132 19.6674 116.318 20.9523 125.298C22.2382 134.28 25.0878 157.318 26.8767 158.59Z" fill="#5F9AA8"/>
    <path d="M27.5557 111.945C27.5557 111.945 26.5422 115.6 23.0363 115.133C19.5303 114.666 14.5454 112.567 14.5454 112.567C14.5454 112.567 16.0437 107.843 17.9066 101.635C20.162 94.1212 22.9537 84.4331 24.2696 78.3233C24.6386 76.6107 24.8917 75.1817 24.985 74.1573L27.9364 68.5496C27.9364 68.5496 32.2296 78.2398 32.4634 80.6889C32.6983 83.1379 27.5557 111.945 27.5557 111.945Z" fill="#F99746"/>
    <path d="M27.4013 85.8203C27.2448 89.7861 26.3096 97.4833 17.9742 101.604C17.9517 101.615 17.9302 101.627 17.9077 101.635C20.1631 94.1212 22.9548 84.4331 24.2708 78.3233C25.8012 80.6064 27.4861 83.6367 27.4013 85.8203Z" fill="#E27820"/>
    <path d="M42.4845 83.6506C42.4802 84.1259 41.1063 87.4398 38.6858 89.419C38.2171 89.8022 37.8417 89.9884 37.5425 90.0398C33.6011 91.3863 30.181 92.0853 27.4043 92.4257V88.0371C30.8341 87.8177 35.0597 87.5886 36.7993 87.4955C37.0856 87.0406 37.4213 86.3962 37.5339 85.7454C37.742 84.538 38.3897 83.6431 40.0768 83.4216C41.7638 83.2 42.4888 83.1765 42.4845 83.6506Z" fill="#E49963"/>
    <path d="M65.7835 69.2485L73.5762 74.3061C73.6749 74.3704 73.7457 74.5919 73.7124 74.7043L69.963 87.3681C69.9105 87.5458 69.7303 87.5747 69.5812 87.4644L62.0223 81.8149C61.9344 81.7496 61.869 81.6768 61.899 81.5709L65.3417 69.4487C65.391 69.2774 65.6345 69.1511 65.7835 69.2485Z" fill="#163560"/>
    <path d="M65.5101 69.0666L73.3703 74.1734C73.469 74.2376 73.513 74.3586 73.4797 74.471L69.7303 87.1348C69.6778 87.3124 69.4643 87.3831 69.3163 87.2718L61.7628 81.6222C61.6749 81.557 61.6363 81.4435 61.6663 81.3375L65.109 69.2154C65.1583 69.0441 65.36 68.9692 65.5101 69.0666Z" fill="#1C468A"/>
    <path d="M65.4629 69.6232L73.0882 74.4774L69.6263 85.6255L62.4385 80.4352L65.4629 69.6232Z" fill="white"/>
    <path d="M64.873 83.2343C64.873 83.063 65.0125 82.9228 65.1851 82.9228C65.3567 82.9228 65.4972 83.0619 65.4972 83.2343C65.4972 83.4066 65.3578 83.5457 65.1851 83.5457C65.0135 83.5457 64.873 83.4066 64.873 83.2343Z" fill="#163560"/>
    <path d="M68.0452 83.8904L64.3677 81.3258L66.903 71.0778L70.5806 73.6436L68.0452 83.8904Z" fill="white"/>
    <g opacity="0.5">
        <path d="M68.7786 77.9241L66.3419 76.2243C66.3119 76.2029 66.3001 76.1344 66.3151 76.0723L66.3258 76.0295C66.3408 75.9674 66.3784 75.9331 66.4084 75.9535L68.8451 77.6533C68.8751 77.6747 68.8869 77.7432 68.8719 77.8052L68.8612 77.8481C68.8462 77.9112 68.8086 77.9455 68.7786 77.9241Z" fill="#699DEE"/>
        <path d="M69.2249 76.1226L66.7882 74.4228C66.7582 74.4014 66.7464 74.3329 66.7614 74.2708L66.7721 74.228C66.7871 74.1648 66.8247 74.1317 66.8547 74.152L69.2914 75.8518C69.3214 75.8732 69.3332 75.9417 69.3182 76.0038L69.3075 76.0466C69.2925 76.1097 69.2549 76.144 69.2249 76.1226Z" fill="#699DEE"/>
        <path d="M69.0696 76.7488L66.6329 75.049C66.6029 75.0276 66.5911 74.9591 66.6061 74.897L66.6168 74.8542C66.6319 74.7921 66.6694 74.7578 66.6994 74.7782L69.1361 76.478C69.1661 76.4994 69.1779 76.5679 69.1629 76.63L69.1522 76.6728C69.1372 76.7359 69.0996 76.7702 69.0696 76.7488Z" fill="#699DEE"/>
        <path d="M68.9246 77.3364L66.4879 75.6366C66.4579 75.6152 66.4461 75.5467 66.4611 75.4846L66.4718 75.4418C66.4868 75.3797 66.5244 75.3455 66.5555 75.3658L68.9922 77.0656C69.0222 77.087 69.034 77.1555 69.019 77.2176L69.0082 77.2604C68.9922 77.3236 68.9546 77.3578 68.9246 77.3364Z" fill="#699DEE"/>
        <path d="M68.4817 79.1229L66.045 77.4231C66.015 77.4017 66.0032 77.3332 66.0182 77.2711L66.0289 77.2283C66.044 77.1662 66.0815 77.132 66.1115 77.1523L68.5482 78.8521C68.5782 78.8735 68.59 78.942 68.575 79.0041L68.5643 79.0469C68.5493 79.11 68.5128 79.1443 68.4817 79.1229Z" fill="#699DEE"/>
        <path d="M68.6277 78.5353L66.191 76.8355C66.161 76.8141 66.1492 76.7456 66.1642 76.6835L66.175 76.6407C66.19 76.5786 66.2275 76.5443 66.2575 76.5647L68.6942 78.2644C68.7242 78.2858 68.736 78.3544 68.721 78.4164L68.7103 78.4593C68.6953 78.5224 68.6578 78.5556 68.6277 78.5353Z" fill="#699DEE"/>
        <path d="M68.0143 80.9629L67.4223 80.5497C67.3869 80.5251 67.3719 80.4438 67.3901 80.3688C67.4083 80.295 67.4534 80.2543 67.4888 80.2789L68.0808 80.6921C68.1162 80.7167 68.1312 80.7981 68.113 80.873C68.0947 80.9479 68.0508 80.9886 68.0143 80.9629Z" fill="#699DEE"/>
        <path d="M66.2018 79.6988L65.6098 79.2856C65.5744 79.261 65.5594 79.1796 65.5776 79.1047C65.5958 79.0308 65.6409 78.9902 65.6763 79.0148L66.2683 79.4279C66.3037 79.4526 66.3187 79.5339 66.3005 79.6088C66.2822 79.6838 66.2383 79.7244 66.2018 79.6988Z" fill="#699DEE"/>
    </g>
    <path d="M67.8654 82.5514C67.8547 82.5514 67.8439 82.5482 67.8343 82.5407L66.9709 81.9391C66.9238 81.9059 66.9044 81.7999 66.928 81.7025L67.0557 81.1855C67.075 81.1095 67.1157 81.0571 67.1586 81.0571C67.1693 81.0571 67.1801 81.0603 67.1908 81.0678L68.0541 81.6694C68.1013 81.7025 68.1206 81.8085 68.097 81.9059L67.9694 82.4229C67.949 82.5 67.9072 82.5514 67.8654 82.5514ZM67.1586 81.0678C67.1222 81.0678 67.0836 81.117 67.0664 81.1877L66.9388 81.7047C66.9162 81.7957 66.9334 81.8995 66.9774 81.9295L67.8407 82.531C67.8493 82.5364 67.8568 82.5396 67.8665 82.5396C67.9029 82.5396 67.9415 82.4903 67.9587 82.4197L68.0863 81.9027C68.1088 81.8117 68.0917 81.7079 68.0477 81.6779L67.1844 81.0764C67.1758 81.071 67.1672 81.0678 67.1586 81.0678Z" fill="#476BA7"/>
    <path d="M66.0495 81.284C66.0387 81.284 66.028 81.2808 66.0184 81.2733L65.155 80.6718C65.1078 80.6386 65.0885 80.5326 65.1121 80.4352L65.2397 79.9182C65.2591 79.8422 65.2998 79.7897 65.3427 79.7897C65.3534 79.7897 65.3642 79.793 65.3738 79.8005L66.2372 80.402C66.2843 80.4352 66.3037 80.5412 66.2801 80.6386L66.1524 81.1556C66.1331 81.2326 66.0913 81.284 66.0495 81.284ZM65.3427 79.8015C65.3062 79.8015 65.2676 79.8508 65.2505 79.9214L65.1228 80.4384C65.1003 80.5294 65.1175 80.6332 65.1615 80.6632L66.0248 81.2648C66.0334 81.2701 66.042 81.2733 66.0505 81.2733C66.087 81.2733 66.1256 81.2241 66.1428 81.1534L66.2704 80.6364C66.2929 80.5454 66.2758 80.4416 66.2318 80.4116L65.3684 79.8101C65.3599 79.8047 65.3513 79.8015 65.3427 79.8015Z" fill="#476BA7"/>
    <path d="M67.1724 72.4929C67.2185 72.3077 67.3236 72.2028 67.4202 72.2703C67.4792 72.312 67.5017 72.3816 67.5156 72.4608L67.4502 72.5304C67.4373 72.4683 67.4234 72.4265 67.3869 72.4008C67.3344 72.3634 67.2732 72.4287 67.2454 72.5421C67.2175 72.6535 67.2325 72.7733 67.2861 72.8108C67.3215 72.8354 67.3515 72.8215 67.388 72.7926L67.4073 72.921C67.3569 72.9703 67.3118 72.9842 67.2507 72.9414C67.1574 72.8782 67.1252 72.6824 67.1724 72.4929Z" fill="#476BA7"/>
    <path d="M67.4941 72.7187C67.5403 72.5336 67.6475 72.4308 67.7451 72.4982C67.8416 72.5657 67.8749 72.7648 67.8288 72.951C67.7826 73.1362 67.6743 73.239 67.5778 73.1715C67.4813 73.1041 67.448 72.905 67.4941 72.7187ZM67.7569 72.9007C67.7848 72.7894 67.7676 72.6684 67.7119 72.6299C67.6561 72.5914 67.595 72.6556 67.5671 72.7691C67.5392 72.8804 67.5563 73.0013 67.611 73.0399C67.6668 73.0784 67.7279 73.0142 67.7569 72.9007Z" fill="#476BA7"/>
    <path d="M67.9714 72.6684L68.0347 72.7134L68.083 73.2176L68.1827 72.8162L68.2513 72.8643L68.0905 73.5162L68.0315 73.4755L67.9821 72.9553L67.8792 73.3695L67.8105 73.3224L67.9714 72.6684Z" fill="#476BA7"/>
    <path d="M68.366 73.0998L68.2706 73.0334L68.3038 72.9007L68.5644 73.0827L68.5312 73.2154L68.4357 73.149L68.307 73.6682L68.2373 73.62L68.366 73.0998Z" fill="#476BA7"/>
    <path d="M68.6169 73.1191L68.7606 73.2197C68.8003 73.2475 68.8261 73.2925 68.8357 73.3492C68.8443 73.3974 68.8411 73.4552 68.825 73.5183C68.7992 73.6232 68.7553 73.6703 68.7081 73.6735L68.7274 73.9593L68.647 73.9026L68.6298 73.6468L68.5762 73.6093L68.5247 73.818L68.4561 73.7699L68.6169 73.1191ZM68.6781 73.5322C68.7113 73.5558 68.7403 73.5322 68.7542 73.4755C68.7692 73.4145 68.7564 73.3685 68.7231 73.3449L68.6545 73.2968L68.6084 73.4841L68.6781 73.5322Z" fill="#476BA7"/>
    <path d="M69.0501 73.4156L69.1134 73.4605L69.0855 74.2109L69.0136 74.1606L69.0211 73.9947L68.8882 73.9015L68.8227 74.0278L68.752 73.9786L69.0501 73.4156ZM69.0287 73.8502L69.0394 73.6093L68.945 73.7913L69.0287 73.8502Z" fill="#476BA7"/>
    <path d="M69.1822 73.8951C69.2283 73.7099 69.3334 73.605 69.4299 73.6725C69.4889 73.7142 69.5114 73.7838 69.5254 73.863L69.46 73.9326C69.4471 73.8705 69.4332 73.8287 69.3967 73.8031C69.3441 73.7656 69.283 73.8309 69.2551 73.9443C69.2272 74.0557 69.2423 74.1756 69.2959 74.213C69.3313 74.2376 69.3613 74.2237 69.3978 74.1948L69.4171 74.3233C69.3667 74.3725 69.3216 74.3864 69.2605 74.3436C69.1672 74.2804 69.135 74.0846 69.1822 73.8951Z" fill="#476BA7"/>
    <path d="M69.6486 73.9936L69.5532 73.9272L69.5864 73.7956L69.847 73.9775L69.8149 74.1103L69.7194 74.0439L69.5907 74.563L69.521 74.5149L69.6486 73.9936Z" fill="#476BA7"/>
    <path d="M68.1473 81.6533C68.0057 81.6865 67.8652 81.7325 67.7237 81.7892C67.7312 81.7593 67.7387 81.7293 67.7451 81.6993C67.7505 81.6747 67.7365 81.6458 67.7247 81.6683C67.7194 81.6779 67.714 81.6876 67.7076 81.6961C67.7129 81.6747 67.7012 81.6522 67.6894 81.6629C67.6883 81.664 67.6883 81.664 67.6872 81.6651C67.6947 81.6362 67.6733 81.6158 67.6625 81.6415L67.6465 81.6801C67.6336 81.7015 67.6186 81.7122 67.6025 81.7132C67.6003 81.6961 67.6003 81.6779 67.6003 81.6597C67.6014 81.6458 67.5971 81.6351 67.5918 81.6319C67.5928 81.6158 67.5875 81.6009 67.5767 81.6041C67.5639 81.6083 67.5532 81.6191 67.5435 81.634C67.5392 81.6019 67.5167 81.6073 67.5038 81.6265C67.5038 81.6255 67.5049 81.6244 67.5049 81.6223C67.5124 81.5998 67.5049 81.5645 67.4899 81.5805C67.4631 81.6105 67.4416 81.6565 67.4287 81.71C67.4191 81.7239 67.4094 81.7379 67.3998 81.7486C67.3944 81.7539 67.3719 81.7828 67.3665 81.7753C67.3622 81.7689 67.3665 81.7443 67.3708 81.7272C67.3719 81.725 67.373 81.724 67.374 81.7218C67.3944 81.6801 67.4952 81.4853 67.4384 81.4478C67.432 81.4435 67.4255 81.4489 67.4212 81.4585C67.3944 81.5174 67.373 81.5837 67.3569 81.6533C67.3537 81.6672 67.3494 81.6843 67.3462 81.7025C67.344 81.7068 67.3419 81.71 67.3397 81.7143C67.3118 81.7668 67.2732 81.8428 67.2335 81.8503C67.2389 81.7421 67.2722 81.633 67.299 81.5334C67.3108 81.4906 67.3226 81.4489 67.3344 81.406C67.3365 81.4071 67.3397 81.406 67.3429 81.4018C67.388 81.3536 67.4137 81.2519 67.4019 81.1631C67.3987 81.1374 67.3816 81.147 67.3751 81.1663C67.3365 81.2872 67.3011 81.4103 67.2679 81.5356C67.2389 81.6469 67.2057 81.7625 67.2046 81.8834C67.2046 81.8963 67.21 81.9048 67.2164 81.9059C67.2593 81.9145 67.3022 81.8545 67.3387 81.7903C67.3397 81.8032 67.3429 81.8139 67.3483 81.8214C67.3665 81.8481 67.3966 81.8171 67.4191 81.7892C67.418 81.8042 67.418 81.8192 67.4191 81.8331C67.4202 81.8492 67.4266 81.8567 67.4341 81.8556C67.4534 81.8513 67.4727 81.8363 67.4888 81.8149C67.5092 81.8149 67.5274 81.7903 67.5446 81.7593C67.5542 81.7475 67.5639 81.7347 67.5735 81.7207C67.5746 81.7325 67.5757 81.7443 67.5778 81.7539C67.5832 81.7775 67.6025 81.7732 67.6154 81.7689C67.6272 81.7646 67.6389 81.7561 67.6486 81.7443C67.6561 81.7475 67.6625 81.7486 67.6701 81.7454C67.6711 81.7507 67.6722 81.7561 67.6743 81.7603C67.6808 81.7764 67.6893 81.7775 67.6979 81.7721C67.6947 81.7828 67.6926 81.7935 67.6894 81.8042C67.669 81.8128 67.6486 81.8224 67.6282 81.831C67.6143 81.8374 67.6078 81.8792 67.6218 81.8856C67.6389 81.8941 67.6572 81.9038 67.6743 81.9123C67.6818 81.9166 67.6894 81.9091 67.6936 81.8941C67.6979 81.8802 67.7022 81.8663 67.7065 81.8524C67.8534 81.7914 68.0014 81.7432 68.1494 81.7079C68.1677 81.7047 68.1655 81.649 68.1473 81.6533ZM67.5102 81.6908C67.5081 81.6983 67.506 81.7058 67.5038 81.7122C67.5017 81.7165 67.5006 81.7218 67.4984 81.7261C67.5017 81.7132 67.5049 81.7015 67.5102 81.6908ZM67.4663 81.7389C67.4631 81.755 67.4609 81.77 67.462 81.7839C67.4577 81.7882 67.4523 81.7914 67.447 81.7946C67.448 81.7764 67.4491 81.7582 67.4534 81.74C67.4609 81.7282 67.4673 81.7154 67.4738 81.7015C67.4706 81.7143 67.4684 81.7261 67.4663 81.7389Z" fill="#365DA2"/>
    <path d="M65.7644 79.7962C65.7022 79.9621 65.6593 80.1483 65.6056 80.3228C65.5799 80.4074 65.5499 80.4909 65.5145 80.5637C65.4898 80.614 65.4362 80.7242 65.4019 80.6685C65.3933 80.6546 65.3922 80.6354 65.3976 80.6129C65.3987 80.6075 65.3997 80.6033 65.4008 80.5979C65.4051 80.6075 65.4126 80.6097 65.4201 80.6054C65.433 80.599 65.4448 80.5776 65.4523 80.5562C65.4598 80.5326 65.4609 80.5037 65.4523 80.4855C65.4448 80.4695 65.4319 80.4695 65.4212 80.4844C65.4094 80.5005 65.4029 80.5251 65.3965 80.5476C65.3879 80.5754 65.3772 80.6043 65.3761 80.6354C65.374 80.6825 65.3944 80.7135 65.4158 80.7178C65.4426 80.7231 65.4694 80.6867 65.4898 80.6525C65.5145 80.6118 65.537 80.5647 65.5574 80.5166C65.5981 80.417 65.6314 80.3057 65.6625 80.1944C65.6979 80.0659 65.7333 79.9353 65.7772 79.8165C65.7858 79.7962 65.7719 79.7769 65.7644 79.7962ZM65.4416 80.5219C65.4416 80.5369 65.4351 80.5508 65.4287 80.5604C65.4265 80.5636 65.4244 80.5669 65.4222 80.569C65.4212 80.5701 65.419 80.5711 65.418 80.5711C65.4169 80.5711 65.4169 80.5711 65.4169 80.5711C65.4158 80.5658 65.4147 80.5626 65.4126 80.5615C65.4158 80.5519 65.418 80.5433 65.4212 80.5347C65.4244 80.524 65.4405 80.4909 65.4416 80.5219Z" fill="#365DA2"/>
    <path d="M66.0262 80.6332C66.0155 80.6386 66.0048 80.6439 65.994 80.6407C65.9919 80.6396 65.9887 80.6386 65.9865 80.6364C65.9951 80.6257 66.0026 80.6107 66.0058 80.5936C66.0101 80.5658 65.9962 80.5497 65.9833 80.5562C65.9715 80.5626 65.9629 80.584 65.9608 80.6054C65.9597 80.6129 65.9597 80.6204 65.9608 80.6268C65.949 80.6364 65.9297 80.6471 65.92 80.6354C65.935 80.6236 65.9501 80.6043 65.9619 80.5797C65.964 80.5754 65.9651 80.5669 65.964 80.5615C65.9597 80.539 65.9479 80.5305 65.935 80.5358C65.9211 80.5422 65.9114 80.5647 65.9039 80.5883C65.9018 80.5958 65.8996 80.6043 65.8986 80.6118C65.8846 80.6161 65.8718 80.6139 65.86 80.6054C65.8643 80.6 65.8696 80.5936 65.8739 80.5883C65.8803 80.5797 65.8782 80.5636 65.8728 80.5583C65.861 80.5465 65.8503 80.5636 65.8449 80.5851C65.8235 80.6097 65.801 80.6289 65.7774 80.6429C65.772 80.6461 65.7634 80.6557 65.7602 80.6439C65.7699 80.6354 65.7795 80.6247 65.7881 80.6118C65.8053 80.5872 65.8246 80.5347 65.8096 80.5016C65.8074 80.4962 65.801 80.4919 65.7967 80.4994C65.787 80.5165 65.7785 80.5347 65.7688 80.5519C65.7602 80.5669 65.7527 80.5818 65.7463 80.6011C65.7441 80.6075 65.7431 80.6139 65.742 80.6204C65.7334 80.6257 65.7248 80.63 65.7163 80.6321C65.7152 80.6321 65.7152 80.6321 65.7141 80.6321C65.7195 80.6268 65.7238 80.6225 65.7291 80.6172C65.7431 80.6032 65.757 80.584 65.7602 80.5519C65.7634 80.523 65.757 80.4962 65.7506 80.4727C65.7484 80.4662 65.7441 80.4652 65.7398 80.4684C65.713 80.493 65.6894 80.5358 65.6744 80.5872C65.6701 80.6032 65.6669 80.6225 65.6691 80.6375C65.6455 80.66 65.6208 80.6814 65.5961 80.7017C65.594 80.7039 65.5876 80.7114 65.5854 80.7081C65.5833 80.7049 65.5854 80.6942 65.5854 80.6889C65.5865 80.675 65.5876 80.661 65.5897 80.6482C65.594 80.6182 65.5993 80.5893 65.6069 80.5615C65.6133 80.5369 65.6208 80.5144 65.6294 80.4919C65.6315 80.4962 65.6347 80.4983 65.639 80.4941C65.6573 80.4748 65.6691 80.4405 65.6701 80.402C65.6701 80.3881 65.6616 80.3838 65.6562 80.3924C65.6079 80.4694 65.5736 80.5829 65.5661 80.6974C65.565 80.7231 65.5682 80.7467 65.5833 80.7435C65.5908 80.7413 65.5972 80.7349 65.6047 80.7285C65.6133 80.721 65.6229 80.7135 65.6315 80.706C65.6487 80.691 65.6648 80.6771 65.6819 80.661C65.6905 80.6675 65.7002 80.6664 65.7087 80.6653C65.7195 80.6643 65.7302 80.66 65.7409 80.6536C65.7431 80.6675 65.7474 80.6782 65.7549 80.6814C65.7634 80.6846 65.7752 80.6739 65.7838 80.6696C65.7935 80.6632 65.8031 80.6568 65.8128 80.6493C65.8224 80.6418 65.831 80.6332 65.8396 80.6236C65.8407 80.63 65.8439 80.6343 65.8492 80.6386C65.8567 80.6439 65.8643 80.6471 65.8718 80.6482C65.8803 80.6493 65.8889 80.6482 65.8975 80.645C65.8986 80.6482 65.8996 80.6514 65.9007 80.6536C65.9093 80.6696 65.9211 80.6739 65.934 80.6718C65.9458 80.6696 65.9565 80.6632 65.9672 80.6536C65.9694 80.6578 65.9726 80.6621 65.9758 80.6653C65.9908 80.6792 66.009 80.6728 66.0251 80.6643C66.038 80.6621 66.038 80.6279 66.0262 80.6332ZM65.6969 80.5808C65.7077 80.5508 65.7216 80.5262 65.7388 80.508C65.7431 80.5272 65.7474 80.5519 65.7366 80.5711C65.7313 80.5818 65.7227 80.5883 65.7163 80.5947C65.7087 80.6022 65.7012 80.6097 65.6937 80.6172C65.6916 80.6193 65.6894 80.6214 65.6873 80.6225C65.6862 80.6107 65.6937 80.5904 65.6969 80.5808ZM65.7956 80.5465C65.7924 80.5647 65.7806 80.5829 65.7731 80.5915C65.772 80.5936 65.7709 80.5947 65.7688 80.5958C65.7774 80.5786 65.786 80.5626 65.7956 80.5465ZM65.9425 80.5711C65.935 80.584 65.9275 80.5936 65.9179 80.6011C65.9243 80.5829 65.9361 80.5658 65.9425 80.5711ZM65.9812 80.5968C65.9822 80.5936 65.9876 80.585 65.9865 80.5925C65.9854 80.5968 65.9812 80.6022 65.9779 80.6065C65.979 80.6032 65.9801 80.6 65.9812 80.5968Z" fill="#365DA2"/>
    <path d="M44.5396 85.4799L43.9851 85.0518L43.8403 85.4949L44.5396 85.4799Z" fill="#163560"/>
    <path d="M27.9365 68.5485C27.9365 68.5485 20.7777 69.0248 19.0638 72.8344C17.35 76.6439 16.8041 89.3184 18.9855 93.0508C18.9855 93.0508 21.9885 93.905 27.3005 92.9127C27.3659 92.901 27.4314 92.8881 27.4968 92.8753C27.4968 92.8753 29.1913 88.735 27.6716 87.9183C27.6716 87.9183 23.1918 88.1516 23.6594 86.6745C24.1281 85.1984 27.9365 68.5485 27.9365 68.5485Z" fill="#F99746"/>
    <path d="M199.65 164.338C199.65 164.338 199.954 169.378 199.035 169.451C198.913 169.461 194.369 169.461 194.369 169.461L188.569 169.424C188.569 169.424 188.606 167.926 190.302 167.61C191.998 167.293 194.976 166.132 195.48 163.546C195.984 160.96 199.65 164.338 199.65 164.338Z" fill="#163560"/>
    <path d="M188.605 164.338C188.605 164.338 188.91 169.378 187.991 169.451C187.869 169.461 183.324 169.461 183.324 169.461L177.524 169.424C177.524 169.424 177.562 167.926 179.258 167.61C180.953 167.293 183.931 166.132 184.435 163.546C184.94 160.96 188.605 164.338 188.605 164.338Z" fill="#163560"/>
    <path d="M212.836 127.806L217.92 129.555C217.92 129.555 221.154 122.983 221.941 122.092C222.84 121.074 223.486 113.239 223.893 106.152C224.248 99.9548 224.421 94.3299 224.421 94.3299C224.421 94.3299 222.691 94.7228 221.562 97.6385C219.626 102.636 219.64 112.395 218.562 117.427C217.942 120.323 213.884 127.395 212.836 127.806Z" fill="#FFF2D8"/>
    <path d="M217.919 129.556C219.857 127.307 221.154 122.984 221.941 122.093C222.84 121.075 227.092 115.289 223.119 106.192C221.171 111.945 222.796 115.081 222.184 118.477C221.578 121.844 218.096 127.305 217.919 129.556Z" fill="#FFEBC5"/>
    <path d="M232.595 167.227C232.595 167.227 233.07 167.647 234.196 167.647C235.473 167.647 235.798 167.227 235.798 167.227V149.339H232.595V167.227Z" fill="#D86713"/>
    <path d="M214.973 142.073C214.975 142.085 214.976 142.099 214.979 142.113C215.089 142.91 215.248 143.651 215.439 144.329C215.805 145.646 216.285 146.718 216.733 147.471C218.467 150.391 221.758 153.64 229.645 154.701C230.027 154.751 230.421 154.8 230.826 154.84C231.561 154.915 232.336 154.972 233.148 155.008C233.199 155.01 233.25 155.013 233.303 155.014C233.355 155.017 233.406 155.018 233.46 155.019C235.754 154.962 238.321 154.543 241.185 153.864C247.062 152.472 250.891 149.607 253.311 146.123C253.311 146.123 253.312 146.123 253.312 146.122C253.518 145.825 253.713 145.526 253.9 145.222C254.383 144.43 254.801 143.612 255.159 142.775C256.504 139.64 257.019 136.26 257.067 133.126C257.022 130.152 256.561 127.467 256.046 125.558C255.646 124.069 255.024 122.652 254.178 121.407C253.957 121.079 253.719 120.762 253.464 120.459C252.658 119.493 251.693 118.664 250.565 118.023C247.757 116.426 238.523 114.835 230.701 118.955C216.303 126.535 214.136 135.901 214.973 142.073Z" fill="#E57970"/>
    <path d="M217.393 148.481C219.689 151.148 221.757 153.881 229.645 154.757C230.027 154.798 230.422 154.837 230.826 154.87C231.562 154.933 232.336 154.979 233.148 155.009C233.199 155.011 233.251 155.014 233.303 155.014C233.355 155.017 233.406 155.018 233.46 155.019C235.754 154.962 238.321 154.543 241.185 153.864C247.062 152.472 250.891 149.607 253.312 146.123C253.312 146.123 253.313 146.123 253.313 146.122C253.519 145.825 253.714 145.526 253.9 145.222C249.441 144.16 239.917 142.298 230.456 143.058C225.323 143.472 219.998 143.928 215.439 144.329C215.284 144.342 216.636 147.601 217.393 148.481Z" fill="#C65447"/>
    <path d="M244.4 101.71C244.326 101.408 244.248 101.111 244.165 100.819C243.038 96.8389 241.201 93.9542 238.314 93.4811C237.951 94.4659 234.417 96.1004 231.325 95.9409C230.984 95.9237 230.48 95.4603 230.475 95.4592C228.033 95.1156 226.871 93.8086 226.985 93.6331C226.882 93.6417 224.421 94.3289 224.421 94.3289C222.284 103.652 222.029 108.833 224.6 122.129C225.538 126.985 224.103 129.624 224.421 129.942C224.977 130.498 231.131 130.658 236.079 130.85C236.673 130.872 237.258 130.892 237.829 130.912C241.445 131.029 244.425 131.071 244.425 131.071C244.67 130.766 245.123 127.948 245.431 123.98C245.926 117.646 246.056 108.379 244.4 101.71Z" fill="#FFF2D8"/>
    <path d="M236.615 93.9296L233.674 96.3615L229.194 95.6711C229.236 95.2408 229.459 93.3751 229.651 91.7824C229.809 90.4819 229.946 89.3655 229.946 89.3655L235.297 87.229L235.458 87.1647C235.455 87.1915 235.454 87.2183 235.453 87.245C235.438 87.458 235.429 87.6667 235.424 87.8723C235.333 91.5223 236.615 93.9296 236.615 93.9296Z" fill="#E49963"/>
    <path d="M224.266 144.15C209.292 145.223 204.631 145.03 204.106 145.748C200.8 150.269 200.466 151.049 193.761 160.108C192.481 161.836 190.971 163.866 189.162 166.279H182.161C182.161 166.279 189.713 151.896 195.752 142.151C198.135 138.304 200.283 135.18 201.638 133.949C206.318 129.692 224.962 129.792 224.962 129.792C224.962 129.792 241.15 129.401 242.425 131.795C242.701 132.315 235.54 143.341 224.266 144.15Z" fill="#1C468A"/>
    <path d="M224.266 144.15C209.292 145.223 204.631 145.03 204.106 145.748C200.801 150.269 200.466 151.049 193.761 160.108L195.753 142.151C198.136 138.304 200.285 135.18 201.639 133.949C206.32 129.692 224.964 129.792 224.964 129.792C224.964 129.792 241.152 129.401 242.426 131.795C242.701 132.315 235.54 143.341 224.266 144.15Z" fill="#163560"/>
    <path d="M232.867 95.9997L229.92 95.6872C229.92 95.6872 229.552 95.7675 229.622 96.2309C229.693 96.6944 230.665 97.9478 231.03 98.011C231.397 98.0742 233.666 96.8518 232.867 95.9997Z" fill="#365DA4"/>
    <path d="M243.808 134.277C243.808 134.277 243.309 143.327 232.034 144.135C217.06 145.209 213.971 144.855 212.992 145.769C208.178 150.259 211.359 151.212 200.076 166.281H192.989C192.989 166.281 201.639 137.682 205.557 134.261C210.316 130.106 229.751 129.792 229.751 129.792C229.751 129.792 242.706 128.797 243.98 131.189C244.257 131.709 243.808 134.277 243.808 134.277Z" fill="#1C468A"/>
    <path d="M229.644 154.701C229.644 154.746 231.197 154.968 232.045 155.006C232.389 155.022 232.736 155.028 233.092 155.024C233.122 155.025 233.153 155.025 233.183 155.024C233.274 155.022 233.367 155.021 233.459 155.019C235.753 154.961 238.32 154.543 241.184 153.864C248.861 152.046 253.042 147.714 255.159 142.775C256.504 139.64 257.019 136.26 257.067 133.126C257.022 130.152 256.561 127.467 256.046 125.558C255.646 124.069 255.024 122.654 254.178 121.407C254.012 121.16 253.835 120.918 253.648 120.685C253.588 120.609 253.527 120.534 253.464 120.458C248.172 125.979 232.189 143.532 229.644 154.701Z" fill="#E57970"/>
    <path d="M230.045 154.701C230.045 154.746 231.598 154.968 232.446 155.006C232.66 155.016 232.874 155.022 233.092 155.024C233.122 155.025 233.153 155.025 233.183 155.024C233.274 155.022 233.366 155.021 233.459 155.019C235.753 154.961 238.32 154.543 241.184 153.864C248.861 152.046 253.042 147.714 255.159 142.775C256.504 139.64 257.019 136.26 257.067 133.126C257.022 130.152 256.561 127.467 256.046 125.558C255.646 124.069 255.024 122.654 254.178 121.407C254.012 121.16 253.835 120.918 253.648 120.685C248.152 126.444 232.556 143.679 230.045 154.701Z" fill="#E57970"/>
    <path d="M229.541 92.6997C229.541 92.6997 230.031 94.8844 231.324 95.9419L229.329 98.5312C229.329 98.5312 226.913 95.6765 226.984 93.6342C226.985 93.6331 228.902 92.7757 229.541 92.6997Z" fill="#DBDBDB"/>
    <path d="M229.541 92.6997C229.541 92.6997 229.914 94.757 231.207 95.8135L229.291 98.1683C229.291 98.1683 227.188 95.7289 226.984 93.6342C226.985 93.6331 228.901 92.7757 229.541 92.6997Z" fill="#FFF2D8"/>
    <path d="M236.253 92.6997C236.253 92.6997 233.203 95.5844 231.208 95.8135L232.574 99.2152C232.574 99.2152 238.515 95.7022 238.534 93.5978C238.532 93.5978 236.897 92.7179 236.253 92.6997Z" fill="#DBDBDB"/>
    <path d="M236.036 92.5841C236.036 92.5841 233.203 95.5844 231.208 95.8135L232.314 98.9487C232.314 98.9487 238.298 95.5866 238.316 93.4822C238.315 93.4822 236.679 92.6023 236.036 92.5841Z" fill="#FFF2D8"/>
    <path d="M245.432 123.981C245.123 127.949 245.207 130.022 243.98 131.189C243.98 131.189 241.497 132.122 237.83 130.913C236.579 130.275 235.602 129.397 235.118 128.195C232.703 122.208 237.298 117.232 237.532 113.266C237.766 109.3 241.408 106.404 241.408 106.404C241.408 106.404 245.926 117.646 245.432 123.981Z" fill="#FFEBC5"/>
    <path d="M231.488 97.6674C231.488 97.6674 232.046 102.928 232.145 104.688C232.424 109.64 232.527 124.521 232.527 124.521C232.527 124.521 232.674 125.821 231.805 126.857C230.936 127.893 230.029 128.603 230.029 128.603C230.029 128.603 228.754 127.49 228.249 125.398C227.912 124.007 228.72 112.321 229.535 104.537C229.944 100.625 230.62 97.5614 230.62 97.5614C230.62 97.5614 231.286 97.4458 231.488 97.6674Z" fill="#E45300"/>
    <path d="M252.322 169.445H217.289C218.957 165.805 226.165 163.068 234.805 163.068C243.447 163.068 250.655 165.805 252.322 169.445Z" fill="#F1A34F"/>
    <path d="M234.299 124.774C234.299 124.774 231.923 125.396 231.144 125.824C230.366 126.252 228.802 128.302 229.153 128.623C230.911 130.233 231.183 128.449 233.345 127.865C233.737 127.759 235.546 125.746 235.546 125.746L234.299 124.774Z" fill="#E49963"/>
    <path d="M232.368 129.737L228.801 117.427H208.415L212.096 130.236H212.166H232.513H238.856V129.737H232.368Z" fill="#C65447"/>
    <path d="M218.579 123.623C218.449 123.173 218.711 122.808 219.162 122.808C219.612 122.808 220.084 123.173 220.213 123.623C220.341 124.074 220.081 124.439 219.63 124.439C219.179 124.439 218.709 124.074 218.579 123.623Z" fill="#F1A34F"/>
    <path d="M238.315 93.4822C238.315 93.4822 242.363 94.1394 244.389 96.2384C246.414 98.3375 249.842 115.522 248.985 117.932C248.128 120.343 241.273 125.241 236.364 127.263C236.364 127.263 233.949 126.174 233.793 124.308C233.793 124.308 242.13 117.31 242.519 115.444C242.909 113.579 238.315 93.4822 238.315 93.4822Z" fill="#FFF2D8"/>
    <path d="M235.453 87.2461C235.438 87.4591 235.429 87.6678 235.425 87.8733C234.39 88.9876 231.955 91.3617 229.651 91.7824C229.809 90.4819 229.946 89.3655 229.946 89.3655L235.297 87.229L235.453 87.2461Z" fill="#D68D5D"/>
    <path d="M229.388 89.7957C229.388 89.7957 235.804 90.088 235.925 86.0975C236.047 82.1061 236.956 79.4558 232.865 79.1004C228.773 78.745 227.93 80.2436 227.565 81.5666C227.2 82.8885 227.722 89.617 229.388 89.7957Z" fill="#E49963"/>
    <path d="M235.925 86.0976C235.925 86.0976 235.446 80.7713 229.73 80.9629C224.013 81.1534 226.487 75.7576 231.399 74.9623C231.399 74.9623 230.886 76.8633 233.976 77.1641C240.461 77.7945 236.502 85.253 235.925 86.0976Z" fill="#1C468A"/>
    <path d="M143.656 136.846C144.057 134.784 146.057 133.113 148.122 133.113C150.188 133.113 151.536 134.784 151.135 136.846C150.734 138.907 148.734 140.578 146.668 140.578C144.604 140.578 143.254 138.907 143.656 136.846Z" fill="#D86713"/>
    <path d="M140.422 56.7373L140.327 57.2644L138.408 57.2474L138.168 58.5354L139.938 58.551L139.837 59.0722L138.068 59.0565L137.822 60.3864L139.772 60.4036L139.677 60.9308L137.169 60.9086L137.944 56.7153L140.422 56.7373ZM143.176 58.5197L143.277 57.9626L143.799 57.9672L143.244 60.9624L142.722 60.9578L142.804 60.5325C142.489 60.8657 142.085 61.0302 141.599 61.0258C141.173 61.0221 140.833 60.8571 140.59 60.5249C140.347 60.1927 140.272 59.8081 140.354 59.3708C140.436 58.9095 140.643 58.5453 140.97 58.2782C141.296 58.005 141.663 57.8703 142.071 57.8739C142.569 57.8783 142.969 58.1099 143.176 58.5197ZM142.993 59.4841C143.062 59.1427 143.004 58.8782 142.82 58.6786C142.642 58.479 142.403 58.3809 142.103 58.3782C141.821 58.3757 141.556 58.4694 141.32 58.6533C141.085 58.8372 140.933 59.0879 140.876 59.4174C140.819 59.7229 140.871 59.9874 141.037 60.1988C141.209 60.4104 141.442 60.5204 141.748 60.5231C142.054 60.5259 142.319 60.4322 142.554 60.2363C142.79 60.0404 142.936 59.7896 142.993 59.4841ZM145.126 61.0571C144.532 61.0518 144.151 60.7724 144.011 60.3212L144.481 60.0853C144.544 60.3679 144.795 60.5621 145.172 60.5655C145.526 60.5686 145.78 60.4328 145.83 60.1753C145.95 59.5403 144.183 59.8427 144.397 58.7225C144.441 58.4769 144.575 58.2801 144.786 58.1319C145.003 57.9779 145.256 57.9021 145.544 57.9046C146.054 57.9092 146.4 58.1222 146.582 58.5379L146.118 58.7738C146.043 58.5211 145.84 58.3933 145.516 58.3904C145.234 58.3879 144.969 58.5176 144.918 58.7811C144.874 59.0208 145.113 59.1549 145.424 59.2536C145.885 59.3837 146.471 59.5749 146.345 60.2398C146.245 60.767 145.78 61.0629 145.126 61.0571ZM148.02 60.3747L149.337 58.0162L149.919 58.0214L148.109 61.1915C147.7 61.9079 147.193 62.2394 146.588 62.192L146.676 61.7068C147.054 61.7402 147.308 61.5444 147.569 61.1147L147.661 60.9715L146.919 57.9948L147.447 57.9995L148.02 60.3747ZM151.827 61.1164C151.191 61.1108 150.701 60.8844 150.363 60.4434C150.025 60.0024 149.916 59.4734 150.029 58.8624C150.137 58.2573 150.429 57.7559 150.907 57.3581C151.384 56.9603 151.92 56.761 152.52 56.7663C153.336 56.7736 153.938 57.1689 154.221 57.8134L153.72 58.073C153.491 57.567 153.079 57.3113 152.485 57.3061C152.011 57.3019 151.59 57.4541 151.233 57.763C150.876 58.0718 150.657 58.4599 150.575 58.9272C150.492 59.4005 150.567 59.7912 150.81 60.0993C151.054 60.4075 151.412 60.5667 151.88 60.5708C152.486 60.5762 153.023 60.2929 153.363 59.8099L153.822 60.108C153.361 60.7339 152.619 61.1234 151.827 61.1164ZM157.591 61.0894L157.003 61.0842L156.843 60.1407L154.953 60.124L154.429 61.0614L153.823 61.056L156.17 56.8767L156.8 56.8822L157.591 61.0894ZM156.392 57.5326L155.24 59.6045L156.752 59.6179L156.392 57.5326Z" fill="#1C1E66"/>
</svg>
