<svg width="255" height="254" viewBox="0 0 255 254" fill="none" xmlns="http://www.w3.org/2000/svg">
    <path d="M254.914 126.998C254.914 152.307 247.489 175.883 234.686 195.684C230.503 202.152 225.743 208.221 220.483 213.81C214.937 219.714 208.831 225.087 202.248 229.845C201.645 230.284 201.035 230.717 200.421 231.138C179.753 245.55 154.589 254.004 127.455 254.004C108.687 254.004 90.867 249.96 74.8226 242.708C72.8377 241.807 70.8823 240.858 68.9488 239.859C64.4608 237.551 60.1308 234.98 55.981 232.171C51.2209 228.955 46.6925 225.424 42.425 221.608C16.3826 198.354 0 164.58 0 126.998C0 56.8587 57.0616 0 127.455 0C197.845 0 254.914 56.8587 254.914 126.998Z" fill="#FFF4E8"/>
    <path d="M234.686 195.684C230.503 202.152 225.743 208.221 220.483 213.81C214.937 219.714 208.831 225.087 202.248 229.845C201.645 230.284 201.035 230.717 200.421 231.138C185.27 228.193 166.888 208.946 151.296 200.841C148.513 199.397 145.822 198.31 143.253 197.727C134.211 195.684 118.405 202.826 102.405 210.221C92.8592 214.63 83.2362 219.128 74.9328 221.82C74.8593 221.846 74.7895 221.871 74.7159 221.893C67.2322 224.3 60.8291 225.219 56.5286 223.26C55.6831 222.879 54.9186 222.377 54.246 221.758C51.4157 219.157 48.5817 216.187 46.1962 212.876C36.518 199.467 34.1288 180.425 68.5959 157.526C79.6928 150.157 29.4644 152.6 50.3828 99.7445C64.8062 63.3123 91.8006 24.3235 128.036 25.3601C128.036 25.3601 143.253 25.3601 159.003 35.381C171.383 43.252 189.063 79.0726 198.286 102.77C207.508 126.471 189.482 141.491 204.027 154.234C219.197 167.525 231.845 182.037 234.686 195.684Z" fill="#141414"/>
    <path d="M90.4333 53.3865C90.4333 53.3865 128.778 14.9032 153.097 50.1012C153.097 50.1012 168.116 45.7499 174.677 76.5234C181.374 107.923 171.137 127.115 160.305 121.219C153.358 117.435 148.098 129.555 148.098 129.555L90.4333 53.3865Z" fill="#181818"/>
    <path d="M202.248 229.845C201.645 230.284 201.035 230.717 200.421 231.138C179.753 245.55 154.589 254.004 127.455 254.004C108.687 254.004 90.8669 249.96 74.8225 242.708C72.8376 241.807 70.8822 240.858 68.9487 239.859C70.533 233.87 72.5215 227.988 74.7269 222.348V222.344C74.7968 222.172 74.8629 222 74.9328 221.827C85.3791 195.314 100.468 174.433 100.468 174.433C100.468 174.433 100.494 174.429 100.545 174.429C100.567 174.426 100.586 174.426 100.619 174.418C100.659 174.415 100.703 174.407 100.755 174.404H100.769C100.81 174.4 100.865 174.393 100.92 174.389C100.99 174.378 101.056 174.374 101.137 174.367C101.346 174.352 101.611 174.327 101.912 174.29C102.008 174.279 102.096 174.268 102.192 174.264C102.276 174.261 102.354 174.25 102.434 174.242C102.519 174.231 102.592 174.228 102.67 174.22C102.728 174.217 102.784 174.21 102.85 174.206C102.92 174.202 102.982 174.195 103.037 174.191C103.589 174.14 104.217 174.081 104.915 174.019C109.756 173.21 107.672 163.811 107.647 154.244C107.643 152.091 107.606 149.915 107.551 147.795C107.54 147.443 107.529 147.095 107.518 146.743C107.514 146.425 107.503 146.11 107.492 145.802C107.481 145.524 107.477 145.253 107.466 144.985C107.466 144.879 107.463 144.777 107.455 144.678C107.433 143.996 107.408 143.333 107.382 142.682C107.36 142.136 107.341 141.608 107.319 141.096C107.209 138.627 107.095 136.429 106.992 134.69C106.981 134.492 106.97 134.298 106.959 134.111C106.955 134.089 106.956 134.074 106.956 134.06C106.952 133.939 106.944 133.825 106.933 133.708C106.919 133.426 106.897 133.159 106.882 132.913C106.871 132.734 106.86 132.573 106.849 132.415C106.838 132.206 106.827 132.009 106.812 131.829C106.812 131.8 106.812 131.771 106.808 131.745C106.794 131.467 106.775 131.239 106.768 131.056C106.764 130.994 106.757 130.935 106.753 130.884C106.739 130.679 106.731 130.577 106.731 130.577L143.389 123.343L145.598 122.911L147.907 122.456V122.482C147.895 124.888 147.94 127.214 148.017 129.459C148.903 154.951 155.07 169.726 159.79 170.964C161.565 171.865 165.539 172.371 169.373 172.821C173.405 173.287 177.286 173.689 178.341 174.407C189.515 181.945 198.543 203.602 202.248 229.845Z" fill="#FFC095"/>
    <path d="M106.735 130.566C106.735 130.566 107.621 142.751 107.646 154.234C129.392 153.622 140.889 133.855 145.598 122.896L106.735 130.566Z" fill="#E8945B"/>
    <path d="M149.612 118.684C149.612 118.684 161.007 100.741 163.745 85.398C165.697 74.443 160.099 33.8427 119.152 39.6883C119.152 39.6883 107.257 40.8567 96.0792 48.3797C87.1877 54.3645 74.3594 67.2789 88.7057 102.711L92.4329 114.681L149.612 118.684Z" fill="#1D1D1D"/>
    <path d="M99.4755 141.436C99.4755 141.436 150.928 142.282 150.965 110.344C151.002 78.406 157.666 57.0089 124.816 55.119C91.9661 53.2291 85.5704 65.4073 82.9569 76.0656C80.3398 86.7238 86.0886 140.396 99.4755 141.436Z" fill="#FFC095"/>
    <path d="M101.379 54.3352C101.379 54.3352 115.468 91.8039 137.089 97.3418C158.709 102.883 168.086 97.1111 168.086 97.1111C168.086 97.1111 151.501 83.9842 148.061 61.0671C148.061 61.0708 112.006 36.5055 101.379 54.3352Z" fill="#222222"/>
    <path d="M104.871 57.3788C104.871 57.3788 97.7847 61.5909 91.8447 70.6156C87.1508 77.7431 82.4717 84.0684 83.1701 98.1806C83.1701 98.1806 72.5546 72.7143 84.486 58.3055C97.1304 43.0323 104.871 57.3788 104.871 57.3788Z" fill="#222222"/>
    <path d="M208.317 186.923C199.127 174.711 169.384 172.792 169.384 172.792C169.384 172.792 169.384 172.796 169.38 172.807C169.159 173.393 162.944 189.853 151.299 200.84C149.524 202.514 147.623 204.064 145.605 205.408C129.046 216.407 110.697 220.304 102.409 210.224C100.155 207.485 98.6447 203.708 98.1154 198.76C97.3214 191.307 102.115 176.715 103.526 174.195C103.548 174.166 103.346 174.169 103.044 174.184C102.986 174.188 102.923 174.195 102.857 174.199C102.795 174.202 102.736 174.209 102.677 174.213C102.6 174.217 102.526 174.224 102.442 174.235C102.364 174.239 102.284 174.25 102.199 174.257C102.104 174.261 102.015 174.272 101.92 174.283C101.648 174.305 101.376 174.334 101.144 174.36C101.067 174.363 100.997 174.371 100.927 174.382C100.868 174.385 100.817 174.393 100.777 174.396H100.762C100.71 174.4 100.666 174.407 100.626 174.411C100.593 174.415 100.574 174.415 100.552 174.422C100.501 174.422 100.475 174.426 100.475 174.426C92.8224 175.429 77.4653 177.092 72.084 180.524C72.084 180.524 72.084 180.524 72.0804 180.528C71.7716 180.685 58.1678 187.761 46.2034 212.876C44.9243 215.568 43.6562 218.472 42.4285 221.6C46.696 225.417 51.2244 228.948 55.9845 232.163C60.1343 234.973 64.468 237.544 68.9523 239.851C70.8821 240.851 72.8412 241.803 74.8261 242.701C90.8706 249.953 108.69 253.996 127.459 253.996C154.593 253.996 179.756 245.543 200.425 231.13C201.039 230.713 201.649 230.277 202.252 229.838C208.835 225.08 214.937 219.707 220.487 213.803C216.907 202.459 212.908 193.032 208.317 186.923Z" fill="#FD5C00"/>
    <g opacity="0.5">
        <path d="M87.5259 77.9848C87.5259 76.4282 88.794 75.1646 90.3562 75.1646C91.9183 75.1646 93.1865 76.4282 93.1865 77.9848C93.1865 79.5414 91.9183 80.805 90.3562 80.805C88.7903 80.805 87.5259 79.5414 87.5259 77.9848Z" fill="white"/>
        <path d="M87.5259 115.164C87.5259 113.608 88.794 112.344 90.3562 112.344C91.9183 112.344 93.1865 113.608 93.1865 115.164C93.1865 116.721 91.9183 117.984 90.3562 117.984C88.7903 117.984 87.5259 116.721 87.5259 115.164Z" fill="white"/>
        <path d="M87.5259 97.2502C87.5259 95.6936 88.794 94.43 90.3562 94.43C91.9183 94.43 93.1865 95.6936 93.1865 97.2502C93.1865 98.8069 91.9183 100.07 90.3562 100.07C88.7903 100.07 87.5259 98.8069 87.5259 97.2502Z" fill="white"/>
        <path d="M66.6038 97.2502C66.6038 95.6936 67.8719 94.43 69.434 94.43C70.9962 94.43 72.2643 95.6936 72.2643 97.2502C72.2643 98.8069 70.9962 100.07 69.434 100.07C67.8682 100.07 66.6038 98.8069 66.6038 97.2502Z" fill="white"/>
        <path d="M110.594 77.9848C110.594 76.4282 111.863 75.1646 113.425 75.1646C114.987 75.1646 116.255 76.4282 116.255 77.9848C116.255 79.5414 114.987 80.805 113.425 80.805C111.863 80.805 110.594 79.5414 110.594 77.9848Z" fill="white"/>
        <path d="M110.594 97.2502C110.594 95.6936 111.863 94.43 113.425 94.43C114.987 94.43 116.255 95.6936 116.255 97.2502C116.255 98.8069 114.987 100.07 113.425 100.07C111.863 100.07 110.594 98.8069 110.594 97.2502Z" fill="white"/>
        <path d="M110.594 115.164C110.594 113.608 111.863 112.344 113.425 112.344C114.987 112.344 116.255 113.608 116.255 115.164C116.255 116.721 114.987 117.984 113.425 117.984C111.863 117.984 110.594 116.721 110.594 115.164Z" fill="white"/>
        <path d="M110.594 134.151C110.594 132.595 111.863 131.331 113.425 131.331C114.987 131.331 116.255 132.595 116.255 134.151C116.255 135.708 114.987 136.972 113.425 136.972C111.863 136.972 110.594 135.708 110.594 134.151Z" fill="white"/>
        <path d="M134.56 97.2502C134.56 95.6936 135.828 94.43 137.39 94.43C138.953 94.43 140.221 95.6936 140.221 97.2502C140.221 98.8069 138.953 100.07 137.39 100.07C135.828 100.07 134.56 98.8069 134.56 97.2502Z" fill="white"/>
        <path d="M151.63 97.2502C151.63 95.6936 152.898 94.43 154.46 94.43C156.023 94.43 157.291 95.6936 157.291 97.2502C157.291 98.8069 156.023 100.07 154.46 100.07C152.898 100.07 151.63 98.8069 151.63 97.2502Z" fill="white"/>
        <path d="M134.56 115.164C134.56 113.608 135.828 112.344 137.39 112.344C138.953 112.344 140.221 113.608 140.221 115.164C140.221 116.721 138.953 117.984 137.39 117.984C135.828 117.984 134.56 116.721 134.56 115.164Z" fill="white"/>
        <path d="M110.594 58.7193C110.594 57.1627 111.863 55.8991 113.425 55.8991C114.987 55.8991 116.255 57.1627 116.255 58.7193C116.255 60.276 114.987 61.5396 113.425 61.5396C111.863 61.5396 110.594 60.276 110.594 58.7193Z" fill="white"/>
        <path d="M133.66 77.9848C133.66 76.4282 134.928 75.1646 136.49 75.1646C138.052 75.1646 139.32 76.4282 139.32 77.9848C139.32 79.5414 138.052 80.805 136.49 80.805C134.928 80.805 133.66 79.5414 133.66 77.9848Z" fill="white"/>
        <path d="M89.9885 115.911V77.9848H90.72V114.417L113.054 97.0708V58.7193H113.789V97.4297L89.9885 115.911Z" fill="white"/>
        <path d="M113.418 134.62L89.3344 114.798H113.054V97.6165H89.3454L113.418 77.5123L137.758 97.0744V114.249L153.957 97.2466L136.236 78.2485L113.421 59.1955L90.5878 78.2631L69.9782 97.2429L89.3785 114.307L88.8933 114.857L68.8865 97.2576L90.1063 77.7174L113.421 58.2432L136.758 77.7357L154.964 97.2539L137.758 115.311V115.53H137.519L113.418 134.62ZM91.3744 115.53L113.425 133.682L136.336 115.53H91.3744ZM113.789 114.798H137.023V97.4261L113.425 78.4573L91.3597 96.884H113.785V114.798H113.789Z" fill="white"/>
        <path d="M113.789 134.151H113.054V114.981L135.593 98.1403L136.034 98.7263L113.789 115.347V134.151Z" fill="white"/>
        <path d="M88.3529 96.884H71.2095V97.6165H88.3529V96.884Z" fill="white"/>
        <path d="M135.814 96.884H116.251V97.6165H135.814V96.884Z" fill="white"/>
        <path d="M137.743 96.0892L136.155 78.3511H91.5618V77.6185H136.824L138.475 96.0233L137.743 96.0892Z" fill="white"/>
        <path d="M137.17 115.457L112.833 97.2649L136.255 77.7064L136.725 78.2668L114.013 97.2356L137.611 114.871L137.17 115.457Z" fill="white"/>
        <path d="M90.5862 77.702L90.1318 78.2778L113.198 96.3503L113.653 95.7745L90.5862 77.702Z" fill="white"/>
        <path d="M155.387 96.884H137.39V97.6165H155.387V96.884Z" fill="white"/>
    </g>
    <path d="M44.0607 64.1107H37.8672V45.2335H58.5026V51.4014H44.0607V64.1107Z" fill="white"/>
    <path d="M212.945 64.9532H206.751V50.559H194V44.3911H212.945V64.9532Z" fill="white"/>
    <path d="M212.944 185.095H192.309V178.927H206.751V166.218H212.944V185.095Z" fill="white"/>
    <path d="M56.8118 185.937H37.8672V165.375H44.0607V179.769H56.8118V185.937Z" fill="white"/>
</svg>
