<svg width="16" height="17" viewBox="0 0 16 17" fill="none" xmlns="http://www.w3.org/2000/svg">
    <path d="M3.33333 14.5C2.96667 14.5 2.65289 14.3696 2.392 14.1087C2.13111 13.8478 2.00044 13.5338 2 13.1667V4.85C2 4.69445 2.02511 4.54445 2.07533 4.4C2.12556 4.25556 2.20044 4.12223 2.3 4L3.13333 2.98334C3.25556 2.82778 3.40822 2.70823 3.59133 2.62467C3.77444 2.54111 3.96622 2.49956 4.16667 2.5H11.8333C12.0333 2.5 12.2251 2.54178 12.4087 2.62534C12.5922 2.70889 12.7449 2.82823 12.8667 2.98334L13.7 4C13.8 4.12223 13.8751 4.25556 13.9253 4.4C13.9756 4.54445 14.0004 4.69445 14 4.85V13.1667C14 13.5333 13.8696 13.8473 13.6087 14.1087C13.3478 14.37 13.0338 14.5004 12.6667 14.5H3.33333ZM3.6 4.5H12.4L11.8333 3.83334H4.16667L3.6 4.5ZM10.6667 5.83334H5.33333V11.1667L8 9.83334L10.6667 11.1667V5.83334Z" fill="#333333"/>
</svg>
