<svg width="16" height="17" viewBox="0 0 16 17" fill="none" xmlns="http://www.w3.org/2000/svg">
    <path d="M12.2188 15.5C11.6088 15.5 10.7519 15.2793 9.46876 14.5625C7.90845 13.6875 6.70158 12.8796 5.1497 11.3318C3.65345 9.83652 2.92533 8.86839 1.90626 7.01402C0.755014 4.92027 0.951263 3.82277 1.17064 3.3537C1.43189 2.79308 1.81751 2.45777 2.31595 2.12495C2.59906 1.93947 2.89866 1.78046 3.21095 1.64995C3.2422 1.63652 3.27126 1.6237 3.2972 1.61214C3.45189 1.54245 3.68626 1.43714 3.98314 1.54964C4.18126 1.62402 4.35814 1.7762 4.63501 2.04964C5.20283 2.60964 5.97876 3.85683 6.26501 4.46933C6.4572 4.88214 6.58439 5.15464 6.5847 5.46027C6.5847 5.81808 6.4047 6.09402 6.18626 6.39183C6.14533 6.44777 6.1047 6.5012 6.06533 6.55308C5.82751 6.86558 5.77533 6.95589 5.8097 7.11714C5.87939 7.4412 6.39908 8.40589 7.25314 9.25808C8.1072 10.1103 9.04408 10.5971 9.36939 10.6665C9.53751 10.7025 9.6297 10.6481 9.9522 10.4018C9.99845 10.3665 10.046 10.33 10.0956 10.2934C10.4288 10.0456 10.6919 9.87027 11.0413 9.87027H11.0431C11.3472 9.87027 11.6075 10.0021 12.0388 10.2196C12.6013 10.5034 13.886 11.2693 14.4494 11.8378C14.7235 12.114 14.8763 12.2903 14.951 12.4881C15.0635 12.7859 14.9575 13.0193 14.8885 13.1756C14.8769 13.2015 14.8641 13.23 14.8506 13.2615C14.7191 13.5732 14.5592 13.8722 14.3728 14.1546C14.0406 14.6515 13.7041 15.0362 13.1422 15.2978C12.8537 15.4343 12.5379 15.5034 12.2188 15.5Z" fill="#333333"/>
</svg>
