<svg width="48" height="48" viewBox="0 0 48 48" fill="none" xmlns="http://www.w3.org/2000/svg">
    <rect width="48" height="48" rx="4" fill="#FFF3EC"/>
    <path d="M26.8399 26.444C26.8399 24.927 25.5851 23.6683 24 23.6683C22.448 23.6683 21.1602 24.8948 21.1602 26.444C21.1602 27.5091 21.7876 28.4451 22.7122 28.897L21.1602 33.2865H24H26.8399L25.2879 28.897C26.2125 28.4451 26.8399 27.5091 26.8399 26.444Z" fill="#1C1E66"/>
    <path fill-rule="evenodd" clip-rule="evenodd" d="M31.6941 30.5752L30.3072 29.4778L23.7358 37.5145L19.0798 33.706L17.957 35.0615L24 39.9998L31.6941 30.5752Z" fill="url(#paint0_linear_224_1337)"/>
    <path d="M34.1705 28.4774C33.6092 23.2164 29.0522 21.6349 29.0522 21.6349C28.6229 21.4412 28.0945 21.3121 27.6983 21.2153C27.1039 21.0862 26.8727 21.0216 26.8067 20.9893C25.9151 20.4406 25.9151 19.1173 25.9151 19.1173C27.6322 17.6649 27.9624 15.5347 27.9624 15.5347C28.4247 15.1796 28.4908 14.6955 28.4908 14.6955L28.6229 13.7595C28.755 12.8235 28.0945 12.7267 28.0945 12.7267C27.8303 8.65987 25.4198 8.0789 24.4291 8.01434C23.9998 7.98207 23.6366 8.01434 23.6366 8.01434C23.0092 8.04662 21.6883 8.27255 20.7967 9.62815H20.2684V10.1446H20.4995C20.4665 10.2737 20.4004 10.4028 20.3344 10.5642H19.4758V11.4679H20.0702C19.9712 11.8552 19.9381 12.2748 19.9051 12.7589C19.9051 12.7589 19.2447 12.8558 19.3768 13.7918L19.5089 14.7278C19.5089 14.7278 19.6079 15.1796 20.0372 15.567C20.0372 15.567 20.3674 17.6972 22.0846 19.1496C22.0846 19.1496 22.0846 20.4406 21.193 20.9893C21.0939 21.0216 20.8627 21.0862 20.3014 21.2153C19.9051 21.3121 19.3768 21.4412 18.9475 21.6349C18.9475 21.6349 14.3905 23.2164 13.8291 28.4774H20.9618C20.5325 27.8964 20.3014 27.1864 20.3014 26.444C20.3014 24.4752 21.9194 22.8614 23.9338 22.8614H23.9668C25.9811 22.8614 27.6322 24.4752 27.6322 26.444C27.6322 27.1864 27.4011 27.8964 26.9718 28.4774H34.1705ZM21.0609 10.0477H21.9194V10.8869H21.0609V10.0477ZM22.2827 11.3388V11.7584H21.8534V11.3388H22.2827ZM22.4148 14.4696H21.1599V13.2431H20.3014V12.4039H21.1599V13.2431H22.4148V14.4696Z" fill="url(#paint1_linear_224_1337)"/>
    <path d="M19.8392 9.14403H18.7495V10.2091H19.8392V9.14403Z" fill="url(#paint2_linear_224_1337)"/>
    <path d="M18.3529 9.53139H17.5273V10.3383H18.3529V9.53139Z" fill="url(#paint3_linear_224_1337)"/>
    <path d="M18.7492 8.3693H18.2539V8.85344H18.7492V8.3693Z" fill="url(#paint4_linear_224_1337)"/>
    <path d="M19.0798 10.6935H17.6929V12.0491H19.0798V10.6935Z" fill="url(#paint5_linear_224_1337)"/>
    <defs>
        <linearGradient id="paint0_linear_224_1337" x1="17.9504" y1="34.7385" x2="31.7073" y2="34.7385" gradientUnits="userSpaceOnUse">
            <stop stop-color="#FD5C00"/>
            <stop offset="1" stop-color="#D40E19"/>
        </linearGradient>
        <linearGradient id="paint1_linear_224_1337" x1="32.8011" y1="18.172" x2="18.4234" y2="18.4747" gradientUnits="userSpaceOnUse">
            <stop stop-color="#1C1E66"/>
            <stop offset="1" stop-color="#DC1E14"/>
        </linearGradient>
        <linearGradient id="paint2_linear_224_1337" x1="32.6164" y1="9.38836" x2="18.2386" y2="9.69106" gradientUnits="userSpaceOnUse">
            <stop stop-color="#1C1E66"/>
            <stop offset="1" stop-color="#DC1E14"/>
        </linearGradient>
        <linearGradient id="paint3_linear_224_1337" x1="32.6216" y1="9.65791" x2="18.2439" y2="9.96028" gradientUnits="userSpaceOnUse">
            <stop stop-color="#1C1E66"/>
            <stop offset="1" stop-color="#DC1E14"/>
        </linearGradient>
        <linearGradient id="paint4_linear_224_1337" x1="32.5933" y1="8.31024" x2="18.2156" y2="8.61294" gradientUnits="userSpaceOnUse">
            <stop stop-color="#1C1E66"/>
            <stop offset="1" stop-color="#DC1E14"/>
        </linearGradient>
        <linearGradient id="paint5_linear_224_1337" x1="32.6527" y1="11.1066" x2="18.2747" y2="11.4093" gradientUnits="userSpaceOnUse">
            <stop stop-color="#1C1E66"/>
            <stop offset="1" stop-color="#DC1E14"/>
        </linearGradient>
    </defs>
</svg>
