<svg width="136" height="115" viewBox="0 0 136 115" fill="none" xmlns="http://www.w3.org/2000/svg">
    <path d="M67.8411 10.7049C74.5033 10.7049 80.537 13.6015 84.6851 18.1983H78.2743C75.2575 16.0573 71.5493 14.7979 67.464 14.7979C58.4135 14.7979 50.8086 21.2838 49.1745 29.9107C48.8603 31.7368 50.243 33.437 52.1285 33.437C53.574 33.437 54.7682 32.4295 55.0825 30.9812C56.2138 25.188 61.3047 20.7801 67.464 20.7801C70.2923 20.7801 72.8692 21.7246 74.9433 23.2359H83.051H88.079H99.5807C99.015 21.4727 98.3237 19.8355 97.5066 18.2613C92.0386 7.43045 80.7884 0 67.8411 0C51.5628 0 38.0499 11.6494 35.096 27.0771C34.4675 30.4145 36.9815 33.437 40.3754 33.437C42.9523 33.437 45.1521 31.6109 45.6549 29.0921C47.6032 18.6391 56.7794 10.7049 67.8411 10.7049Z" fill="#2A2B2A"/>
    <path d="M68.0297 56.1692C61.3675 56.1692 55.3338 53.2726 51.1857 48.6758H57.5965C60.6133 50.8797 64.3843 52.1391 68.4068 52.1391C77.4573 52.1391 85.0622 45.6532 86.6963 37.0263C87.0734 35.2002 85.6278 33.5 83.7423 33.5C82.2968 33.5 81.1026 34.5075 80.7883 35.9558C79.657 41.812 74.5033 46.2199 68.3439 46.2199C65.5156 46.2199 62.9388 45.2754 60.8647 43.7641H52.8198H47.7918H36.2273C36.7929 45.5273 37.4843 47.1645 38.3013 48.7387C43.8322 59.5695 55.0824 67 68.0297 67C84.308 67 97.8209 55.3506 100.775 39.9229C101.403 36.5855 98.8893 33.563 95.4954 33.563C92.9814 33.437 90.7816 35.2632 90.2788 37.782C88.2676 48.235 79.0914 56.1692 68.0297 56.1692Z" fill="#E95626"/>
    <path d="M71.4236 28.8402C71.4236 26.7622 69.6638 25.125 67.5269 25.3769C65.9556 25.5658 64.6986 26.8252 64.51 28.3994C64.3215 29.8478 65.0757 31.1701 66.2699 31.8628V39.86C66.2699 40.8045 67.0241 41.5602 67.9668 41.5602C68.9096 41.5602 69.6638 40.8045 69.6638 39.86V31.8628C70.6694 31.2961 71.4236 30.1626 71.4236 28.8402Z" fill="#E95626"/>
    <path d="M0 79.3661H18.4531V86.017H7.18636V90.2271H16.017V96.6949H7.18636V100.6H19.3057V107.251H0V79.3661Z" fill="#2A2B2A"/>
    <path d="M41.7783 88.0305V107.251H35.14V105.42H35.0791C33.922 106.885 32.2777 107.617 30.1461 107.617C28.8672 107.617 27.6492 107.373 26.553 106.885C25.4567 106.397 24.4823 105.725 23.7515 104.871C22.9598 104.017 22.3508 102.919 21.9245 101.698C21.4982 100.478 21.2545 99.0746 21.2545 97.6102C21.2545 96.1458 21.4982 94.8034 21.9245 93.5831C22.3508 92.3627 22.9598 91.2644 23.6906 90.4102C24.4214 89.556 25.3349 88.8848 26.3703 88.3966C27.4056 87.9085 28.5018 87.6644 29.7198 87.6644C31.7296 87.6644 33.3739 88.4576 34.7137 89.9831H34.7746V88.0305H41.7783ZM34.1656 100.417C34.8355 99.6848 35.14 98.7695 35.14 97.6102C35.14 96.5119 34.8355 95.5356 34.1656 94.8644C33.4957 94.1322 32.704 93.7661 31.7905 93.7661C30.816 93.7661 29.9634 94.1322 29.3544 94.8644C28.7454 95.5966 28.38 96.5119 28.38 97.6102C28.38 98.7695 28.6845 99.6848 29.3544 100.417C29.9634 101.149 30.816 101.454 31.7905 101.454C32.704 101.515 33.4957 101.149 34.1656 100.417Z" fill="#2A2B2A"/>
    <path d="M43.788 104.749L46.9549 100.417C48.5992 101.881 50.2436 102.614 51.7661 102.614C52.6796 102.614 53.1668 102.369 53.1668 101.82C53.1668 101.637 53.1059 101.515 52.9841 101.393C52.8623 101.271 52.6187 101.149 52.2533 100.966C51.8879 100.783 51.2789 100.539 50.5481 100.356C49.8781 100.173 49.2082 99.9288 48.6601 99.6847C48.112 99.4407 47.5639 99.1356 47.0158 98.7695C46.4677 98.4034 46.0414 98.0373 45.676 97.6102C45.3106 97.183 45.0061 96.6339 44.8233 96.0847C44.5797 95.4746 44.5188 94.8034 44.5188 94.1322C44.5188 93.0949 44.7015 92.1797 45.1278 91.3864C45.4933 90.5322 46.0414 89.861 46.7113 89.3729C47.3812 88.8237 48.1729 88.4576 49.0255 88.1525C49.939 87.8475 50.8526 87.7254 51.8879 87.7254C52.9232 87.7254 53.8367 87.8475 54.7503 88.0305C55.6029 88.2136 56.3946 88.4576 57.1254 88.8237C57.8562 89.1898 58.587 89.6169 59.3788 90.1661L56.151 94.8034C55.542 94.1932 54.8721 93.7051 54.1412 93.339C53.4104 92.9729 52.7405 92.7898 52.1315 92.7898C51.827 92.7898 51.5225 92.8508 51.2789 92.9729C51.0353 93.0949 50.9135 93.278 50.9135 93.583C50.9135 93.7661 51.0962 94.0102 51.4007 94.1932C51.7052 94.3763 52.3751 94.6203 53.2886 94.9254C54.2021 95.2305 54.9939 95.5356 55.6638 95.7797C56.2728 96.0237 56.8818 96.3288 57.4299 96.6949C57.978 97.061 58.4043 97.4271 58.7697 97.8542C59.0742 98.2813 59.3179 98.7695 59.5006 99.3186C59.6833 99.8678 59.7442 100.539 59.7442 101.271C59.7442 102.186 59.5615 103.102 59.257 103.834C58.8915 104.627 58.4043 105.298 57.7953 105.847C57.1254 106.397 56.2728 106.824 55.2375 107.129C54.2021 107.434 53.045 107.617 51.7052 107.617C48.5383 107.617 45.9196 106.702 43.788 104.749Z" fill="#2A2B2A"/>
    <path d="M80.816 88.0305L70.95 115H64.19L67.4177 105.847L60.1096 88.0915H67.2959L70.5237 97.1831H70.5846L73.6297 88.0915H80.816V88.0305Z" fill="#2A2B2A"/>
    <path d="M92.8745 107.19C91.6564 106.885 90.4993 106.519 89.464 105.969C88.3678 105.42 87.3934 104.749 86.4798 103.956C85.5663 103.163 84.8355 102.186 84.1656 101.21C83.4957 100.173 83.0085 99.0136 82.6431 97.6712C82.2776 96.3288 82.0949 94.9254 82.0949 93.4C82.0949 92.0576 82.2167 90.7763 82.5212 89.5559C82.8258 88.3356 83.2521 87.1763 83.8002 86.139C84.3483 85.1017 85.0182 84.1254 85.8708 83.2102C86.7234 82.3559 87.637 81.5627 88.7332 80.9525C89.7685 80.3424 90.9865 79.8542 92.3264 79.4881C93.6662 79.122 95.1278 79 96.5895 79C98.5992 79 100.609 79.4271 102.68 80.3424C104.689 81.2576 106.455 82.6 107.917 84.3695L102.497 89.0678C102.192 88.7017 101.827 88.3966 101.462 88.0915C101.096 87.7864 100.609 87.4814 100.122 87.1763C99.6345 86.8712 99.0864 86.6271 98.4774 86.5051C97.8684 86.322 97.2594 86.261 96.6504 86.261C95.9804 86.261 95.3105 86.383 94.6406 86.5661C93.9707 86.7492 93.3617 87.0542 92.8136 87.4814C92.2655 87.9085 91.7782 88.3966 91.3519 88.9458C90.9256 89.4949 90.6211 90.1661 90.3775 90.9593C90.1339 91.7525 90.0121 92.6068 90.0121 93.522C90.0121 94.4373 90.1948 95.3525 90.4993 96.2068C90.8038 97.061 91.2301 97.7932 91.7782 98.4644C92.3264 99.1356 93.0572 99.6237 93.9098 99.9898C94.7624 100.356 95.6759 100.539 96.7113 100.539C97.8075 100.539 98.8428 100.295 99.939 99.7458C101.035 99.1966 101.888 98.5254 102.558 97.6712L107.978 102.369C106.699 103.956 105.055 105.237 103.106 106.214C101.157 107.19 98.9646 107.678 96.6504 107.678C95.3714 107.617 94.0925 107.495 92.8745 107.19Z" fill="#E95626"/>
    <path d="M126.614 102.736H117.722L116.321 107.251H108.526L118.636 79.4271H125.761L135.871 107.251H128.015L126.614 102.736ZM124.665 96.4508L122.168 88.4576H122.107L119.61 96.4508H124.665Z" fill="#E95626"/>
</svg>
