<svg width="48" height="48" viewBox="0 0 48 48" fill="none" xmlns="http://www.w3.org/2000/svg">
    <rect width="48" height="48" rx="4" fill="#FFF3EC"/>
    <path fill-rule="evenodd" clip-rule="evenodd" d="M8 15.4667C8 14.618 8.33714 13.804 8.93726 13.2039C9.53737 12.6038 10.3513 12.2667 11.2 12.2667H36.8C37.6487 12.2667 38.4626 12.6038 39.0627 13.2039C39.6629 13.804 40 14.618 40 15.4667V32.5333C40 33.382 39.6629 34.196 39.0627 34.7961C38.4626 35.3962 37.6487 35.7333 36.8 35.7333H11.2C10.3513 35.7333 9.53737 35.3962 8.93726 34.7961C8.33714 34.196 8 33.382 8 32.5333V15.4667ZM14.4 20.8C14.4 19.6684 14.8495 18.5832 15.6497 17.783C16.4498 16.9829 17.5351 16.5333 18.6667 16.5333C19.7983 16.5333 20.8835 16.9829 21.6837 17.783C22.4838 18.5832 22.9333 19.6684 22.9333 20.8C22.9333 21.9316 22.4838 23.0168 21.6837 23.817C20.8835 24.6171 19.7983 25.0667 18.6667 25.0667C17.5351 25.0667 16.4498 24.6171 15.6497 23.817C14.8495 23.0168 14.4 21.9316 14.4 20.8ZM33.6 20.8H27.2V18.6667H33.6V20.8ZM33.6 27.2H27.2V25.0667H33.6V27.2ZM18.6667 27.2C17.507 27.2 16.3703 27.5229 15.3839 28.1326C14.3974 28.7422 13.6002 29.6145 13.0816 30.6517L12.3776 32.0555C12.296 32.2182 12.2575 32.3992 12.2656 32.5811C12.2738 32.763 12.3284 32.9398 12.4242 33.0946C12.52 33.2494 12.6538 33.3772 12.813 33.4656C12.9721 33.5541 13.1513 33.6004 13.3333 33.6H24C24.1819 33.6 24.3608 33.5535 24.5196 33.4649C24.6785 33.3762 24.812 33.2485 24.9076 33.0937C25.0031 32.9389 25.0575 32.7623 25.0656 32.5806C25.0736 32.3988 25.0351 32.2181 24.9536 32.0555L24.2517 30.6517C23.7331 29.6145 22.9359 28.7422 21.9495 28.1326C20.963 27.5229 19.8263 27.2 18.6667 27.2Z" fill="url(#paint0_linear_249_696)"/>
    <defs>
        <linearGradient id="paint0_linear_249_696" x1="8.02853" y1="24.0093" x2="40.1056" y2="24.0093" gradientUnits="userSpaceOnUse">
            <stop stop-color="#FD5C00"/>
            <stop offset="1" stop-color="#D40E19"/>
        </linearGradient>
    </defs>
</svg>
