<svg width="68" height="68" viewBox="0 0 68 68" fill="none" xmlns="http://www.w3.org/2000/svg">
    <rect width="68" height="68" rx="34" fill="white"/>
    <path d="M47.75 21.625H42.9856L40.643 18.1119C40.5175 17.9238 40.3475 17.7695 40.1481 17.6628C39.9488 17.556 39.7261 17.5001 39.5 17.5H28.5C28.2739 17.5001 28.0512 17.556 27.8519 17.6628C27.6525 17.7695 27.4825 17.9238 27.357 18.1119L25.0127 21.625H20.25C19.156 21.625 18.1068 22.0596 17.3332 22.8332C16.5596 23.6068 16.125 24.656 16.125 25.75V45C16.125 46.094 16.5596 47.1432 17.3332 47.9168C18.1068 48.6904 19.156 49.125 20.25 49.125H47.75C48.844 49.125 49.8932 48.6904 50.6668 47.9168C51.4404 47.1432 51.875 46.094 51.875 45V25.75C51.875 24.656 51.4404 23.6068 50.6668 22.8332C49.8932 22.0596 48.844 21.625 47.75 21.625ZM40.1875 34.6875C40.1875 35.9113 39.8246 37.1076 39.1447 38.1251C38.4648 39.1426 37.4985 39.9357 36.3679 40.404C35.2372 40.8723 33.9931 40.9949 32.7929 40.7561C31.5926 40.5174 30.4901 39.9281 29.6248 39.0627C28.7594 38.1974 28.1701 37.0949 27.9314 35.8946C27.6926 34.6944 27.8152 33.4503 28.2835 32.3196C28.7518 31.189 29.5449 30.2227 30.5624 29.5428C31.5799 28.8629 32.7762 28.5 34 28.5C35.641 28.5 37.2148 29.1519 38.3752 30.3123C39.5356 31.4727 40.1875 33.0465 40.1875 34.6875Z" fill="#FD5C00"/>
</svg>
