<svg width="24" height="24" viewBox="0 0 24 24" fill="none" xmlns="http://www.w3.org/2000/svg">
    <path d="M4.99998 8L9.99998 16M18.722 20.5C20.214 17.9157 20.9995 14.9841 20.9995 12C20.9995 9.01588 20.214 6.08433 18.722 3.5M14.392 18C15.4452 16.1758 15.9997 14.1064 15.9997 12C15.9997 9.89356 15.4452 7.82423 14.392 6M9.92798 16C10.6301 14.7838 10.9998 13.4043 10.9998 12C10.9998 10.5957 10.6301 9.21615 9.92798 8M5.07198 16C4.36983 14.7838 4.00018 13.4043 4.00018 12C4.00018 10.5957 4.36983 9.21615 5.07198 8" stroke="#FD5C00" stroke-width="2" stroke-linecap="round"/>
</svg>
