<svg width="248" height="182" viewBox="0 0 248 182" fill="none" xmlns="http://www.w3.org/2000/svg">
    <g clip-path="url(#clip0_1012_2225)">
        <path d="M237.84 159H10.16C4.54844 159 0 154.42 0 148.772V25.2277C0 19.5795 4.5492 15 10.16 15H237.84C243.452 15 248 19.5795 248 25.2277V148.771C248 154.42 243.451 159 237.84 159Z" fill="#FF7425"/>
        <path d="M237.84 15H10.16C4.5492 15 0 19.5795 0 25.2277V148.771C0 154.42 4.5492 158.999 10.16 158.999H176.255C103.904 155.286 49.2188 127.679 45.8109 100.25C41.3133 64.0541 47.814 41.5814 87.6786 38.6698C115.694 36.6235 248 38.6698 248 38.6698V25.2277C248 19.5795 243.451 15 237.84 15Z" fill="#FD5C00"/>
        <path d="M115.563 41.9551H19.013C17.1974 41.9551 15.7258 40.4737 15.7258 38.646V34.3745C15.7258 32.5468 17.1974 31.0654 19.013 31.0654H115.562C117.378 31.0654 118.849 32.5468 118.849 34.3745V38.646C118.85 40.4737 117.378 41.9551 115.563 41.9551Z" fill="white"/>
        <path d="M19.013 41.9551H69.7285C74.7743 40.2849 80.7169 39.1788 87.6785 38.6705C93.8504 38.2195 105.085 37.9672 118.85 37.848V34.3745C118.85 32.5468 117.379 31.0654 115.563 31.0654H19.013C17.1974 31.0654 15.7258 32.5468 15.7258 34.3745V38.646C15.7258 40.4737 17.1974 41.9551 19.013 41.9551Z" fill="white"/>
        <path d="M229.452 41.9551H221.782C219.967 41.9551 218.495 40.4737 218.495 38.646V34.3745C218.495 32.5468 219.967 31.0654 221.782 31.0654H229.452C231.268 31.0654 232.74 32.5468 232.74 34.3745V38.646C232.74 40.4737 231.269 41.9551 229.452 41.9551Z" fill="white"/>
        <path d="M232.74 34.3745C232.74 32.5468 231.269 31.0654 229.453 31.0654H221.783C219.967 31.0654 218.496 32.5468 218.496 34.3745V38.2814C223.815 38.3433 228.623 38.4029 232.741 38.4572V34.3745H232.74Z" fill="white"/>
        <path d="M115.563 139.05H19.013C17.1974 139.05 15.7258 137.568 15.7258 135.741V131.469C15.7258 129.641 17.1974 128.16 19.013 128.16H115.562C117.378 128.16 118.849 129.641 118.849 131.469V135.741C118.85 137.567 117.378 139.05 115.563 139.05Z" fill="#333333"/>
        <path d="M66.9015 128.159H19.013C17.1974 128.159 15.7258 129.641 15.7258 131.468V135.74C15.7258 137.567 17.1974 139.049 19.013 139.049H86.3307C78.9658 135.686 72.4454 132.025 66.9015 128.159Z" fill="#333333"/>
        <path d="M59.9983 115.479H19.013C17.1974 115.479 15.7258 113.998 15.7258 112.17V103.56C15.7258 101.732 17.1974 100.251 19.013 100.251H59.9983C61.8139 100.251 63.2855 101.732 63.2855 103.56V112.17C63.2862 113.998 61.8139 115.479 59.9983 115.479Z" fill="#333333"/>
        <path d="M19.013 115.479H52.8674C48.8732 110.502 46.4479 105.373 45.8108 100.251H19.013C17.1974 100.251 15.7258 101.732 15.7258 103.56V112.17C15.7258 113.998 17.1974 115.479 19.013 115.479Z" fill="#333333"/>
        <path d="M116.483 115.479H75.4979C73.6823 115.479 72.2107 113.998 72.2107 112.17V103.56C72.2107 101.732 73.6823 100.251 75.4979 100.251H116.483C118.299 100.251 119.77 101.732 119.77 103.56V112.17C119.77 113.998 118.299 115.479 116.483 115.479Z" fill="#333333"/>
        <path d="M172.968 115.479H131.983C130.167 115.479 128.696 113.998 128.696 112.17V103.56C128.696 101.732 130.167 100.251 131.983 100.251H172.968C174.784 100.251 176.255 101.732 176.255 103.56V112.17C176.255 113.998 174.784 115.479 172.968 115.479Z" fill="#333333"/>
        <path d="M229.452 115.479H188.467C186.651 115.479 185.18 113.998 185.18 112.17V103.56C185.18 101.732 186.651 100.251 188.467 100.251H229.452C231.268 100.251 232.739 101.732 232.739 103.56V112.17C232.74 113.998 231.269 115.479 229.452 115.479Z" fill="#333333"/>
        <path d="M59.9984 93.0821H26.2352C24.4196 93.0821 22.948 91.6007 22.948 89.773V70.7263C22.948 68.8987 24.4196 67.4172 26.2352 67.4172H59.9984C61.814 67.4172 63.2856 68.8987 63.2856 70.7263V89.773C63.2863 91.5999 61.814 93.0821 59.9984 93.0821Z" fill="#FFC470"/>
        <path d="M26.2352 93.0824H45.0554C44.2315 83.3462 44.4145 74.7459 46.1177 67.4167H26.2352C24.4196 67.4167 22.948 68.8982 22.948 70.7259V89.7725C22.948 91.6002 24.4196 93.0824 26.2352 93.0824Z" fill="#FFB25E"/>
        <path d="M35.2987 67.4167H34.9304V93.0824H35.2987V67.4167Z" fill="white"/>
        <path d="M51.4894 67.4167H51.1211V93.0824H51.4894V67.4167Z" fill="white"/>
        <path d="M41.1851 93.0633L41.1805 93.0817H40.8039L40.8244 92.9884C40.8343 92.9395 41.8047 88.0419 39.974 85.8695C37.8114 83.3026 36.8986 80.8833 37.2608 78.6765C37.6906 76.0614 39.7553 74.6985 39.999 74.5456C41.9703 72.5291 40.8373 67.4665 40.8259 67.416H41.1843C41.2345 67.6316 42.3818 72.6721 40.2443 74.8231L40.2086 74.8506C40.1873 74.8636 38.0392 76.1906 37.623 78.7414C37.2813 80.8336 38.1667 83.1513 40.2542 85.6287C42.2011 87.9403 41.2276 92.8554 41.1851 93.0633Z" fill="white"/>
        <path d="M45.038 93.0633C44.9955 92.8554 44.022 87.9402 45.9689 85.6302C48.0586 83.1505 48.9433 80.832 48.5993 78.7376C48.1801 76.1837 46.0365 74.8651 46.0145 74.8521L45.9788 74.8238C43.8413 72.672 44.9795 67.6315 45.0296 67.4167H45.4078C45.3964 67.4672 44.2536 72.5306 46.2248 74.5463C46.4686 74.6992 48.534 76.0622 48.963 78.6772C49.3252 80.8833 48.4125 83.3034 46.2499 85.8702C44.4191 88.0427 45.3888 92.9402 45.3994 92.9891L45.4184 93.0824H45.0426L45.038 93.0633Z" fill="white"/>
        <path d="M63.2863 74.5073H22.948V74.8781H63.2863V74.5073Z" fill="white"/>
        <path d="M63.2863 76.9771H22.948V77.3478H63.2863V76.9771Z" fill="white"/>
        <path d="M63.2863 85.5645H22.948V85.9352H63.2863V85.5645Z" fill="white"/>
        <path d="M63.2863 83.0955H22.948V83.4662H63.2863V83.0955Z" fill="white"/>
    </g>
    <g filter="url(#filter0_d_1012_2225)">
        <path d="M216 7L216 167" stroke="#FE0000" stroke-width="5" stroke-linecap="round"/>
    </g>
    <defs>
        <filter id="filter0_d_1012_2225" x="205.5" y="0.5" width="21" height="181" filterUnits="userSpaceOnUse" color-interpolation-filters="sRGB">
            <feFlood flood-opacity="0" result="BackgroundImageFix"/>
            <feColorMatrix in="SourceAlpha" type="matrix" values="0 0 0 0 0 0 0 0 0 0 0 0 0 0 0 0 0 0 127 0" result="hardAlpha"/>
            <feOffset dy="4"/>
            <feGaussianBlur stdDeviation="4"/>
            <feComposite in2="hardAlpha" operator="out"/>
            <feColorMatrix type="matrix" values="0 0 0 0 1 0 0 0 0 1 0 0 0 0 1 0 0 0 0.4 0"/>
            <feBlend mode="normal" in2="BackgroundImageFix" result="effect1_dropShadow_1012_2225"/>
            <feBlend mode="normal" in="SourceGraphic" in2="effect1_dropShadow_1012_2225" result="shape"/>
        </filter>
        <clipPath id="clip0_1012_2225">
            <rect width="248" height="144" fill="white" transform="translate(0 15)"/>
        </clipPath>
    </defs>
</svg>
