<svg width="48" height="48" viewBox="0 0 48 48" fill="none" xmlns="http://www.w3.org/2000/svg">
    <rect width="48" height="48" rx="4" fill="#FFF3EC"/>
    <path fill-rule="evenodd" clip-rule="evenodd" d="M21.0605 17.0607C21.6463 16.4749 21.6463 15.5251 21.0605 14.9393C20.4747 14.3536 19.525 14.3536 18.9392 14.9393L13.6058 20.2727C13.4441 20.4344 13.327 20.6239 13.2546 20.8258C13.1976 20.9844 13.1665 21.1553 13.1665 21.3335C13.1665 21.5709 13.2217 21.7955 13.3199 21.995C13.3619 22.0805 13.4125 22.1627 13.4717 22.2405C13.5167 22.2997 13.566 22.3554 13.6191 22.4072L18.9392 27.7273C19.525 28.3131 20.4747 28.3131 21.0605 27.7273C21.6463 27.1415 21.6463 26.1918 21.0605 25.606L18.288 22.8335H29.3332C30.3498 22.8335 31.3249 23.2374 32.0437 23.9563C32.7626 24.6751 33.1665 25.6502 33.1665 26.6668C33.1665 27.6835 32.7626 28.6585 32.0437 29.3774C31.3249 30.0963 30.3498 30.5002 29.3332 30.5002H27.9998C27.1714 30.5002 26.4998 31.1717 26.4998 32.0002C26.4998 32.8286 27.1714 33.5002 27.9998 33.5002H29.3332C31.1455 33.5002 32.8836 32.7802 34.1651 31.4987C35.4466 30.2172 36.1665 28.4791 36.1665 26.6668C36.1665 24.8545 35.4466 23.1164 34.1651 21.8349C32.8836 20.5534 31.1455 19.8335 29.3332 19.8335H18.2877L21.0605 17.0607Z" fill="url(#paint0_linear_224_1725)"/>
    <defs>
        <linearGradient id="paint0_linear_224_1725" x1="13.187" y1="24.0076" x2="36.2424" y2="24.0076" gradientUnits="userSpaceOnUse">
            <stop stop-color="#FD5C00"/>
            <stop offset="1" stop-color="#D40E19"/>
        </linearGradient>
    </defs>
</svg>
