<svg width="16" height="17" viewBox="0 0 16 17" fill="none" xmlns="http://www.w3.org/2000/svg">
    <path d="M10.6664 8.5C12.5064 8.5 13.9998 7.00667 13.9998 5.16667C13.9998 3.32667 12.5064 1.83334 10.6664 1.83334C8.82643 1.83334 7.3331 3.32667 7.3331 5.16667C7.3331 7.00667 8.82643 8.5 10.6664 8.5ZM14.2998 12.2333C14.0398 11.9667 13.7131 11.8333 13.3331 11.8333H8.66643L7.27976 11.3467L7.49976 10.72L8.66643 11.1667H10.5331C10.7664 11.1667 10.9531 11.0733 11.1064 10.92C11.2598 10.7667 11.3331 10.58 11.3331 10.3733C11.3331 10.0133 11.1598 9.76667 10.8131 9.62667L5.96643 7.83334H4.66643V13.8333L9.3331 15.1667L14.6864 13.1667C14.6931 12.8133 14.5598 12.5 14.2998 12.2333ZM3.3331 7.83334H0.655762V15.1667H3.3331V7.83334Z" fill="#333333"/>
</svg>
