<svg width="48" height="48" viewBox="0 0 48 48" fill="none" xmlns="http://www.w3.org/2000/svg">
    <rect width="48" height="48" rx="4" fill="#FFF3EC"/>
    <path d="M12.7998 17.6C12.7998 16.327 13.3055 15.1061 14.2057 14.2059C15.1059 13.3057 16.3268 12.8 17.5998 12.8H30.3998C31.6728 12.8 32.8937 13.3057 33.7939 14.2059C34.6941 15.1061 35.1998 16.327 35.1998 17.6V23.0416C34.47 22.6203 33.6421 22.3985 32.7994 22.3985C31.9567 22.3986 31.1289 22.6205 30.3992 23.042C29.6694 23.4634 29.0635 24.0696 28.6423 24.7995C28.2211 25.5294 27.9995 26.3573 27.9998 27.2H25.5998C25.3876 27.2 25.1841 27.2843 25.0341 27.4343C24.8841 27.5843 24.7998 27.7878 24.7998 28C24.7998 28.2122 24.8841 28.4157 25.0341 28.5657C25.1841 28.7157 25.3876 28.8 25.5998 28.8H28.2718C28.4836 29.3971 28.8115 29.9463 29.2366 30.416C28.2426 30.5066 27.3185 30.9656 26.6456 31.7027C25.9727 32.4398 25.5997 33.4019 25.5998 34.4C25.5998 34.6667 25.6201 34.9333 25.6606 35.2H17.5998C16.3268 35.2 15.1059 34.6943 14.2057 33.7941C13.3055 32.8939 12.7998 31.673 12.7998 30.4V17.6ZM22.9662 19.3664C23.1164 19.2162 23.2008 19.0124 23.2008 18.8C23.2008 18.5876 23.1164 18.3838 22.9662 18.2336C22.816 18.0834 22.6122 17.999 22.3998 17.999C22.1874 17.999 21.9836 18.0834 21.8334 18.2336L19.5742 20.4928L18.939 19.9136C18.7812 19.7787 18.5771 19.7104 18.3699 19.7233C18.1626 19.7361 17.9685 19.8289 17.8285 19.9822C17.6885 20.1355 17.6136 20.3373 17.6196 20.5448C17.6255 20.7524 17.712 20.9494 17.8606 21.0944L19.0606 22.1904C19.2127 22.3288 19.4122 22.4034 19.6177 22.3986C19.8233 22.3939 20.0191 22.3101 20.1646 22.1648L22.9662 19.3664ZM22.9662 26.2336C22.8919 26.1591 22.8036 26.1 22.7064 26.0597C22.6092 26.0193 22.505 25.9986 22.3998 25.9986C22.2946 25.9986 22.1904 26.0193 22.0932 26.0597C21.996 26.1 21.9077 26.1591 21.8334 26.2336L19.5742 28.4928L18.939 27.9136C18.7812 27.7787 18.5771 27.7104 18.3699 27.7233C18.1626 27.7361 17.9685 27.8289 17.8285 27.9822C17.6885 28.1355 17.6136 28.3373 17.6196 28.5448C17.6255 28.7524 17.712 28.9494 17.8606 29.0944L19.0606 30.1904C19.2124 30.329 19.4118 30.4039 19.6174 30.3994C19.823 30.395 20.0189 30.3115 20.1646 30.1664L22.9646 27.3664C23.1146 27.2164 23.1988 27.0129 23.1988 26.8008C23.1988 26.5887 23.1146 26.3852 22.9646 26.2352M24.7998 20C24.7998 20.2122 24.8841 20.4157 25.0341 20.5657C25.1841 20.7157 25.3876 20.8 25.5998 20.8H29.5998C29.812 20.8 30.0155 20.7157 30.1655 20.5657C30.3155 20.4157 30.3998 20.2122 30.3998 20C30.3998 19.7878 30.3155 19.5843 30.1655 19.4343C30.0155 19.2843 29.812 19.2 29.5998 19.2H25.5998C25.3876 19.2 25.1841 19.2843 25.0341 19.4343C24.8841 19.5843 24.7998 19.7878 24.7998 20ZM35.9998 27.2C35.9998 28.0487 35.6627 28.8626 35.0625 29.4627C34.4624 30.0629 33.6485 30.4 32.7998 30.4C31.9511 30.4 31.1372 30.0629 30.5371 29.4627C29.9369 28.8626 29.5998 28.0487 29.5998 27.2C29.5998 26.3513 29.9369 25.5374 30.5371 24.9373C31.1372 24.3371 31.9511 24 32.7998 24C33.6485 24 34.4624 24.3371 35.0625 24.9373C35.6627 25.5374 35.9998 26.3513 35.9998 27.2ZM38.3998 34.4C38.3998 36.392 36.7998 38.4 32.7998 38.4C28.7998 38.4 27.1998 36.4 27.1998 34.4C27.1998 33.7635 27.4527 33.153 27.9027 32.7029C28.3528 32.2529 28.9633 32 29.5998 32H35.9998C36.6363 32 37.2468 32.2529 37.6969 32.7029C38.1469 33.153 38.3998 33.7635 38.3998 34.4Z" fill="url(#paint0_linear_3220_890)"/>
    <defs>
        <linearGradient id="paint0_linear_3220_890" x1="12.8226" y1="25.6102" x2="38.4843" y2="25.6102" gradientUnits="userSpaceOnUse">
            <stop stop-color="#FD5C00"/>
            <stop offset="1" stop-color="#D40E19"/>
        </linearGradient>
    </defs>
</svg>
